<svg width="199" height="53" viewBox="0 0 199 53" fill="none" xmlns="http://www.w3.org/2000/svg">
<path d="M22.2965 0.239868H0.462769V52.4558L22.2965 0.239868Z" fill="#262626"/>
<path d="M37.6583 0.239868H59.4635V52.4558L37.6583 0.239868Z" fill="#262626"/>
<path d="M29.9774 19.4847L43.8741 52.4558H34.7566L30.6032 41.9585H20.4331L29.9774 19.4847Z" fill="#262626"/>
<path d="M95.0836 33.4457L97.6581 40.8279C97.7434 41.0128 97.8714 41.0982 98.099 41.0982H103.049C103.319 41.0982 103.362 40.9702 103.319 40.6999L93.0922 12.2948C93.0495 12.0672 93.0069 12.0245 92.7793 12.0245H86.6345C86.4639 12.0245 86.3643 12.1526 86.3643 12.3375C86.2789 13.831 86.1509 14.2861 85.966 14.7271L76.8485 40.6573C76.8058 40.9702 76.9054 41.0982 77.1614 41.0982H81.5851C81.8553 41.0982 81.9833 41.0128 82.0829 40.7426L84.5152 33.4457H95.0836ZM85.9234 28.6238C87.2604 24.5842 89.0242 19.4067 89.7354 16.4482H89.778C90.6599 19.549 92.7366 25.6937 93.6754 28.6238H85.9234Z" fill="#262626"/>
<path d="M116.467 41.5393C119.127 41.5393 121.957 41.0557 124.83 39.8182C125.058 39.7328 125.101 39.6333 125.101 39.4199C125.015 38.6234 124.916 37.4713 124.916 36.5894V9.84844C124.916 9.67775 124.916 9.59241 124.702 9.59241H119.88C119.696 9.59241 119.61 9.67775 119.61 9.90533V18.966C118.856 18.8806 118.33 18.8379 117.704 18.8379C109.924 18.8379 105.144 23.9728 105.144 30.3878C105.144 37.8269 110.052 41.5393 116.467 41.5393ZM119.61 36.5894C118.814 36.8454 117.932 36.945 117.036 36.945C113.508 36.945 110.621 34.9536 110.621 30.1175C110.621 25.8361 113.593 23.3042 117.534 23.3042C118.33 23.3042 119.027 23.3896 119.61 23.6172V36.5894Z" fill="#262626"/>
<path d="M140.483 18.8379C133.841 18.8379 129.73 23.93 129.73 30.217C129.73 35.8355 133.002 41.5392 140.384 41.5392C146.628 41.5392 151.009 36.9449 151.009 30.0748C151.009 24.0154 147.297 18.8379 140.483 18.8379ZM140.213 23.3042C143.968 23.3042 145.561 26.533 145.561 30.217C145.561 34.7687 143.214 37.0303 140.483 37.0303C137.112 37.0303 135.121 34.1997 135.121 30.1174C135.121 25.9214 137.24 23.3042 140.213 23.3042Z" fill="#262626"/>
<path d="M155.994 9.59241C155.809 9.59241 155.681 9.67775 155.681 9.90533V40.1738C155.681 40.3018 155.809 40.5294 155.994 40.5721C158.114 41.2264 160.333 41.5393 162.623 41.5393C169.18 41.5393 175.552 37.4713 175.552 29.2783C175.552 23.3469 171.484 18.8379 165.112 18.8379C163.647 18.8379 162.281 19.0655 161.086 19.4638L161.03 9.948C161.03 9.63508 160.944 9.59241 160.631 9.59241H155.994ZM170.104 29.8188C170.104 34.726 166.748 37.0303 163.12 37.0303C162.367 37.0303 161.698 36.9876 161.086 36.8027V23.8874C161.783 23.6172 162.623 23.3896 164.173 23.3896C167.672 23.3896 170.104 25.6085 170.104 29.8188Z" fill="#262626"/>
<path d="M193.547 31.4118C195.709 31.4118 197.487 31.3691 198.099 31.2269C198.327 31.1842 198.412 31.0989 198.455 30.914C198.583 30.4304 198.64 29.4205 198.64 28.183C198.64 23.9727 196.108 18.8379 189.565 18.8379C182.88 18.8379 179.167 24.2856 179.167 30.4304C179.167 35.8781 182.04 41.5392 190.091 41.5392C193.107 41.5392 195.055 41.0556 196.734 40.2591C196.904 40.1737 196.99 40.0315 196.99 39.7755V36.0915C196.99 35.8781 196.862 35.8355 196.734 35.9208C195.055 36.632 193.235 36.9876 191.243 36.9876C186.734 36.9876 184.686 34.4984 184.558 31.4118H193.547ZM184.558 27.5998C184.914 25.4378 186.279 23.0908 189.337 23.0908C192.708 23.0908 193.59 25.9214 193.59 27.2015C193.59 27.2442 193.59 27.4291 193.59 27.5571C193.405 27.5998 192.836 27.5998 191.158 27.5998H184.558Z" fill="#262626"/>
</svg>
