<svg width="190" height="61" viewBox="0 0 190 61" fill="none" xmlns="http://www.w3.org/2000/svg">
<path d="M100.185 15.5852C100.185 17.7238 98.4693 19.4466 96.3391 19.4466C94.2089 19.4466 92.493 17.7238 92.493 15.5852C92.493 13.4465 94.1498 11.7237 96.3391 11.7237C98.5285 11.7831 100.185 13.5059 100.185 15.5852ZM84.3273 23.3675C84.3273 23.7239 84.3273 24.318 84.3273 24.318C84.3273 24.318 82.493 21.9417 78.5877 21.9417C72.138 21.9417 67.1084 26.8725 67.1084 33.7043C67.1084 40.4768 72.0788 45.467 78.5877 45.467C82.5522 45.467 84.3273 43.0313 84.3273 43.0313V44.0412C84.3273 44.5165 84.6823 44.8729 85.1557 44.8729H89.9486V22.5358C89.9486 22.5358 85.5699 22.5358 85.1557 22.5358C84.6823 22.5358 84.3273 22.9516 84.3273 23.3675ZM84.3273 37.6846C83.4397 38.9916 81.6646 40.1203 79.5344 40.1203C75.7474 40.1203 72.848 37.744 72.848 33.7043C72.848 29.6647 75.7474 27.2884 79.5344 27.2884C81.6054 27.2884 83.4989 28.4765 84.3273 29.7241V37.6846ZM93.4989 22.5358H99.1793V44.8729H93.4989V22.5358ZM178.351 21.9417C174.445 21.9417 172.611 24.318 172.611 24.318V11.7831H166.931V44.8729C166.931 44.8729 171.309 44.8729 171.724 44.8729C172.197 44.8729 172.552 44.457 172.552 44.0412V43.0313C172.552 43.0313 174.386 45.467 178.292 45.467C184.741 45.467 189.771 40.4768 189.771 33.7043C189.771 26.9319 184.741 21.9417 178.351 21.9417ZM177.404 40.0609C175.215 40.0609 173.499 38.9322 172.611 37.6252V29.6647C173.499 28.4765 175.392 27.229 177.404 27.229C181.191 27.229 184.09 29.6052 184.09 33.6449C184.09 37.6846 181.191 40.0609 177.404 40.0609ZM163.972 31.6251V44.9323H158.292V32.2786C158.292 28.5953 157.108 27.1101 153.913 27.1101C152.197 27.1101 150.422 28.0013 149.298 29.3082V44.8729H143.617V22.5358H148.114C148.587 22.5358 148.943 22.9516 148.943 23.3675V24.318C150.599 22.5952 152.789 21.9417 154.978 21.9417C157.463 21.9417 159.534 22.6546 161.191 24.0804C163.203 25.7438 163.972 27.8824 163.972 31.6251ZM129.83 21.9417C125.925 21.9417 124.091 24.318 124.091 24.318V11.7831H118.41V44.8729C118.41 44.8729 122.789 44.8729 123.203 44.8729C123.676 44.8729 124.031 44.457 124.031 44.0412V43.0313C124.031 43.0313 125.866 45.467 129.771 45.467C136.221 45.467 141.25 40.4768 141.25 33.7043C141.309 26.9319 136.28 21.9417 129.83 21.9417ZM128.883 40.0609C126.694 40.0609 124.978 38.9322 124.091 37.6252V29.6647C124.978 28.4765 126.872 27.229 128.883 27.229C132.67 27.229 135.57 29.6052 135.57 33.6449C135.57 37.6846 132.67 40.0609 128.883 40.0609ZM113.499 21.9417C115.215 21.9417 116.102 22.2388 116.102 22.2388V27.526C116.102 27.526 111.369 25.922 108.41 29.3082V44.9323H102.73V22.5358C102.73 22.5358 107.108 22.5358 107.523 22.5358C107.996 22.5358 108.351 22.9516 108.351 23.3675V24.318C109.416 23.0705 111.724 21.9417 113.499 21.9417ZM54.5049 42.8531C54.209 42.1402 53.9132 41.3679 53.6173 40.7144C53.144 39.6451 52.6706 38.6351 52.2564 37.6846L52.1972 37.6252C48.1144 28.7141 43.7357 19.6842 39.1203 10.7732L38.9428 10.4167C38.4694 9.52562 37.9961 8.57511 37.5227 7.62459C36.931 6.55526 36.3393 5.42653 35.3925 4.3572C33.499 1.98091 30.7771 0.67395 27.8777 0.67395C24.9192 0.67395 22.2565 1.98091 20.3038 4.23838C19.4162 5.30771 18.7653 6.43645 18.1736 7.50578C17.7003 8.45629 17.2269 9.40681 16.7535 10.2979L16.576 10.6544C12.0198 19.5654 7.58194 28.5953 3.49911 37.5064L3.43994 37.6252C3.02574 38.5757 2.55237 39.5857 2.079 40.655C1.78314 41.3085 1.48728 42.0214 1.19142 42.7936C0.422196 44.9917 0.18551 47.071 0.481367 49.2096C1.13225 53.6652 4.09082 57.4078 8.17365 59.0712C9.71211 59.7247 11.3097 60.0217 12.9665 60.0217C13.4399 60.0217 14.0316 59.9623 14.505 59.9029C16.4577 59.6653 18.4695 59.0118 20.4221 57.8831C22.8482 56.5167 25.1559 54.5563 27.7594 51.7047C30.3629 54.5563 32.7298 56.5167 35.0967 57.8831C37.0493 59.0118 39.0611 59.6653 41.0138 59.9029C41.4872 59.9623 42.0789 60.0217 42.5523 60.0217C44.2091 60.0217 45.8659 59.7247 47.3451 59.0712C51.4872 57.4078 54.3866 53.6058 55.0374 49.2096C55.5108 47.1304 55.2741 45.0511 54.5049 42.8531ZM27.8186 45.9422C24.6233 41.9025 22.5523 38.1005 21.8423 34.8925C21.5464 33.5261 21.4872 32.338 21.6647 31.2687C21.7831 30.3181 22.1381 29.4864 22.6115 28.7735C23.7357 27.1696 25.6292 26.1596 27.8186 26.1596C30.0079 26.1596 31.9606 27.1101 33.0257 28.7735C33.499 29.4864 33.8541 30.3181 33.9724 31.2687C34.1499 32.338 34.0907 33.5855 33.7949 34.8925C33.0848 38.0411 31.0138 41.8431 27.8186 45.9422ZM51.428 48.7344C51.0138 51.8235 48.9428 54.4969 46.0434 55.685C44.6233 56.2791 43.0848 56.4573 41.5463 56.2791C40.0671 56.1009 38.5878 55.6256 37.0493 54.7345C34.9191 53.5463 32.789 51.7047 30.3038 48.972C34.2091 44.16 36.576 39.7639 37.4635 35.843C37.8777 34.0014 37.9369 32.338 37.7594 30.7934C37.5227 29.3082 36.9902 27.9419 36.1618 26.7537C34.3274 24.0804 31.2505 22.5358 27.8186 22.5358C24.3866 22.5358 21.3097 24.1398 19.4754 26.7537C18.647 27.9419 18.1145 29.3082 17.8778 30.7934C17.6411 32.338 17.7003 34.0608 18.1736 35.843C19.0612 39.7639 21.4872 44.2194 25.3334 49.0314C22.9073 51.7641 20.718 53.6058 18.5878 54.7939C17.0494 55.685 15.5701 56.1603 14.0908 56.3385C12.4932 56.5167 10.9547 56.2791 9.59377 55.7444C6.69437 54.5563 4.62337 51.8829 4.20917 48.7938C4.03165 47.3086 4.15 45.8234 4.74171 44.16C4.91923 43.5659 5.21508 42.9719 5.51094 42.259C5.92514 41.3085 6.39851 40.2985 6.87188 39.2886L6.93105 39.1698C11.0139 30.3181 15.3926 21.2882 19.9488 12.496L20.1263 12.1395C20.5997 11.2484 21.073 10.2979 21.5464 9.40681C22.0198 8.45629 22.5523 7.56518 23.2032 6.79289C24.4458 5.36712 26.1026 4.59482 27.9369 4.59482C29.7712 4.59482 31.428 5.36712 32.6706 6.79289C33.3215 7.56518 33.8541 8.45629 34.3274 9.40681C34.8008 10.2979 35.2742 11.2484 35.7475 12.1395L35.9251 12.496C40.4221 21.3477 44.8008 30.3775 48.8836 39.2292V39.2886C49.357 40.2391 49.7712 41.3085 50.2446 42.259C50.5404 42.9719 50.8363 43.5659 51.0138 44.16C51.4871 45.7046 51.6647 47.1898 51.428 48.7344Z" fill="#262626"/>
</svg>
