<svg width="25" height="24" viewBox="0 0 25 24" fill="none" xmlns="http://www.w3.org/2000/svg">
<path fill-rule="evenodd" clip-rule="evenodd" d="M12.5 3C12.8 3 13.1 3.1 13.3 3.4L17.3 8.4C17.3788 8.50506 17.4361 8.62461 17.4687 8.75182C17.5013 8.87903 17.5085 9.01142 17.49 9.14142C17.4714 9.27142 17.4274 9.39649 17.3605 9.50949C17.2936 9.62249 17.2051 9.72121 17.1 9.8C16.9949 9.87879 16.8754 9.93612 16.7482 9.96871C16.621 10.0013 16.4886 10.0085 16.3586 9.98995C16.2286 9.97138 16.1035 9.92738 15.9905 9.86047C15.8775 9.79357 15.7788 9.70506 15.7 9.6L13.5 7V14C13.5 14.2652 13.3946 14.5196 13.2071 14.7071C13.0196 14.8946 12.7652 15 12.5 15C12.2348 15 11.9804 14.8946 11.7929 14.7071C11.6054 14.5196 11.5 14.2652 11.5 14V6.9L9.3 9.6C9.22121 9.70506 9.12249 9.79357 9.00949 9.86047C8.89649 9.92738 8.77142 9.97138 8.64142 9.98995C8.51142 10.0085 8.37903 10.0013 8.25182 9.96871C8.12461 9.93612 8.00506 9.87879 7.9 9.8C7.79494 9.72121 7.70643 9.62249 7.63953 9.50949C7.57262 9.39649 7.52862 9.27142 7.51005 9.14142C7.49148 9.01142 7.49869 8.87903 7.53129 8.75182C7.56388 8.62461 7.62121 8.50506 7.7 8.4L11.7 3.4C11.9 3.1 12.2 3 12.5 3ZM9.5 14V13H5.5C4.96957 13 4.46086 13.2107 4.08579 13.5858C3.71071 13.9609 3.5 14.4696 3.5 15V19C3.5 20.1 4.4 21 5.5 21H19.5C20.0304 21 20.5391 20.7893 20.9142 20.4142C21.2893 20.0391 21.5 19.5304 21.5 19V15C21.5 14.4696 21.2893 13.9609 20.9142 13.5858C20.5391 13.2107 20.0304 13 19.5 13H15.5V14C15.5 14.7956 15.1839 15.5587 14.6213 16.1213C14.0587 16.6839 13.2956 17 12.5 17C11.7044 17 10.9413 16.6839 10.3787 16.1213C9.81607 15.5587 9.5 14.7956 9.5 14ZM17.5 16C17.2348 16 16.9804 16.1054 16.7929 16.2929C16.6054 16.4804 16.5 16.7348 16.5 17C16.5 17.2652 16.6054 17.5196 16.7929 17.7071C16.9804 17.8946 17.2348 18 17.5 18C17.7652 18 18.0196 17.8946 18.2071 17.7071C18.3946 17.5196 18.5 17.2652 18.5 17C18.5 16.7348 18.3946 16.4804 18.2071 16.2929C18.0196 16.1054 17.7652 16 17.5 16Z" fill="#FC700A"/>
</svg>
