<svg width="451" height="554" viewBox="0 0 451 554" fill="none" xmlns="http://www.w3.org/2000/svg">
<path d="M43.36 40.8958V44.6158H31.56V52.8158H40.76V56.5358H31.56V68.6958H27V40.8958H43.36ZM67.1459 40.8958V44.6158H59.7459V68.6958H55.1859V44.6158H47.7459V40.8958H67.1459ZM78.4441 60.7758C78.7107 62.1091 79.2841 63.1225 80.1641 63.8158C81.0441 64.5091 82.2307 64.8558 83.7241 64.8558C85.6174 64.8558 87.0041 64.1091 87.8841 62.6158C88.7641 61.1225 89.2041 58.5758 89.2041 54.9758C88.5641 55.8825 87.6574 56.5891 86.4841 57.0958C85.3374 57.5758 84.0841 57.8158 82.7241 57.8158C80.9907 57.8158 79.4174 57.4691 78.0041 56.7758C76.5907 56.0558 75.4707 55.0025 74.6441 53.6158C73.8441 52.2025 73.4441 50.4958 73.4441 48.4958C73.4441 45.5625 74.2974 43.2291 76.0041 41.4958C77.7374 39.7358 80.1107 38.8558 83.1241 38.8558C86.7507 38.8558 89.3241 40.0691 90.8441 42.4958C92.3907 44.8958 93.1641 48.5891 93.1641 53.5758C93.1641 57.0158 92.8707 59.8291 92.2841 62.0158C91.7241 64.2025 90.7374 65.8558 89.3241 66.9758C87.9107 68.0958 85.9507 68.6558 83.4441 68.6558C80.5907 68.6558 78.3907 67.9091 76.8441 66.4158C75.2974 64.9225 74.4307 63.0425 74.2441 60.7758H78.4441ZM83.5241 53.9758C85.1241 53.9758 86.3774 53.4825 87.2841 52.4958C88.2174 51.4825 88.6841 50.1491 88.6841 48.4958C88.6841 46.6558 88.1907 45.2291 87.2041 44.2158C86.2441 43.1758 84.9241 42.6558 83.2441 42.6558C81.5641 42.6558 80.2307 43.1891 79.2441 44.2558C78.2841 45.2958 77.8041 46.6691 77.8041 48.3758C77.8041 50.0025 78.2707 51.3491 79.2041 52.4158C80.1641 53.4558 81.6041 53.9758 83.5241 53.9758ZM102.675 43.7358C101.848 43.7358 101.155 43.4558 100.595 42.8958C100.035 42.3358 99.7547 41.6425 99.7547 40.8158C99.7547 39.9891 100.035 39.2958 100.595 38.7358C101.155 38.1758 101.848 37.8958 102.675 37.8958C103.475 37.8958 104.155 38.1758 104.715 38.7358C105.275 39.2958 105.555 39.9891 105.555 40.8158C105.555 41.6425 105.275 42.3358 104.715 42.8958C104.155 43.4558 103.475 43.7358 102.675 43.7358ZM104.915 73.0158C104.915 75.1758 104.368 76.7358 103.275 77.6958C102.208 78.6825 100.648 79.1758 98.5947 79.1758H96.2347V75.3358H97.7947C98.728 75.3358 99.3814 75.1491 99.7547 74.7758C100.155 74.4291 100.355 73.8425 100.355 73.0158V46.6558H104.915V73.0158ZM110.982 57.5758C110.982 55.3625 111.435 53.4025 112.342 51.6958C113.275 49.9891 114.528 48.6691 116.102 47.7358C117.702 46.7758 119.462 46.2958 121.382 46.2958C123.115 46.2958 124.622 46.6425 125.902 47.3358C127.208 48.0025 128.248 48.8425 129.022 49.8558V46.6558H133.622V68.6958H129.022V65.4158C128.248 66.4558 127.195 67.3225 125.862 68.0158C124.528 68.7091 123.008 69.0558 121.302 69.0558C119.408 69.0558 117.675 68.5758 116.102 67.6158C114.528 66.6291 113.275 65.2691 112.342 63.5358C111.435 61.7758 110.982 59.7891 110.982 57.5758ZM129.022 57.6558C129.022 56.1358 128.702 54.8158 128.062 53.6958C127.448 52.5758 126.635 51.7225 125.622 51.1358C124.608 50.5491 123.515 50.2558 122.342 50.2558C121.168 50.2558 120.075 50.5491 119.062 51.1358C118.048 51.6958 117.222 52.5358 116.582 53.6558C115.968 54.7491 115.662 56.0558 115.662 57.5758C115.662 59.0958 115.968 60.4291 116.582 61.5758C117.222 62.7225 118.048 63.6025 119.062 64.2158C120.102 64.8025 121.195 65.0958 122.342 65.0958C123.515 65.0958 124.608 64.8025 125.622 64.2158C126.635 63.6291 127.448 62.7758 128.062 61.6558C128.702 60.5091 129.022 59.1758 129.022 57.6558Z" fill="#262626"/>
<path d="M35.25 121.696H33.612L27.024 111.706V121.696H25.386V109.132H27.024L33.612 119.104V109.132H35.25V121.696ZM48.4823 116.386C48.4823 116.698 48.4643 117.028 48.4283 117.376H40.5443C40.6043 118.348 40.9343 119.11 41.5343 119.662C42.1463 120.202 42.8843 120.472 43.7483 120.472C44.4563 120.472 45.0443 120.31 45.5123 119.986C45.9923 119.65 46.3283 119.206 46.5203 118.654H48.2843C48.0203 119.602 47.4923 120.376 46.7003 120.976C45.9083 121.564 44.9243 121.858 43.7483 121.858C42.8123 121.858 41.9723 121.648 41.2283 121.228C40.4963 120.808 39.9203 120.214 39.5003 119.446C39.0803 118.666 38.8703 117.766 38.8703 116.746C38.8703 115.726 39.0743 114.832 39.4823 114.064C39.8903 113.296 40.4603 112.708 41.1923 112.3C41.9363 111.88 42.7883 111.67 43.7483 111.67C44.6843 111.67 45.5123 111.874 46.2323 112.282C46.9523 112.69 47.5043 113.254 47.8883 113.974C48.2843 114.682 48.4823 115.486 48.4823 116.386ZM46.7903 116.044C46.7903 115.42 46.6523 114.886 46.3763 114.442C46.1003 113.986 45.7223 113.644 45.2423 113.416C44.7743 113.176 44.2523 113.056 43.6763 113.056C42.8483 113.056 42.1403 113.32 41.5523 113.848C40.9763 114.376 40.6463 115.108 40.5623 116.044H46.7903ZM57.2324 121.696L54.8924 118.024L52.6424 121.696H50.9324L54.1184 116.8L50.9324 111.832H52.7864L55.1264 115.486L57.3584 111.832H59.0684L55.9004 116.71L59.0864 121.696H57.2324ZM64.1356 113.182V118.996C64.1356 119.476 64.2376 119.818 64.4416 120.022C64.6456 120.214 64.9996 120.31 65.5036 120.31H66.7096V121.696H65.2336C64.3216 121.696 63.6376 121.486 63.1816 121.066C62.7256 120.646 62.4976 119.956 62.4976 118.996V113.182H61.2196V111.832H62.4976V109.348H64.1356V111.832H66.7096V113.182H64.1356ZM76.9743 114.406V115.792H69.7923V114.406H76.9743ZM85.5563 111.67C86.4083 111.67 87.1523 111.856 87.7883 112.228C88.4363 112.6 88.9163 113.068 89.2283 113.632V111.832H90.8843V121.912C90.8843 122.812 90.6923 123.61 90.3083 124.306C89.9243 125.014 89.3723 125.566 88.6523 125.962C87.9443 126.358 87.1163 126.556 86.1683 126.556C84.8723 126.556 83.7923 126.25 82.9283 125.638C82.0643 125.026 81.5543 124.192 81.3983 123.136H83.0183C83.1983 123.736 83.5703 124.216 84.1343 124.576C84.6983 124.948 85.3763 125.134 86.1683 125.134C87.0683 125.134 87.8003 124.852 88.3643 124.288C88.9403 123.724 89.2283 122.932 89.2283 121.912V119.842C88.9043 120.418 88.4243 120.898 87.7883 121.282C87.1523 121.666 86.4083 121.858 85.5563 121.858C84.6803 121.858 83.8823 121.642 83.1623 121.21C82.4543 120.778 81.8963 120.172 81.4883 119.392C81.0803 118.612 80.8763 117.724 80.8763 116.728C80.8763 115.72 81.0803 114.838 81.4883 114.082C81.8963 113.314 82.4543 112.72 83.1623 112.3C83.8823 111.88 84.6803 111.67 85.5563 111.67ZM89.2283 116.746C89.2283 116.002 89.0783 115.354 88.7783 114.802C88.4783 114.25 88.0703 113.83 87.5543 113.542C87.0503 113.242 86.4923 113.092 85.8803 113.092C85.2683 113.092 84.7103 113.236 84.2063 113.524C83.7023 113.812 83.3003 114.232 83.0003 114.784C82.7003 115.336 82.5503 115.984 82.5503 116.728C82.5503 117.484 82.7003 118.144 83.0003 118.708C83.3003 119.26 83.7023 119.686 84.2063 119.986C84.7103 120.274 85.2683 120.418 85.8803 120.418C86.4923 120.418 87.0503 120.274 87.5543 119.986C88.0703 119.686 88.4783 119.26 88.7783 118.708C89.0783 118.144 89.2283 117.49 89.2283 116.746ZM104.092 116.386C104.092 116.698 104.074 117.028 104.038 117.376H96.1544C96.2144 118.348 96.5444 119.11 97.1444 119.662C97.7564 120.202 98.4944 120.472 99.3584 120.472C100.066 120.472 100.654 120.31 101.122 119.986C101.602 119.65 101.938 119.206 102.13 118.654H103.894C103.63 119.602 103.102 120.376 102.31 120.976C101.518 121.564 100.534 121.858 99.3584 121.858C98.4224 121.858 97.5824 121.648 96.8384 121.228C96.1064 120.808 95.5304 120.214 95.1104 119.446C94.6904 118.666 94.4804 117.766 94.4804 116.746C94.4804 115.726 94.6844 114.832 95.0924 114.064C95.5004 113.296 96.0704 112.708 96.8024 112.3C97.5464 111.88 98.3984 111.67 99.3584 111.67C100.294 111.67 101.122 111.874 101.842 112.282C102.562 112.69 103.114 113.254 103.498 113.974C103.894 114.682 104.092 115.486 104.092 116.386ZM102.4 116.044C102.4 115.42 102.262 114.886 101.986 114.442C101.71 113.986 101.332 113.644 100.852 113.416C100.384 113.176 99.8624 113.056 99.2864 113.056C98.4584 113.056 97.7504 113.32 97.1624 113.848C96.5864 114.376 96.2564 115.108 96.1724 116.044H102.4ZM112.501 111.652C113.701 111.652 114.673 112.018 115.417 112.75C116.161 113.47 116.533 114.514 116.533 115.882V121.696H114.913V116.116C114.913 115.132 114.667 114.382 114.175 113.866C113.683 113.338 113.011 113.074 112.159 113.074C111.295 113.074 110.605 113.344 110.089 113.884C109.585 114.424 109.333 115.21 109.333 116.242V121.696H107.695V111.832H109.333V113.236C109.657 112.732 110.095 112.342 110.647 112.066C111.211 111.79 111.829 111.652 112.501 111.652ZM128.525 113.65C128.849 113.086 129.329 112.618 129.965 112.246C130.613 111.862 131.363 111.67 132.215 111.67C133.091 111.67 133.883 111.88 134.591 112.3C135.311 112.72 135.875 113.314 136.283 114.082C136.691 114.838 136.895 115.72 136.895 116.728C136.895 117.724 136.691 118.612 136.283 119.392C135.875 120.172 135.311 120.778 134.591 121.21C133.883 121.642 133.091 121.858 132.215 121.858C131.375 121.858 130.631 121.672 129.983 121.3C129.347 120.916 128.861 120.442 128.525 119.878V126.376H126.887V111.832H128.525V113.65ZM135.221 116.728C135.221 115.984 135.071 115.336 134.771 114.784C134.471 114.232 134.063 113.812 133.547 113.524C133.043 113.236 132.485 113.092 131.873 113.092C131.273 113.092 130.715 113.242 130.199 113.542C129.695 113.83 129.287 114.256 128.975 114.82C128.675 115.372 128.525 116.014 128.525 116.746C128.525 117.49 128.675 118.144 128.975 118.708C129.287 119.26 129.695 119.686 130.199 119.986C130.715 120.274 131.273 120.418 131.873 120.418C132.485 120.418 133.043 120.274 133.547 119.986C134.063 119.686 134.471 119.26 134.771 118.708C135.071 118.144 135.221 117.484 135.221 116.728ZM142.129 113.434C142.417 112.87 142.825 112.432 143.353 112.12C143.893 111.808 144.547 111.652 145.315 111.652V113.344H144.883C143.047 113.344 142.129 114.34 142.129 116.332V121.696H140.491V111.832H142.129V113.434ZM152.948 121.858C152.024 121.858 151.184 121.648 150.428 121.228C149.684 120.808 149.096 120.214 148.664 119.446C148.244 118.666 148.034 117.766 148.034 116.746C148.034 115.738 148.25 114.85 148.682 114.082C149.126 113.302 149.726 112.708 150.482 112.3C151.238 111.88 152.084 111.67 153.02 111.67C153.956 111.67 154.802 111.88 155.558 112.3C156.314 112.708 156.908 113.296 157.34 114.064C157.784 114.832 158.006 115.726 158.006 116.746C158.006 117.766 157.778 118.666 157.322 119.446C156.878 120.214 156.272 120.808 155.504 121.228C154.736 121.648 153.884 121.858 152.948 121.858ZM152.948 120.418C153.536 120.418 154.088 120.28 154.604 120.004C155.12 119.728 155.534 119.314 155.846 118.762C156.17 118.21 156.332 117.538 156.332 116.746C156.332 115.954 156.176 115.282 155.864 114.73C155.552 114.178 155.144 113.77 154.64 113.506C154.136 113.23 153.59 113.092 153.002 113.092C152.402 113.092 151.85 113.23 151.346 113.506C150.854 113.77 150.458 114.178 150.158 114.73C149.858 115.282 149.708 115.954 149.708 116.746C149.708 117.55 149.852 118.228 150.14 118.78C150.44 119.332 150.836 119.746 151.328 120.022C151.82 120.286 152.36 120.418 152.948 120.418ZM163.238 113.65C163.562 113.086 164.042 112.618 164.678 112.246C165.326 111.862 166.076 111.67 166.928 111.67C167.804 111.67 168.596 111.88 169.304 112.3C170.024 112.72 170.588 113.314 170.996 114.082C171.404 114.838 171.608 115.72 171.608 116.728C171.608 117.724 171.404 118.612 170.996 119.392C170.588 120.172 170.024 120.778 169.304 121.21C168.596 121.642 167.804 121.858 166.928 121.858C166.088 121.858 165.344 121.672 164.696 121.3C164.06 120.916 163.574 120.442 163.238 119.878V126.376H161.6V111.832H163.238V113.65ZM169.934 116.728C169.934 115.984 169.784 115.336 169.484 114.784C169.184 114.232 168.776 113.812 168.26 113.524C167.756 113.236 167.198 113.092 166.586 113.092C165.986 113.092 165.428 113.242 164.912 113.542C164.408 113.83 164 114.256 163.688 114.82C163.388 115.372 163.238 116.014 163.238 116.746C163.238 117.49 163.388 118.144 163.688 118.708C164 119.26 164.408 119.686 164.912 119.986C165.428 120.274 165.986 120.418 166.586 120.418C167.198 120.418 167.756 120.274 168.26 119.986C168.776 119.686 169.184 119.26 169.484 118.708C169.784 118.144 169.934 117.484 169.934 116.728ZM183.44 113.182V118.996C183.44 119.476 183.542 119.818 183.746 120.022C183.95 120.214 184.304 120.31 184.808 120.31H186.014V121.696H184.538C183.626 121.696 182.942 121.486 182.486 121.066C182.03 120.646 181.802 119.956 181.802 118.996V113.182H180.524V111.832H181.802V109.348H183.44V111.832H186.014V113.182H183.44ZM191.077 113.434C191.365 112.87 191.773 112.432 192.301 112.12C192.841 111.808 193.495 111.652 194.263 111.652V113.344H193.831C191.995 113.344 191.077 114.34 191.077 116.332V121.696H189.439V111.832H191.077V113.434ZM196.982 116.728C196.982 115.72 197.186 114.838 197.594 114.082C198.002 113.314 198.56 112.72 199.268 112.3C199.988 111.88 200.786 111.67 201.662 111.67C202.526 111.67 203.276 111.856 203.912 112.228C204.548 112.6 205.022 113.068 205.334 113.632V111.832H206.99V121.696H205.334V119.86C205.01 120.436 204.524 120.916 203.876 121.3C203.24 121.672 202.496 121.858 201.644 121.858C200.768 121.858 199.976 121.642 199.268 121.21C198.56 120.778 198.002 120.172 197.594 119.392C197.186 118.612 196.982 117.724 196.982 116.728ZM205.334 116.746C205.334 116.002 205.184 115.354 204.884 114.802C204.584 114.25 204.176 113.83 203.66 113.542C203.156 113.242 202.598 113.092 201.986 113.092C201.374 113.092 200.816 113.236 200.312 113.524C199.808 113.812 199.406 114.232 199.106 114.784C198.806 115.336 198.656 115.984 198.656 116.728C198.656 117.484 198.806 118.144 199.106 118.708C199.406 119.26 199.808 119.686 200.312 119.986C200.816 120.274 201.374 120.418 201.986 120.418C202.598 120.418 203.156 120.274 203.66 119.986C204.176 119.686 204.584 119.26 204.884 118.708C205.184 118.144 205.334 117.49 205.334 116.746ZM210.586 116.728C210.586 115.72 210.79 114.838 211.198 114.082C211.606 113.314 212.164 112.72 212.872 112.3C213.592 111.88 214.396 111.67 215.284 111.67C216.052 111.67 216.766 111.85 217.426 112.21C218.086 112.558 218.59 113.02 218.938 113.596V108.376H220.594V121.696H218.938V119.842C218.614 120.43 218.134 120.916 217.498 121.3C216.862 121.672 216.118 121.858 215.266 121.858C214.39 121.858 213.592 121.642 212.872 121.21C212.164 120.778 211.606 120.172 211.198 119.392C210.79 118.612 210.586 117.724 210.586 116.728ZM218.938 116.746C218.938 116.002 218.788 115.354 218.488 114.802C218.188 114.25 217.78 113.83 217.264 113.542C216.76 113.242 216.202 113.092 215.59 113.092C214.978 113.092 214.42 113.236 213.916 113.524C213.412 113.812 213.01 114.232 212.71 114.784C212.41 115.336 212.26 115.984 212.26 116.728C212.26 117.484 212.41 118.144 212.71 118.708C213.01 119.26 213.412 119.686 213.916 119.986C214.42 120.274 214.978 120.418 215.59 120.418C216.202 120.418 216.76 120.274 217.264 119.986C217.78 119.686 218.188 119.26 218.488 118.708C218.788 118.144 218.938 117.49 218.938 116.746ZM225.648 110.23C225.336 110.23 225.072 110.122 224.856 109.906C224.64 109.69 224.532 109.426 224.532 109.114C224.532 108.802 224.64 108.538 224.856 108.322C225.072 108.106 225.336 107.998 225.648 107.998C225.948 107.998 226.2 108.106 226.404 108.322C226.62 108.538 226.728 108.802 226.728 109.114C226.728 109.426 226.62 109.69 226.404 109.906C226.2 110.122 225.948 110.23 225.648 110.23ZM226.44 111.832V121.696H224.802V111.832H226.44ZM235.478 111.652C236.678 111.652 237.65 112.018 238.394 112.75C239.138 113.47 239.51 114.514 239.51 115.882V121.696H237.89V116.116C237.89 115.132 237.644 114.382 237.152 113.866C236.66 113.338 235.988 113.074 235.136 113.074C234.272 113.074 233.582 113.344 233.066 113.884C232.562 114.424 232.31 115.21 232.31 116.242V121.696H230.672V111.832H232.31V113.236C232.634 112.732 233.072 112.342 233.624 112.066C234.188 111.79 234.806 111.652 235.478 111.652ZM247.693 111.67C248.545 111.67 249.289 111.856 249.925 112.228C250.573 112.6 251.053 113.068 251.365 113.632V111.832H253.021V121.912C253.021 122.812 252.829 123.61 252.445 124.306C252.061 125.014 251.509 125.566 250.789 125.962C250.081 126.358 249.253 126.556 248.305 126.556C247.009 126.556 245.929 126.25 245.065 125.638C244.201 125.026 243.691 124.192 243.535 123.136H245.155C245.335 123.736 245.707 124.216 246.271 124.576C246.835 124.948 247.513 125.134 248.305 125.134C249.205 125.134 249.937 124.852 250.501 124.288C251.077 123.724 251.365 122.932 251.365 121.912V119.842C251.041 120.418 250.561 120.898 249.925 121.282C249.289 121.666 248.545 121.858 247.693 121.858C246.817 121.858 246.019 121.642 245.299 121.21C244.591 120.778 244.033 120.172 243.625 119.392C243.217 118.612 243.013 117.724 243.013 116.728C243.013 115.72 243.217 114.838 243.625 114.082C244.033 113.314 244.591 112.72 245.299 112.3C246.019 111.88 246.817 111.67 247.693 111.67ZM251.365 116.746C251.365 116.002 251.215 115.354 250.915 114.802C250.615 114.25 250.207 113.83 249.691 113.542C249.187 113.242 248.629 113.092 248.017 113.092C247.405 113.092 246.847 113.236 246.343 113.524C245.839 113.812 245.437 114.232 245.137 114.784C244.837 115.336 244.687 115.984 244.687 116.728C244.687 117.484 244.837 118.144 245.137 118.708C245.437 119.26 245.839 119.686 246.343 119.986C246.847 120.274 247.405 120.418 248.017 120.418C248.629 120.418 249.187 120.274 249.691 119.986C250.207 119.686 250.615 119.26 250.915 118.708C251.215 118.144 251.365 117.49 251.365 116.746ZM265.106 113.65C265.43 113.086 265.91 112.618 266.546 112.246C267.194 111.862 267.944 111.67 268.796 111.67C269.672 111.67 270.464 111.88 271.172 112.3C271.892 112.72 272.456 113.314 272.864 114.082C273.272 114.838 273.476 115.72 273.476 116.728C273.476 117.724 273.272 118.612 272.864 119.392C272.456 120.172 271.892 120.778 271.172 121.21C270.464 121.642 269.672 121.858 268.796 121.858C267.956 121.858 267.212 121.672 266.564 121.3C265.928 120.916 265.442 120.442 265.106 119.878V126.376H263.468V111.832H265.106V113.65ZM271.802 116.728C271.802 115.984 271.652 115.336 271.352 114.784C271.052 114.232 270.644 113.812 270.128 113.524C269.624 113.236 269.066 113.092 268.454 113.092C267.854 113.092 267.296 113.242 266.78 113.542C266.276 113.83 265.868 114.256 265.556 114.82C265.256 115.372 265.106 116.014 265.106 116.746C265.106 117.49 265.256 118.144 265.556 118.708C265.868 119.26 266.276 119.686 266.78 119.986C267.296 120.274 267.854 120.418 268.454 120.418C269.066 120.418 269.624 120.274 270.128 119.986C270.644 119.686 271.052 119.26 271.352 118.708C271.652 118.144 271.802 117.484 271.802 116.728ZM278.71 108.376V121.696H277.072V108.376H278.71ZM282.33 116.728C282.33 115.72 282.534 114.838 282.942 114.082C283.35 113.314 283.908 112.72 284.616 112.3C285.336 111.88 286.134 111.67 287.01 111.67C287.874 111.67 288.624 111.856 289.26 112.228C289.896 112.6 290.37 113.068 290.682 113.632V111.832H292.338V121.696H290.682V119.86C290.358 120.436 289.872 120.916 289.224 121.3C288.588 121.672 287.844 121.858 286.992 121.858C286.116 121.858 285.324 121.642 284.616 121.21C283.908 120.778 283.35 120.172 282.942 119.392C282.534 118.612 282.33 117.724 282.33 116.728ZM290.682 116.746C290.682 116.002 290.532 115.354 290.232 114.802C289.932 114.25 289.524 113.83 289.008 113.542C288.504 113.242 287.946 113.092 287.334 113.092C286.722 113.092 286.164 113.236 285.66 113.524C285.156 113.812 284.754 114.232 284.454 114.784C284.154 115.336 284.004 115.984 284.004 116.728C284.004 117.484 284.154 118.144 284.454 118.708C284.754 119.26 285.156 119.686 285.66 119.986C286.164 120.274 286.722 120.418 287.334 120.418C287.946 120.418 288.504 120.274 289.008 119.986C289.524 119.686 289.932 119.26 290.232 118.708C290.532 118.144 290.682 117.49 290.682 116.746ZM298.544 113.182V118.996C298.544 119.476 298.646 119.818 298.85 120.022C299.054 120.214 299.408 120.31 299.912 120.31H301.118V121.696H299.642C298.73 121.696 298.046 121.486 297.59 121.066C297.134 120.646 296.906 119.956 296.906 118.996V113.182H295.628V111.832H296.906V109.348H298.544V111.832H301.118V113.182H298.544ZM308.557 113.182H306.487V121.696H304.849V113.182H303.571V111.832H304.849V111.13C304.849 110.026 305.131 109.222 305.695 108.718C306.271 108.202 307.189 107.944 308.449 107.944V109.312C307.729 109.312 307.219 109.456 306.919 109.744C306.631 110.02 306.487 110.482 306.487 111.13V111.832H308.557V113.182ZM316.209 121.858C315.285 121.858 314.445 121.648 313.689 121.228C312.945 120.808 312.357 120.214 311.925 119.446C311.505 118.666 311.295 117.766 311.295 116.746C311.295 115.738 311.511 114.85 311.943 114.082C312.387 113.302 312.987 112.708 313.743 112.3C314.499 111.88 315.345 111.67 316.281 111.67C317.217 111.67 318.063 111.88 318.819 112.3C319.575 112.708 320.169 113.296 320.601 114.064C321.045 114.832 321.267 115.726 321.267 116.746C321.267 117.766 321.039 118.666 320.583 119.446C320.139 120.214 319.533 120.808 318.765 121.228C317.997 121.648 317.145 121.858 316.209 121.858ZM316.209 120.418C316.797 120.418 317.349 120.28 317.865 120.004C318.381 119.728 318.795 119.314 319.107 118.762C319.431 118.21 319.593 117.538 319.593 116.746C319.593 115.954 319.437 115.282 319.125 114.73C318.813 114.178 318.405 113.77 317.901 113.506C317.397 113.23 316.851 113.092 316.263 113.092C315.663 113.092 315.111 113.23 314.607 113.506C314.115 113.77 313.719 114.178 313.419 114.73C313.119 115.282 312.969 115.954 312.969 116.746C312.969 117.55 313.113 118.228 313.401 118.78C313.701 119.332 314.097 119.746 314.589 120.022C315.081 120.286 315.621 120.418 316.209 120.418ZM326.498 113.434C326.786 112.87 327.194 112.432 327.722 112.12C328.262 111.808 328.916 111.652 329.684 111.652V113.344H329.252C327.416 113.344 326.498 114.34 326.498 116.332V121.696H324.86V111.832H326.498V113.434ZM344.877 111.652C345.645 111.652 346.329 111.814 346.929 112.138C347.529 112.45 348.003 112.924 348.351 113.56C348.699 114.196 348.873 114.97 348.873 115.882V121.696H347.253V116.116C347.253 115.132 347.007 114.382 346.515 113.866C346.035 113.338 345.381 113.074 344.553 113.074C343.701 113.074 343.023 113.35 342.519 113.902C342.015 114.442 341.763 115.228 341.763 116.26V121.696H340.143V116.116C340.143 115.132 339.897 114.382 339.405 113.866C338.925 113.338 338.271 113.074 337.443 113.074C336.591 113.074 335.913 113.35 335.409 113.902C334.905 114.442 334.653 115.228 334.653 116.26V121.696H333.015V111.832H334.653V113.254C334.977 112.738 335.409 112.342 335.949 112.066C336.501 111.79 337.107 111.652 337.767 111.652C338.595 111.652 339.327 111.838 339.963 112.21C340.599 112.582 341.073 113.128 341.385 113.848C341.661 113.152 342.117 112.612 342.753 112.228C343.389 111.844 344.097 111.652 344.877 111.652ZM360.877 113.668C361.213 113.08 361.705 112.6 362.353 112.228C363.001 111.856 363.739 111.67 364.567 111.67C365.455 111.67 366.253 111.88 366.961 112.3C367.669 112.72 368.227 113.314 368.635 114.082C369.043 114.838 369.247 115.72 369.247 116.728C369.247 117.724 369.043 118.612 368.635 119.392C368.227 120.172 367.663 120.778 366.943 121.21C366.235 121.642 365.443 121.858 364.567 121.858C363.715 121.858 362.965 121.672 362.317 121.3C361.681 120.928 361.201 120.454 360.877 119.878V121.696H359.239V108.376H360.877V113.668ZM367.573 116.728C367.573 115.984 367.423 115.336 367.123 114.784C366.823 114.232 366.415 113.812 365.899 113.524C365.395 113.236 364.837 113.092 364.225 113.092C363.625 113.092 363.067 113.242 362.551 113.542C362.047 113.83 361.639 114.256 361.327 114.82C361.027 115.372 360.877 116.014 360.877 116.746C360.877 117.49 361.027 118.144 361.327 118.708C361.639 119.26 362.047 119.686 362.551 119.986C363.067 120.274 363.625 120.418 364.225 120.418C364.837 120.418 365.395 120.274 365.899 119.986C366.415 119.686 366.823 119.26 367.123 118.708C367.423 118.144 367.573 117.484 367.573 116.728ZM381.591 111.832V121.696H379.953V120.238C379.641 120.742 379.203 121.138 378.639 121.426C378.087 121.702 377.475 121.84 376.803 121.84C376.035 121.84 375.345 121.684 374.733 121.372C374.121 121.048 373.635 120.568 373.275 119.932C372.927 119.296 372.753 118.522 372.753 117.61V111.832H374.373V117.394C374.373 118.366 374.619 119.116 375.111 119.644C375.603 120.16 376.275 120.418 377.127 120.418C378.003 120.418 378.693 120.148 379.197 119.608C379.701 119.068 379.953 118.282 379.953 117.25V111.832H381.591ZM386.643 110.23C386.331 110.23 386.067 110.122 385.851 109.906C385.635 109.69 385.527 109.426 385.527 109.114C385.527 108.802 385.635 108.538 385.851 108.322C386.067 108.106 386.331 107.998 386.643 107.998C386.943 107.998 387.195 108.106 387.399 108.322C387.615 108.538 387.723 108.802 387.723 109.114C387.723 109.426 387.615 109.69 387.399 109.906C387.195 110.122 386.943 110.23 386.643 110.23ZM387.435 111.832V121.696H385.797V111.832H387.435ZM393.304 108.376V121.696H391.666V108.376H393.304ZM399.534 113.182V118.996C399.534 119.476 399.636 119.818 399.84 120.022C400.044 120.214 400.398 120.31 400.902 120.31H402.108V121.696H400.632C399.72 121.696 399.036 121.486 398.58 121.066C398.124 120.646 397.896 119.956 397.896 118.996V113.182H396.618V111.832H397.896V109.348H399.534V111.832H402.108V113.182H399.534ZM29.4 143.182H27.33V151.696H25.692V143.182H24.414V141.832H25.692V141.13C25.692 140.026 25.974 139.222 26.538 138.718C27.114 138.202 28.032 137.944 29.292 137.944V139.312C28.572 139.312 28.062 139.456 27.762 139.744C27.474 140.02 27.33 140.482 27.33 141.13V141.832H29.4V143.182ZM37.0518 151.858C36.1278 151.858 35.2878 151.648 34.5318 151.228C33.7878 150.808 33.1998 150.214 32.7678 149.446C32.3478 148.666 32.1378 147.766 32.1378 146.746C32.1378 145.738 32.3538 144.85 32.7858 144.082C33.2298 143.302 33.8298 142.708 34.5858 142.3C35.3418 141.88 36.1878 141.67 37.1238 141.67C38.0598 141.67 38.9058 141.88 39.6618 142.3C40.4178 142.708 41.0118 143.296 41.4438 144.064C41.8878 144.832 42.1098 145.726 42.1098 146.746C42.1098 147.766 41.8818 148.666 41.4258 149.446C40.9818 150.214 40.3758 150.808 39.6078 151.228C38.8398 151.648 37.9878 151.858 37.0518 151.858ZM37.0518 150.418C37.6398 150.418 38.1918 150.28 38.7078 150.004C39.2238 149.728 39.6378 149.314 39.9498 148.762C40.2738 148.21 40.4358 147.538 40.4358 146.746C40.4358 145.954 40.2798 145.282 39.9678 144.73C39.6558 144.178 39.2478 143.77 38.7438 143.506C38.2398 143.23 37.6938 143.092 37.1058 143.092C36.5058 143.092 35.9538 143.23 35.4498 143.506C34.9578 143.77 34.5618 144.178 34.2618 144.73C33.9618 145.282 33.8118 145.954 33.8118 146.746C33.8118 147.55 33.9558 148.228 34.2438 148.78C34.5438 149.332 34.9398 149.746 35.4318 150.022C35.9238 150.286 36.4638 150.418 37.0518 150.418ZM47.3415 143.434C47.6295 142.87 48.0375 142.432 48.5655 142.12C49.1055 141.808 49.7595 141.652 50.5275 141.652V143.344H50.0955C48.2595 143.344 47.3415 144.34 47.3415 146.332V151.696H45.7035V141.832H47.3415V143.434ZM59.4852 146.728C59.4852 145.72 59.6892 144.838 60.0972 144.082C60.5052 143.314 61.0632 142.72 61.7712 142.3C62.4912 141.88 63.2892 141.67 64.1652 141.67C65.0292 141.67 65.7792 141.856 66.4152 142.228C67.0512 142.6 67.5252 143.068 67.8372 143.632V141.832H69.4932V151.696H67.8372V149.86C67.5132 150.436 67.0272 150.916 66.3792 151.3C65.7432 151.672 64.9992 151.858 64.1472 151.858C63.2712 151.858 62.4792 151.642 61.7712 151.21C61.0632 150.778 60.5052 150.172 60.0972 149.392C59.6892 148.612 59.4852 147.724 59.4852 146.728ZM67.8372 146.746C67.8372 146.002 67.6872 145.354 67.3872 144.802C67.0872 144.25 66.6792 143.83 66.1632 143.542C65.6592 143.242 65.1012 143.092 64.4892 143.092C63.8772 143.092 63.3192 143.236 62.8152 143.524C62.3112 143.812 61.9092 144.232 61.6092 144.784C61.3092 145.336 61.1592 145.984 61.1592 146.728C61.1592 147.484 61.3092 148.144 61.6092 148.708C61.9092 149.26 62.3112 149.686 62.8152 149.986C63.3192 150.274 63.8772 150.418 64.4892 150.418C65.1012 150.418 65.6592 150.274 66.1632 149.986C66.6792 149.686 67.0872 149.26 67.3872 148.708C67.6872 148.144 67.8372 147.49 67.8372 146.746ZM73.0892 146.746C73.0892 145.726 73.2932 144.838 73.7012 144.082C74.1092 143.314 74.6732 142.72 75.3932 142.3C76.1252 141.88 76.9592 141.67 77.8952 141.67C79.1072 141.67 80.1032 141.964 80.8832 142.552C81.6752 143.14 82.1972 143.956 82.4492 145H80.6852C80.5172 144.4 80.1872 143.926 79.6952 143.578C79.2152 143.23 78.6152 143.056 77.8952 143.056C76.9592 143.056 76.2032 143.38 75.6272 144.028C75.0512 144.664 74.7632 145.57 74.7632 146.746C74.7632 147.934 75.0512 148.852 75.6272 149.5C76.2032 150.148 76.9592 150.472 77.8952 150.472C78.6152 150.472 79.2152 150.304 79.6952 149.968C80.1752 149.632 80.5052 149.152 80.6852 148.528H82.4492C82.1852 149.536 81.6572 150.346 80.8652 150.958C80.0732 151.558 79.0832 151.858 77.8952 151.858C76.9592 151.858 76.1252 151.648 75.3932 151.228C74.6732 150.808 74.1092 150.214 73.7012 149.446C73.2932 148.678 73.0892 147.778 73.0892 146.746ZM85.4628 146.746C85.4628 145.726 85.6668 144.838 86.0748 144.082C86.4828 143.314 87.0468 142.72 87.7668 142.3C88.4988 141.88 89.3328 141.67 90.2688 141.67C91.4808 141.67 92.4768 141.964 93.2568 142.552C94.0488 143.14 94.5708 143.956 94.8228 145H93.0588C92.8908 144.4 92.5608 143.926 92.0688 143.578C91.5888 143.23 90.9888 143.056 90.2688 143.056C89.3328 143.056 88.5768 143.38 88.0008 144.028C87.4248 144.664 87.1368 145.57 87.1368 146.746C87.1368 147.934 87.4248 148.852 88.0008 149.5C88.5768 150.148 89.3328 150.472 90.2688 150.472C90.9888 150.472 91.5888 150.304 92.0688 149.968C92.5488 149.632 92.8788 149.152 93.0588 148.528H94.8228C94.5588 149.536 94.0308 150.346 93.2388 150.958C92.4468 151.558 91.4568 151.858 90.2688 151.858C89.3328 151.858 88.4988 151.648 87.7668 151.228C87.0468 150.808 86.4828 150.214 86.0748 149.446C85.6668 148.678 85.4628 147.778 85.4628 146.746ZM107.448 146.386C107.448 146.698 107.43 147.028 107.394 147.376H99.5104C99.5704 148.348 99.9004 149.11 100.5 149.662C101.112 150.202 101.85 150.472 102.714 150.472C103.422 150.472 104.01 150.31 104.478 149.986C104.958 149.65 105.294 149.206 105.486 148.654H107.25C106.986 149.602 106.458 150.376 105.666 150.976C104.874 151.564 103.89 151.858 102.714 151.858C101.778 151.858 100.938 151.648 100.194 151.228C99.4624 150.808 98.8864 150.214 98.4664 149.446C98.0464 148.666 97.8364 147.766 97.8364 146.746C97.8364 145.726 98.0404 144.832 98.4484 144.064C98.8564 143.296 99.4264 142.708 100.158 142.3C100.902 141.88 101.754 141.67 102.714 141.67C103.65 141.67 104.478 141.874 105.198 142.282C105.918 142.69 106.47 143.254 106.854 143.974C107.25 144.682 107.448 145.486 107.448 146.386ZM105.756 146.044C105.756 145.42 105.618 144.886 105.342 144.442C105.066 143.986 104.688 143.644 104.208 143.416C103.74 143.176 103.218 143.056 102.642 143.056C101.814 143.056 101.106 143.32 100.518 143.848C99.9424 144.376 99.6124 145.108 99.5284 146.044H105.756ZM114.543 151.858C113.787 151.858 113.109 151.732 112.509 151.48C111.909 151.216 111.435 150.856 111.087 150.4C110.739 149.932 110.547 149.398 110.511 148.798H112.203C112.251 149.29 112.479 149.692 112.887 150.004C113.307 150.316 113.853 150.472 114.525 150.472C115.149 150.472 115.641 150.334 116.001 150.058C116.361 149.782 116.541 149.434 116.541 149.014C116.541 148.582 116.349 148.264 115.965 148.06C115.581 147.844 114.987 147.634 114.183 147.43C113.451 147.238 112.851 147.046 112.383 146.854C111.927 146.65 111.531 146.356 111.195 145.972C110.871 145.576 110.709 145.06 110.709 144.424C110.709 143.92 110.859 143.458 111.159 143.038C111.459 142.618 111.885 142.288 112.437 142.048C112.989 141.796 113.619 141.67 114.327 141.67C115.419 141.67 116.301 141.946 116.973 142.498C117.645 143.05 118.005 143.806 118.053 144.766H116.415C116.379 144.25 116.169 143.836 115.785 143.524C115.413 143.212 114.909 143.056 114.273 143.056C113.685 143.056 113.217 143.182 112.869 143.434C112.521 143.686 112.347 144.016 112.347 144.424C112.347 144.748 112.449 145.018 112.653 145.234C112.869 145.438 113.133 145.606 113.445 145.738C113.769 145.858 114.213 145.996 114.777 146.152C115.485 146.344 116.061 146.536 116.505 146.728C116.949 146.908 117.327 147.184 117.639 147.556C117.963 147.928 118.131 148.414 118.143 149.014C118.143 149.554 117.993 150.04 117.693 150.472C117.393 150.904 116.967 151.246 116.415 151.498C115.875 151.738 115.251 151.858 114.543 151.858ZM125.387 151.858C124.631 151.858 123.953 151.732 123.353 151.48C122.753 151.216 122.279 150.856 121.931 150.4C121.583 149.932 121.391 149.398 121.355 148.798H123.047C123.095 149.29 123.323 149.692 123.731 150.004C124.151 150.316 124.697 150.472 125.369 150.472C125.993 150.472 126.485 150.334 126.845 150.058C127.205 149.782 127.385 149.434 127.385 149.014C127.385 148.582 127.193 148.264 126.809 148.06C126.425 147.844 125.831 147.634 125.027 147.43C124.295 147.238 123.695 147.046 123.227 146.854C122.771 146.65 122.375 146.356 122.039 145.972C121.715 145.576 121.553 145.06 121.553 144.424C121.553 143.92 121.703 143.458 122.003 143.038C122.303 142.618 122.729 142.288 123.281 142.048C123.833 141.796 124.463 141.67 125.171 141.67C126.263 141.67 127.145 141.946 127.817 142.498C128.489 143.05 128.849 143.806 128.897 144.766H127.259C127.223 144.25 127.013 143.836 126.629 143.524C126.257 143.212 125.753 143.056 125.117 143.056C124.529 143.056 124.061 143.182 123.713 143.434C123.365 143.686 123.191 144.016 123.191 144.424C123.191 144.748 123.293 145.018 123.497 145.234C123.713 145.438 123.977 145.606 124.289 145.738C124.613 145.858 125.057 145.996 125.621 146.152C126.329 146.344 126.905 146.536 127.349 146.728C127.793 146.908 128.171 147.184 128.483 147.556C128.807 147.928 128.975 148.414 128.987 149.014C128.987 149.554 128.837 150.04 128.537 150.472C128.237 150.904 127.811 151.246 127.259 151.498C126.719 151.738 126.095 151.858 125.387 151.858ZM133.585 140.23C133.273 140.23 133.009 140.122 132.793 139.906C132.577 139.69 132.469 139.426 132.469 139.114C132.469 138.802 132.577 138.538 132.793 138.322C133.009 138.106 133.273 137.998 133.585 137.998C133.885 137.998 134.137 138.106 134.341 138.322C134.557 138.538 134.665 138.802 134.665 139.114C134.665 139.426 134.557 139.69 134.341 139.906C134.137 140.122 133.885 140.23 133.585 140.23ZM134.377 141.832V151.696H132.739V141.832H134.377ZM140.247 143.668C140.583 143.08 141.075 142.6 141.723 142.228C142.371 141.856 143.109 141.67 143.937 141.67C144.825 141.67 145.623 141.88 146.331 142.3C147.039 142.72 147.597 143.314 148.005 144.082C148.413 144.838 148.617 145.72 148.617 146.728C148.617 147.724 148.413 148.612 148.005 149.392C147.597 150.172 147.033 150.778 146.313 151.21C145.605 151.642 144.813 151.858 143.937 151.858C143.085 151.858 142.335 151.672 141.687 151.3C141.051 150.928 140.571 150.454 140.247 149.878V151.696H138.609V138.376H140.247V143.668ZM146.943 146.728C146.943 145.984 146.793 145.336 146.493 144.784C146.193 144.232 145.785 143.812 145.269 143.524C144.765 143.236 144.207 143.092 143.595 143.092C142.995 143.092 142.437 143.242 141.921 143.542C141.417 143.83 141.009 144.256 140.697 144.82C140.397 145.372 140.247 146.014 140.247 146.746C140.247 147.49 140.397 148.144 140.697 148.708C141.009 149.26 141.417 149.686 141.921 149.986C142.437 150.274 142.995 150.418 143.595 150.418C144.207 150.418 144.765 150.274 145.269 149.986C145.785 149.686 146.193 149.26 146.493 148.708C146.793 148.144 146.943 147.484 146.943 146.728ZM153.059 140.23C152.747 140.23 152.483 140.122 152.267 139.906C152.051 139.69 151.943 139.426 151.943 139.114C151.943 138.802 152.051 138.538 152.267 138.322C152.483 138.106 152.747 137.998 153.059 137.998C153.359 137.998 153.611 138.106 153.815 138.322C154.031 138.538 154.139 138.802 154.139 139.114C154.139 139.426 154.031 139.69 153.815 139.906C153.611 140.122 153.359 140.23 153.059 140.23ZM153.851 141.832V151.696H152.213V141.832H153.851ZM159.721 138.376V151.696H158.083V138.376H159.721ZM164.798 140.23C164.486 140.23 164.222 140.122 164.006 139.906C163.79 139.69 163.682 139.426 163.682 139.114C163.682 138.802 163.79 138.538 164.006 138.322C164.222 138.106 164.486 137.998 164.798 137.998C165.098 137.998 165.35 138.106 165.554 138.322C165.77 138.538 165.878 138.802 165.878 139.114C165.878 139.426 165.77 139.69 165.554 139.906C165.35 140.122 165.098 140.23 164.798 140.23ZM165.59 141.832V151.696H163.952V141.832H165.59ZM171.82 143.182V148.996C171.82 149.476 171.922 149.818 172.126 150.022C172.33 150.214 172.684 150.31 173.188 150.31H174.394V151.696H172.918C172.006 151.696 171.322 151.486 170.866 151.066C170.41 150.646 170.182 149.956 170.182 148.996V143.182H168.904V141.832H170.182V139.348H171.82V141.832H174.394V143.182H171.82ZM186.315 141.832L180.375 156.34H178.683L180.627 151.588L176.649 141.832H178.467L181.563 149.824L184.623 141.832H186.315ZM189.923 151.804C189.611 151.804 189.347 151.696 189.131 151.48C188.915 151.264 188.807 151 188.807 150.688C188.807 150.376 188.915 150.112 189.131 149.896C189.347 149.68 189.611 149.572 189.923 149.572C190.223 149.572 190.475 149.68 190.679 149.896C190.895 150.112 191.003 150.376 191.003 150.688C191.003 151 190.895 151.264 190.679 151.48C190.475 151.696 190.223 151.804 189.923 151.804Z" fill="#262626" fill-opacity="0.8"/>
<path d="M30 209.196L27 212.136V203.696H30M35 207.356L33.43 206.016L32 207.336V199.696H35M40 205.696L37 208.696V195.696H40M42.81 205.506L41 203.696H46V208.696L44.21 206.906L37 214.056L33.53 211.036L29.75 214.696H27L33.47 208.356L37 211.336" fill="#262626" fill-opacity="0.8"/>
<path d="M39.248 228.544L36.016 239.696H34.384L31.792 230.72L29.104 239.696L27.488 239.712L24.368 228.544H25.92L28.352 238L31.04 228.544H32.672L35.232 237.968L37.68 228.544H39.248ZM50.1214 234.976C50.1214 235.253 50.1054 235.546 50.0734 235.856H43.0654C43.1187 236.72 43.412 237.397 43.9454 237.888C44.4894 238.368 45.1454 238.608 45.9134 238.608C46.5427 238.608 47.0654 238.464 47.4814 238.176C47.908 237.877 48.2067 237.482 48.3774 236.992H49.9454C49.7107 237.834 49.2414 238.522 48.5374 239.056C47.8334 239.578 46.9587 239.84 45.9134 239.84C45.0814 239.84 44.3347 239.653 43.6734 239.28C43.0227 238.906 42.5107 238.378 42.1374 237.696C41.764 237.002 41.5774 236.202 41.5774 235.296C41.5774 234.389 41.7587 233.594 42.1214 232.912C42.484 232.229 42.9907 231.706 43.6414 231.344C44.3027 230.97 45.06 230.784 45.9134 230.784C46.7454 230.784 47.4814 230.965 48.1214 231.328C48.7614 231.69 49.252 232.192 49.5934 232.832C49.9454 233.461 50.1214 234.176 50.1214 234.976ZM48.6174 234.672C48.6174 234.117 48.4947 233.642 48.2494 233.248C48.004 232.842 47.668 232.538 47.2414 232.336C46.8254 232.122 46.3614 232.016 45.8494 232.016C45.1134 232.016 44.484 232.25 43.9614 232.72C43.4494 233.189 43.156 233.84 43.0814 234.672H48.6174ZM52.7792 235.28C52.7792 234.384 52.9606 233.6 53.3232 232.928C53.6859 232.245 54.1819 231.717 54.8112 231.344C55.4512 230.97 56.1606 230.784 56.9392 230.784C57.7072 230.784 58.3739 230.949 58.9392 231.28C59.5046 231.61 59.9259 232.026 60.2032 232.528V230.928H61.6753V239.696H60.2032V238.064C59.9152 238.576 59.4832 239.002 58.9072 239.344C58.3419 239.674 57.6806 239.84 56.9232 239.84C56.1446 239.84 55.4406 239.648 54.8112 239.264C54.1819 238.88 53.6859 238.341 53.3232 237.648C52.9606 236.954 52.7792 236.165 52.7792 235.28ZM60.2032 235.296C60.2032 234.634 60.0699 234.058 59.8032 233.568C59.5366 233.077 59.1739 232.704 58.7153 232.448C58.2672 232.181 57.7712 232.048 57.2272 232.048C56.6832 232.048 56.1872 232.176 55.7392 232.432C55.2912 232.688 54.9339 233.061 54.6672 233.552C54.4006 234.042 54.2672 234.618 54.2672 235.28C54.2672 235.952 54.4006 236.538 54.6672 237.04C54.9339 237.53 55.2912 237.909 55.7392 238.176C56.1872 238.432 56.6832 238.56 57.2272 238.56C57.7712 238.56 58.2672 238.432 58.7153 238.176C59.1739 237.909 59.5366 237.53 59.8032 237.04C60.0699 236.538 60.2032 235.957 60.2032 235.296ZM66.8718 227.856V239.696H65.4158V227.856H66.8718ZM72.4092 232.128V237.296C72.4092 237.722 72.4999 238.026 72.6812 238.208C72.8626 238.378 73.1772 238.464 73.6252 238.464H74.6972V239.696H73.3852C72.5746 239.696 71.9666 239.509 71.5612 239.136C71.1559 238.762 70.9532 238.149 70.9532 237.296V232.128H69.8172V230.928H70.9532V228.72H72.4092V230.928H74.6972V232.128H72.4092ZM82.0934 230.768C82.7547 230.768 83.352 230.912 83.8854 231.2C84.4187 231.477 84.8347 231.898 85.1334 232.464C85.4427 233.029 85.5974 233.717 85.5974 234.528V239.696H84.1574V234.736C84.1574 233.861 83.9387 233.194 83.5014 232.736C83.064 232.266 82.4667 232.032 81.7094 232.032C80.9414 232.032 80.328 232.272 79.8694 232.752C79.4214 233.232 79.1974 233.93 79.1974 234.848V239.696H77.7414V227.856H79.1974V232.176C79.4854 231.728 79.88 231.381 80.3814 231.136C80.8934 230.89 81.464 230.768 82.0934 230.768ZM96.1198 228.544V229.728H93.0798V239.696H91.6238V229.728H88.5678V228.544H96.1198ZM107.192 234.976C107.192 235.253 107.176 235.546 107.144 235.856H100.136C100.189 236.72 100.483 237.397 101.016 237.888C101.56 238.368 102.216 238.608 102.984 238.608C103.613 238.608 104.136 238.464 104.552 238.176C104.979 237.877 105.277 237.482 105.448 236.992H107.016C106.781 237.834 106.312 238.522 105.608 239.056C104.904 239.578 104.029 239.84 102.984 239.84C102.152 239.84 101.405 239.653 100.744 239.28C100.093 238.906 99.5813 238.378 99.208 237.696C98.8347 237.002 98.648 236.202 98.648 235.296C98.648 234.389 98.8293 233.594 99.192 232.912C99.5547 232.229 100.061 231.706 100.712 231.344C101.373 230.97 102.131 230.784 102.984 230.784C103.816 230.784 104.552 230.965 105.192 231.328C105.832 231.69 106.323 232.192 106.664 232.832C107.016 233.461 107.192 234.176 107.192 234.976ZM105.688 234.672C105.688 234.117 105.565 233.642 105.32 233.248C105.075 232.842 104.739 232.538 104.312 232.336C103.896 232.122 103.432 232.016 102.92 232.016C102.184 232.016 101.555 232.25 101.032 232.72C100.52 233.189 100.227 233.84 100.152 234.672H105.688ZM109.85 235.296C109.85 234.389 110.031 233.6 110.394 232.928C110.757 232.245 111.258 231.717 111.898 231.344C112.549 230.97 113.29 230.784 114.122 230.784C115.199 230.784 116.085 231.045 116.778 231.568C117.482 232.09 117.946 232.816 118.17 233.744H116.602C116.453 233.21 116.159 232.789 115.722 232.48C115.295 232.17 114.762 232.016 114.122 232.016C113.29 232.016 112.618 232.304 112.106 232.88C111.594 233.445 111.338 234.25 111.338 235.296C111.338 236.352 111.594 237.168 112.106 237.744C112.618 238.32 113.29 238.608 114.122 238.608C114.762 238.608 115.295 238.458 115.722 238.16C116.149 237.861 116.442 237.434 116.602 236.88H118.17C117.935 237.776 117.466 238.496 116.762 239.04C116.058 239.573 115.178 239.84 114.122 239.84C113.29 239.84 112.549 239.653 111.898 239.28C111.258 238.906 110.757 238.378 110.394 237.696C110.031 237.013 109.85 236.213 109.85 235.296ZM125.745 230.768C126.406 230.768 127.003 230.912 127.537 231.2C128.07 231.477 128.486 231.898 128.785 232.464C129.094 233.029 129.249 233.717 129.249 234.528V239.696H127.809V234.736C127.809 233.861 127.59 233.194 127.153 232.736C126.715 232.266 126.118 232.032 125.361 232.032C124.593 232.032 123.979 232.272 123.521 232.752C123.073 233.232 122.849 233.93 122.849 234.848V239.696H121.393V227.856H122.849V232.176C123.137 231.728 123.531 231.381 124.033 231.136C124.545 230.89 125.115 230.768 125.745 230.768Z" fill="#262626" fill-opacity="0.8"/>
<path d="M175 207.696V200.196L168.75 196.68M165.25 196.68L159 200.196V207.696M160.5 210.04L167 213.696L171 211.446L173.5 210.04M167 201.196L168.5 202.071L170 202.946V206.446L168.5 207.321L167 208.196L165.5 207.321L164 206.446V202.946L165.5 202.071L167 201.196ZM167 201.196V197.696M170 206.196L173.5 208.196M164 206.196L160.5 208.196" stroke="#262626" stroke-opacity="0.8" stroke-width="2" stroke-linecap="round" stroke-linejoin="round"/>
<path d="M167 197.696C167.828 197.696 168.5 197.024 168.5 196.196C168.5 195.367 167.828 194.696 167 194.696C166.172 194.696 165.5 195.367 165.5 196.196C165.5 197.024 166.172 197.696 167 197.696Z" stroke="#262626" stroke-opacity="0.8" stroke-width="2" stroke-linecap="round" stroke-linejoin="round"/>
<path d="M159 210.696C159.828 210.696 160.5 210.024 160.5 209.196C160.5 208.367 159.828 207.696 159 207.696C158.172 207.696 157.5 208.367 157.5 209.196C157.5 210.024 158.172 210.696 159 210.696Z" stroke="#262626" stroke-opacity="0.8" stroke-width="2" stroke-linecap="round" stroke-linejoin="round"/>
<path d="M175 210.696C175.828 210.696 176.5 210.024 176.5 209.196C176.5 208.367 175.828 207.696 175 207.696C174.172 207.696 173.5 208.367 173.5 209.196C173.5 210.024 174.172 210.696 175 210.696Z" stroke="#262626" stroke-opacity="0.8" stroke-width="2" stroke-linecap="round" stroke-linejoin="round"/>
<path d="M161.816 233.952C162.221 234.016 162.589 234.181 162.92 234.448C163.261 234.714 163.528 235.045 163.72 235.44C163.923 235.834 164.024 236.256 164.024 236.704C164.024 237.269 163.88 237.781 163.592 238.24C163.304 238.688 162.883 239.045 162.328 239.312C161.784 239.568 161.139 239.696 160.392 239.696H156.232V228.544H160.232C160.989 228.544 161.635 228.672 162.168 228.928C162.701 229.173 163.101 229.509 163.368 229.936C163.635 230.362 163.768 230.842 163.768 231.376C163.768 232.037 163.587 232.586 163.224 233.024C162.872 233.45 162.403 233.76 161.816 233.952ZM157.688 233.36H160.136C160.819 233.36 161.347 233.2 161.72 232.88C162.093 232.56 162.28 232.117 162.28 231.552C162.28 230.986 162.093 230.544 161.72 230.224C161.347 229.904 160.808 229.744 160.104 229.744H157.688V233.36ZM160.264 238.496C160.989 238.496 161.555 238.325 161.96 237.984C162.365 237.642 162.568 237.168 162.568 236.56C162.568 235.941 162.355 235.456 161.928 235.104C161.501 234.741 160.931 234.56 160.216 234.56H157.688V238.496H160.264ZM168.78 227.856V239.696H167.324V227.856H168.78ZM176.366 239.84C175.545 239.84 174.798 239.653 174.126 239.28C173.465 238.906 172.942 238.378 172.558 237.696C172.185 237.002 171.998 236.202 171.998 235.296C171.998 234.4 172.19 233.61 172.574 232.928C172.969 232.234 173.502 231.706 174.174 231.344C174.846 230.97 175.598 230.784 176.43 230.784C177.262 230.784 178.014 230.97 178.686 231.344C179.358 231.706 179.886 232.229 180.27 232.912C180.665 233.594 180.862 234.389 180.862 235.296C180.862 236.202 180.659 237.002 180.254 237.696C179.859 238.378 179.321 238.906 178.638 239.28C177.955 239.653 177.198 239.84 176.366 239.84ZM176.366 238.56C176.889 238.56 177.379 238.437 177.838 238.192C178.297 237.946 178.665 237.578 178.942 237.088C179.23 236.597 179.374 236 179.374 235.296C179.374 234.592 179.235 233.994 178.958 233.504C178.681 233.013 178.318 232.65 177.87 232.416C177.422 232.17 176.937 232.048 176.414 232.048C175.881 232.048 175.39 232.17 174.942 232.416C174.505 232.65 174.153 233.013 173.886 233.504C173.619 233.994 173.486 234.592 173.486 235.296C173.486 236.01 173.614 236.613 173.87 237.104C174.137 237.594 174.489 237.962 174.926 238.208C175.363 238.442 175.843 238.56 176.366 238.56ZM183.512 235.296C183.512 234.389 183.694 233.6 184.056 232.928C184.419 232.245 184.92 231.717 185.56 231.344C186.211 230.97 186.952 230.784 187.784 230.784C188.862 230.784 189.747 231.045 190.44 231.568C191.144 232.09 191.608 232.816 191.832 233.744H190.264C190.115 233.21 189.822 232.789 189.384 232.48C188.958 232.17 188.424 232.016 187.784 232.016C186.952 232.016 186.28 232.304 185.768 232.88C185.256 233.445 185 234.25 185 235.296C185 236.352 185.256 237.168 185.768 237.744C186.28 238.32 186.952 238.608 187.784 238.608C188.424 238.608 188.958 238.458 189.384 238.16C189.811 237.861 190.104 237.434 190.264 236.88H191.832C191.598 237.776 191.128 238.496 190.424 239.04C189.72 239.573 188.84 239.84 187.784 239.84C186.952 239.84 186.211 239.653 185.56 239.28C184.92 238.906 184.419 238.378 184.056 237.696C183.694 237.013 183.512 236.213 183.512 235.296ZM199.951 239.696L196.511 235.824V239.696H195.055V227.856H196.511V234.816L199.887 230.928H201.919L197.791 235.296L201.935 239.696H199.951ZM204.026 235.296C204.026 234.389 204.207 233.6 204.57 232.928C204.932 232.245 205.434 231.717 206.074 231.344C206.724 230.97 207.466 230.784 208.298 230.784C209.375 230.784 210.26 231.045 210.954 231.568C211.658 232.09 212.122 232.816 212.346 233.744H210.778C210.628 233.21 210.335 232.789 209.898 232.48C209.471 232.17 208.938 232.016 208.298 232.016C207.466 232.016 206.794 232.304 206.282 232.88C205.77 233.445 205.514 234.25 205.514 235.296C205.514 236.352 205.77 237.168 206.282 237.744C206.794 238.32 207.466 238.608 208.298 238.608C208.938 238.608 209.471 238.458 209.898 238.16C210.324 237.861 210.618 237.434 210.778 236.88H212.346C212.111 237.776 211.642 238.496 210.938 239.04C210.234 239.573 209.354 239.84 208.298 239.84C207.466 239.84 206.724 239.653 206.074 239.28C205.434 238.906 204.932 238.378 204.57 237.696C204.207 237.013 204.026 236.213 204.026 235.296ZM219.92 230.768C220.582 230.768 221.179 230.912 221.712 231.2C222.246 231.477 222.662 231.898 222.96 232.464C223.27 233.029 223.424 233.717 223.424 234.528V239.696H221.984V234.736C221.984 233.861 221.766 233.194 221.328 232.736C220.891 232.266 220.294 232.032 219.536 232.032C218.768 232.032 218.155 232.272 217.696 232.752C217.248 233.232 217.024 233.93 217.024 234.848V239.696H215.568V227.856H217.024V232.176C217.312 231.728 217.707 231.381 218.208 231.136C218.72 230.89 219.291 230.768 219.92 230.768ZM226.539 235.28C226.539 234.384 226.72 233.6 227.083 232.928C227.445 232.245 227.941 231.717 228.571 231.344C229.211 230.97 229.92 230.784 230.699 230.784C231.467 230.784 232.133 230.949 232.699 231.28C233.264 231.61 233.685 232.026 233.963 232.528V230.928H235.435V239.696H233.963V238.064C233.675 238.576 233.243 239.002 232.667 239.344C232.101 239.674 231.44 239.84 230.683 239.84C229.904 239.84 229.2 239.648 228.571 239.264C227.941 238.88 227.445 238.341 227.083 237.648C226.72 236.954 226.539 236.165 226.539 235.28ZM233.963 235.296C233.963 234.634 233.829 234.058 233.563 233.568C233.296 233.077 232.933 232.704 232.475 232.448C232.027 232.181 231.531 232.048 230.987 232.048C230.443 232.048 229.947 232.176 229.499 232.432C229.051 232.688 228.693 233.061 228.427 233.552C228.16 234.042 228.027 234.618 228.027 235.28C228.027 235.952 228.16 236.538 228.427 237.04C228.693 237.53 229.051 237.909 229.499 238.176C229.947 238.432 230.443 238.56 230.987 238.56C231.531 238.56 232.027 238.432 232.475 238.176C232.933 237.909 233.296 237.53 233.563 237.04C233.829 236.538 233.963 235.957 233.963 235.296ZM239.927 229.504C239.65 229.504 239.415 229.408 239.223 229.216C239.031 229.024 238.935 228.789 238.935 228.512C238.935 228.234 239.031 228 239.223 227.808C239.415 227.616 239.65 227.52 239.927 227.52C240.194 227.52 240.418 227.616 240.599 227.808C240.791 228 240.887 228.234 240.887 228.512C240.887 228.789 240.791 229.024 240.599 229.216C240.418 229.408 240.194 229.504 239.927 229.504ZM240.631 230.928V239.696H239.175V230.928H240.631ZM248.665 230.768C249.731 230.768 250.595 231.093 251.257 231.744C251.918 232.384 252.249 233.312 252.249 234.528V239.696H250.809V234.736C250.809 233.861 250.59 233.194 250.153 232.736C249.715 232.266 249.118 232.032 248.361 232.032C247.593 232.032 246.979 232.272 246.521 232.752C246.073 233.232 245.849 233.93 245.849 234.848V239.696H244.393V230.928H245.849V232.176C246.137 231.728 246.526 231.381 247.017 231.136C247.518 230.89 248.067 230.768 248.665 230.768Z" fill="#262626" fill-opacity="0.8"/>
<path d="M288.5 198.696H291.5M294.286 195.696H285.714C284.768 195.696 284 196.502 284 197.496V211.896C284 212.89 284.768 213.696 285.714 213.696H294.286C295.233 213.696 296 212.89 296 211.896V197.496C296 196.502 295.233 195.696 294.286 195.696Z" stroke="#262626" stroke-opacity="0.8" stroke-width="1.5" stroke-linecap="round" stroke-linejoin="round"/>
<path d="M285.824 237.216H280.96L280.064 239.696H278.528L282.56 228.608H284.24L288.256 239.696H286.72L285.824 237.216ZM285.408 236.032L283.392 230.4L281.376 236.032H285.408ZM292.749 232.544C293.037 232.042 293.464 231.626 294.029 231.296C294.605 230.954 295.272 230.784 296.029 230.784C296.808 230.784 297.512 230.97 298.141 231.344C298.781 231.717 299.283 232.245 299.645 232.928C300.008 233.6 300.189 234.384 300.189 235.28C300.189 236.165 300.008 236.954 299.645 237.648C299.283 238.341 298.781 238.88 298.141 239.264C297.512 239.648 296.808 239.84 296.029 239.84C295.283 239.84 294.621 239.674 294.045 239.344C293.48 239.002 293.048 238.581 292.749 238.08V243.856H291.293V230.928H292.749V232.544ZM298.701 235.28C298.701 234.618 298.568 234.042 298.301 233.552C298.035 233.061 297.672 232.688 297.213 232.432C296.765 232.176 296.269 232.048 295.725 232.048C295.192 232.048 294.696 232.181 294.237 232.448C293.789 232.704 293.427 233.082 293.149 233.584C292.883 234.074 292.749 234.645 292.749 235.296C292.749 235.957 292.883 236.538 293.149 237.04C293.427 237.53 293.789 237.909 294.237 238.176C294.696 238.432 295.192 238.56 295.725 238.56C296.269 238.56 296.765 238.432 297.213 238.176C297.672 237.909 298.035 237.53 298.301 237.04C298.568 236.538 298.701 235.952 298.701 235.28ZM304.842 232.544C305.13 232.042 305.556 231.626 306.122 231.296C306.698 230.954 307.364 230.784 308.122 230.784C308.9 230.784 309.604 230.97 310.234 231.344C310.874 231.717 311.375 232.245 311.738 232.928C312.1 233.6 312.282 234.384 312.282 235.28C312.282 236.165 312.1 236.954 311.738 237.648C311.375 238.341 310.874 238.88 310.234 239.264C309.604 239.648 308.9 239.84 308.122 239.84C307.375 239.84 306.714 239.674 306.138 239.344C305.572 239.002 305.14 238.581 304.842 238.08V243.856H303.386V230.928H304.842V232.544ZM310.794 235.28C310.794 234.618 310.66 234.042 310.394 233.552C310.127 233.061 309.764 232.688 309.306 232.432C308.858 232.176 308.362 232.048 307.818 232.048C307.284 232.048 306.788 232.181 306.33 232.448C305.882 232.704 305.519 233.082 305.242 233.584C304.975 234.074 304.842 234.645 304.842 235.296C304.842 235.957 304.975 236.538 305.242 237.04C305.519 237.53 305.882 237.909 306.33 238.176C306.788 238.432 307.284 238.56 307.818 238.56C308.362 238.56 308.858 238.432 309.306 238.176C309.764 237.909 310.127 237.53 310.394 237.04C310.66 236.538 310.794 235.952 310.794 235.28Z" fill="#262626" fill-opacity="0.8"/>
<path d="M358 204.696C358 207.083 357.052 209.372 355.364 211.06C353.676 212.748 351.387 213.696 349 213.696C346.613 213.696 344.324 212.748 342.636 211.06C340.948 209.372 340 207.083 340 204.696M358 204.696C358 202.309 357.052 200.02 355.364 198.332C353.676 196.644 351.387 195.696 349 195.696C346.613 195.696 344.324 196.644 342.636 198.332C340.948 200.02 340 202.309 340 204.696M358 204.696H340" stroke="#262626" stroke-opacity="0.8" stroke-width="1.71429" stroke-linecap="round" stroke-linejoin="round"/>
<path d="M352.462 204.696C352.292 207.987 351.079 211.139 349 213.696C346.921 211.139 345.709 207.987 345.539 204.696C345.709 201.405 346.921 198.253 349 195.696C351.079 198.253 352.292 201.405 352.462 204.696Z" stroke="#262626" stroke-opacity="0.8" stroke-width="1.71429" stroke-linecap="round" stroke-linejoin="round"/>
<path d="M352.248 228.544L349.016 239.696H347.384L344.792 230.72L342.104 239.696L340.488 239.712L337.368 228.544H338.92L341.352 238L344.04 228.544H345.672L348.232 237.968L350.68 228.544H352.248ZM363.121 234.976C363.121 235.253 363.105 235.546 363.073 235.856H356.065C356.119 236.72 356.412 237.397 356.945 237.888C357.489 238.368 358.145 238.608 358.913 238.608C359.543 238.608 360.065 238.464 360.481 238.176C360.908 237.877 361.207 237.482 361.377 236.992H362.945C362.711 237.834 362.241 238.522 361.537 239.056C360.833 239.578 359.959 239.84 358.913 239.84C358.081 239.84 357.335 239.653 356.673 239.28C356.023 238.906 355.511 238.378 355.137 237.696C354.764 237.002 354.577 236.202 354.577 235.296C354.577 234.389 354.759 233.594 355.121 232.912C355.484 232.229 355.991 231.706 356.641 231.344C357.303 230.97 358.06 230.784 358.913 230.784C359.745 230.784 360.481 230.965 361.121 231.328C361.761 231.69 362.252 232.192 362.593 232.832C362.945 233.461 363.121 234.176 363.121 234.976ZM361.617 234.672C361.617 234.117 361.495 233.642 361.249 233.248C361.004 232.842 360.668 232.538 360.241 232.336C359.825 232.122 359.361 232.016 358.849 232.016C358.113 232.016 357.484 232.25 356.961 232.72C356.449 233.189 356.156 233.84 356.081 234.672H361.617ZM367.779 232.56C368.078 232.037 368.515 231.61 369.091 231.28C369.667 230.949 370.323 230.784 371.059 230.784C371.849 230.784 372.558 230.97 373.187 231.344C373.817 231.717 374.313 232.245 374.675 232.928C375.038 233.6 375.219 234.384 375.219 235.28C375.219 236.165 375.038 236.954 374.675 237.648C374.313 238.341 373.811 238.88 373.171 239.264C372.542 239.648 371.838 239.84 371.059 239.84C370.302 239.84 369.635 239.674 369.059 239.344C368.494 239.013 368.067 238.592 367.779 238.08V239.696H366.323V227.856H367.779V232.56ZM373.731 235.28C373.731 234.618 373.598 234.042 373.331 233.552C373.065 233.061 372.702 232.688 372.243 232.432C371.795 232.176 371.299 232.048 370.755 232.048C370.222 232.048 369.726 232.181 369.267 232.448C368.819 232.704 368.457 233.082 368.179 233.584C367.913 234.074 367.779 234.645 367.779 235.296C367.779 235.957 367.913 236.538 368.179 237.04C368.457 237.53 368.819 237.909 369.267 238.176C369.726 238.432 370.222 238.56 370.755 238.56C371.299 238.56 371.795 238.432 372.243 238.176C372.702 237.909 373.065 237.53 373.331 237.04C373.598 236.538 373.731 235.952 373.731 235.28Z" fill="#262626" fill-opacity="0.8"/>
<path d="M31.536 471.544V472.728H26.688V476.488H30.624V477.672H26.688V482.696H25.232V471.544H31.536ZM39.6305 482.808C38.5958 482.808 37.6518 482.568 36.7985 482.088C35.9452 481.597 35.2678 480.92 34.7665 480.056C34.2758 479.181 34.0305 478.2 34.0305 477.112C34.0305 476.024 34.2758 475.048 34.7665 474.184C35.2678 473.309 35.9452 472.632 36.7985 472.152C37.6518 471.661 38.5958 471.416 39.6305 471.416C40.6758 471.416 41.6252 471.661 42.4785 472.152C43.3318 472.632 44.0038 473.304 44.4945 474.168C44.9852 475.032 45.2305 476.013 45.2305 477.112C45.2305 478.21 44.9852 479.192 44.4945 480.056C44.0038 480.92 43.3318 481.597 42.4785 482.088C41.6252 482.568 40.6758 482.808 39.6305 482.808ZM39.6305 481.544C40.4092 481.544 41.1078 481.362 41.7265 481C42.3558 480.637 42.8465 480.12 43.1985 479.448C43.5612 478.776 43.7425 477.997 43.7425 477.112C43.7425 476.216 43.5612 475.437 43.1985 474.776C42.8465 474.104 42.3612 473.586 41.7425 473.224C41.1238 472.861 40.4198 472.68 39.6305 472.68C38.8412 472.68 38.1372 472.861 37.5185 473.224C36.8998 473.586 36.4092 474.104 36.0465 474.776C35.6945 475.437 35.5185 476.216 35.5185 477.112C35.5185 477.997 35.6945 478.776 36.0465 479.448C36.4092 480.12 36.8998 480.637 37.5185 481C38.1478 481.362 38.8518 481.544 39.6305 481.544ZM49.8566 471.544V478.6C49.8566 479.592 50.0966 480.328 50.5766 480.808C51.0673 481.288 51.7446 481.528 52.6086 481.528C53.462 481.528 54.1286 481.288 54.6086 480.808C55.0993 480.328 55.3446 479.592 55.3446 478.6V471.544H56.8006V478.584C56.8006 479.512 56.614 480.296 56.2406 480.936C55.8673 481.565 55.3606 482.034 54.7206 482.344C54.0913 482.653 53.382 482.808 52.5926 482.808C51.8033 482.808 51.0886 482.653 50.4486 482.344C49.8193 482.034 49.318 481.565 48.9446 480.936C48.582 480.296 48.4006 479.512 48.4006 478.584V471.544H49.8566ZM69.2775 482.696H67.8215L61.9655 473.816V482.696H60.5095V471.528H61.9655L67.8215 480.392V471.528H69.2775V482.696ZM76.5115 471.544C77.7275 471.544 78.7782 471.773 79.6635 472.232C80.5595 472.68 81.2422 473.325 81.7115 474.168C82.1915 475.01 82.4315 476.002 82.4315 477.144C82.4315 478.285 82.1915 479.277 81.7115 480.12C81.2422 480.952 80.5595 481.592 79.6635 482.04C78.7782 482.477 77.7275 482.696 76.5115 482.696H73.0395V471.544H76.5115ZM76.5115 481.496C77.9515 481.496 79.0502 481.117 79.8075 480.36C80.5648 479.592 80.9435 478.52 80.9435 477.144C80.9435 475.757 80.5595 474.674 79.7915 473.896C79.0342 473.117 77.9408 472.728 76.5115 472.728H74.4955V481.496H76.5115ZM87.088 472.728V476.456H91.152V477.656H87.088V481.496H91.632V482.696H85.632V471.528H91.632V472.728H87.088ZM98.5871 471.544C99.8031 471.544 100.854 471.773 101.739 472.232C102.635 472.68 103.318 473.325 103.787 474.168C104.267 475.01 104.507 476.002 104.507 477.144C104.507 478.285 104.267 479.277 103.787 480.12C103.318 480.952 102.635 481.592 101.739 482.04C100.854 482.477 99.8031 482.696 98.5871 482.696H95.1151V471.544H98.5871ZM98.5871 481.496C100.027 481.496 101.126 481.117 101.883 480.36C102.64 479.592 103.019 478.52 103.019 477.144C103.019 475.757 102.635 474.674 101.867 473.896C101.11 473.117 100.016 472.728 98.5871 472.728H96.5711V481.496H98.5871ZM114.709 471.544V482.696H113.253V471.544H114.709ZM127.239 482.696H125.783L119.927 473.816V482.696H118.471V471.528H119.927L125.783 480.392V471.528H127.239V482.696ZM131.465 482.792C131.187 482.792 130.953 482.696 130.761 482.504C130.569 482.312 130.473 482.077 130.473 481.8C130.473 481.522 130.569 481.288 130.761 481.096C130.953 480.904 131.187 480.808 131.465 480.808C131.731 480.808 131.955 480.904 132.137 481.096C132.329 481.288 132.425 481.522 132.425 481.8C132.425 482.077 132.329 482.312 132.137 482.504C131.955 482.696 131.731 482.792 131.465 482.792ZM131.465 475.944C131.187 475.944 130.953 475.848 130.761 475.656C130.569 475.464 130.473 475.229 130.473 474.952C130.473 474.674 130.569 474.44 130.761 474.248C130.953 474.056 131.187 473.96 131.465 473.96C131.731 473.96 131.955 474.056 132.137 474.248C132.329 474.44 132.425 474.674 132.425 474.952C132.425 475.229 132.329 475.464 132.137 475.656C131.955 475.848 131.731 475.944 131.465 475.944Z" fill="#262626" fill-opacity="0.8"/>
<path d="M32.946 518.302H27.942L27.114 520.696H24.468L28.986 508.114H31.92L36.438 520.696H33.774L32.946 518.302ZM32.262 516.286L30.444 511.03L28.626 516.286H32.262ZM42.0508 508.132V515.908C42.0508 516.76 42.2728 517.414 42.7168 517.87C43.1608 518.314 43.7848 518.536 44.5888 518.536C45.4048 518.536 46.0348 518.314 46.4788 517.87C46.9228 517.414 47.1448 516.76 47.1448 515.908V508.132H49.6828V515.89C49.6828 516.958 49.4488 517.864 48.9808 518.608C48.5248 519.34 47.9068 519.892 47.1268 520.264C46.3588 520.636 45.5008 520.822 44.5528 520.822C43.6168 520.822 42.7648 520.636 41.9968 520.264C41.2408 519.892 40.6408 519.34 40.1968 518.608C39.7528 517.864 39.5308 516.958 39.5308 515.89V508.132H42.0508ZM62.3055 511.912C62.0175 511.384 61.6215 510.982 61.1175 510.706C60.6135 510.43 60.0255 510.292 59.3535 510.292C58.6095 510.292 57.9495 510.46 57.3735 510.796C56.7975 511.132 56.3475 511.612 56.0235 512.236C55.6995 512.86 55.5375 513.58 55.5375 514.396C55.5375 515.236 55.6995 515.968 56.0235 516.592C56.3595 517.216 56.8215 517.696 57.4095 518.032C57.9975 518.368 58.6815 518.536 59.4615 518.536C60.4215 518.536 61.2075 518.284 61.8195 517.78C62.4315 517.264 62.8335 516.55 63.0255 515.638H58.7055V513.712H65.5095V515.908C65.3415 516.784 64.9815 517.594 64.4295 518.338C63.8775 519.082 63.1635 519.682 62.2875 520.138C61.4235 520.582 60.4515 520.804 59.3715 520.804C58.1595 520.804 57.0615 520.534 56.0775 519.994C55.1055 519.442 54.3375 518.68 53.7735 517.708C53.2215 516.736 52.9455 515.632 52.9455 514.396C52.9455 513.16 53.2215 512.056 53.7735 511.084C54.3375 510.1 55.1055 509.338 56.0775 508.798C57.0615 508.246 58.1535 507.97 59.3535 507.97C60.7695 507.97 61.9995 508.318 63.0435 509.014C64.0875 509.698 64.8075 510.664 65.2035 511.912H62.3055ZM71.298 508.132V515.908C71.298 516.76 71.52 517.414 71.964 517.87C72.408 518.314 73.032 518.536 73.836 518.536C74.652 518.536 75.282 518.314 75.726 517.87C76.17 517.414 76.392 516.76 76.392 515.908V508.132H78.93V515.89C78.93 516.958 78.696 517.864 78.228 518.608C77.772 519.34 77.154 519.892 76.374 520.264C75.606 520.636 74.748 520.822 73.8 520.822C72.864 520.822 72.012 520.636 71.244 520.264C70.488 519.892 69.888 519.34 69.444 518.608C69 517.864 68.778 516.958 68.778 515.89V508.132H71.298ZM87.1427 520.822C86.2667 520.822 85.4747 520.672 84.7667 520.372C84.0707 520.072 83.5187 519.64 83.1107 519.076C82.7027 518.512 82.4927 517.846 82.4807 517.078H85.1807C85.2167 517.594 85.3967 518.002 85.7207 518.302C86.0567 518.602 86.5127 518.752 87.0887 518.752C87.6767 518.752 88.1387 518.614 88.4747 518.338C88.8107 518.05 88.9787 517.678 88.9787 517.222C88.9787 516.85 88.8647 516.544 88.6367 516.304C88.4087 516.064 88.1207 515.878 87.7727 515.746C87.4367 515.602 86.9687 515.446 86.3687 515.278C85.5527 515.038 84.8867 514.804 84.3707 514.576C83.8667 514.336 83.4287 513.982 83.0567 513.514C82.6967 513.034 82.5167 512.398 82.5167 511.606C82.5167 510.862 82.7027 510.214 83.0747 509.662C83.4467 509.11 83.9687 508.69 84.6407 508.402C85.3127 508.102 86.0807 507.952 86.9447 507.952C88.2407 507.952 89.2907 508.27 90.0947 508.906C90.9107 509.53 91.3607 510.406 91.4447 511.534H88.6727C88.6487 511.102 88.4627 510.748 88.1147 510.472C87.7787 510.184 87.3287 510.04 86.7647 510.04C86.2727 510.04 85.8767 510.166 85.5767 510.418C85.2887 510.67 85.1447 511.036 85.1447 511.516C85.1447 511.852 85.2527 512.134 85.4687 512.362C85.6967 512.578 85.9727 512.758 86.2967 512.902C86.6327 513.034 87.1007 513.19 87.7007 513.37C88.5167 513.61 89.1827 513.85 89.6987 514.09C90.2147 514.33 90.6587 514.69 91.0307 515.17C91.4027 515.65 91.5887 516.28 91.5887 517.06C91.5887 517.732 91.4147 518.356 91.0667 518.932C90.7187 519.508 90.2087 519.97 89.5367 520.318C88.8647 520.654 88.0667 520.822 87.1427 520.822ZM103.763 508.132V510.166H100.415V520.696H97.8955V510.166H94.5475V508.132H103.763ZM109.796 518.05L107.69 523.108H106.07L107.24 518.05H109.796ZM119.286 517.852C120.438 516.892 121.356 516.094 122.04 515.458C122.724 514.81 123.294 514.138 123.75 513.442C124.206 512.746 124.434 512.062 124.434 511.39C124.434 510.778 124.29 510.298 124.002 509.95C123.714 509.602 123.27 509.428 122.67 509.428C122.07 509.428 121.608 509.632 121.284 510.04C120.96 510.436 120.792 510.982 120.78 511.678H118.332C118.38 510.238 118.806 509.146 119.61 508.402C120.426 507.658 121.458 507.286 122.706 507.286C124.074 507.286 125.124 507.652 125.856 508.384C126.588 509.104 126.954 510.058 126.954 511.246C126.954 512.182 126.702 513.076 126.198 513.928C125.694 514.78 125.118 515.524 124.47 516.16C123.822 516.784 122.976 517.54 121.932 518.428H127.242V520.516H118.35V518.644L119.286 517.852ZM130.269 513.964C130.269 511.888 130.641 510.262 131.385 509.086C132.141 507.91 133.389 507.322 135.129 507.322C136.869 507.322 138.111 507.91 138.855 509.086C139.611 510.262 139.989 511.888 139.989 513.964C139.989 516.052 139.611 517.69 138.855 518.878C138.111 520.066 136.869 520.66 135.129 520.66C133.389 520.66 132.141 520.066 131.385 518.878C130.641 517.69 130.269 516.052 130.269 513.964ZM137.505 513.964C137.505 513.076 137.445 512.332 137.325 511.732C137.217 511.12 136.989 510.622 136.641 510.238C136.305 509.854 135.801 509.662 135.129 509.662C134.457 509.662 133.947 509.854 133.599 510.238C133.263 510.622 133.035 511.12 132.915 511.732C132.807 512.332 132.753 513.076 132.753 513.964C132.753 514.876 132.807 515.644 132.915 516.268C133.023 516.88 133.251 517.378 133.599 517.762C133.947 518.134 134.457 518.32 135.129 518.32C135.801 518.32 136.311 518.134 136.659 517.762C137.007 517.378 137.235 516.88 137.343 516.268C137.451 515.644 137.505 514.876 137.505 513.964ZM144.138 517.852C145.29 516.892 146.208 516.094 146.892 515.458C147.576 514.81 148.146 514.138 148.602 513.442C149.058 512.746 149.286 512.062 149.286 511.39C149.286 510.778 149.142 510.298 148.854 509.95C148.566 509.602 148.122 509.428 147.522 509.428C146.922 509.428 146.46 509.632 146.136 510.04C145.812 510.436 145.644 510.982 145.632 511.678H143.184C143.232 510.238 143.658 509.146 144.462 508.402C145.278 507.658 146.31 507.286 147.558 507.286C148.926 507.286 149.976 507.652 150.708 508.384C151.44 509.104 151.806 510.058 151.806 511.246C151.806 512.182 151.554 513.076 151.05 513.928C150.546 514.78 149.97 515.524 149.322 516.16C148.674 516.784 147.828 517.54 146.784 518.428H152.094V520.516H143.202V518.644L144.138 517.852ZM155.158 511.03C155.218 509.83 155.638 508.906 156.418 508.258C157.21 507.598 158.248 507.268 159.532 507.268C160.408 507.268 161.158 507.424 161.782 507.736C162.406 508.036 162.874 508.45 163.186 508.978C163.51 509.494 163.672 510.082 163.672 510.742C163.672 511.498 163.474 512.14 163.078 512.668C162.694 513.184 162.232 513.532 161.692 513.712V513.784C162.388 514 162.928 514.384 163.312 514.936C163.708 515.488 163.906 516.196 163.906 517.06C163.906 517.78 163.738 518.422 163.402 518.986C163.078 519.55 162.592 519.994 161.944 520.318C161.308 520.63 160.54 520.786 159.64 520.786C158.284 520.786 157.18 520.444 156.328 519.76C155.476 519.076 155.026 518.068 154.978 516.736H157.426C157.45 517.324 157.648 517.798 158.02 518.158C158.404 518.506 158.926 518.68 159.586 518.68C160.198 518.68 160.666 518.512 160.99 518.176C161.326 517.828 161.494 517.384 161.494 516.844C161.494 516.124 161.266 515.608 160.81 515.296C160.354 514.984 159.646 514.828 158.686 514.828H158.164V512.758H158.686C160.39 512.758 161.242 512.188 161.242 511.048C161.242 510.532 161.086 510.13 160.774 509.842C160.474 509.554 160.036 509.41 159.46 509.41C158.896 509.41 158.458 509.566 158.146 509.878C157.846 510.178 157.672 510.562 157.624 511.03H155.158Z" fill="#262626"/>
<path d="M408.735 499.029L380.333 499.029L380.333 494.362L408.735 494.362L396.219 481.846L399.518 478.547L417.667 496.696L399.518 514.844L396.219 511.545L408.735 499.029Z" fill="#262626"/>
</svg>
