<svg width="28" height="24" viewBox="0 0 28 24" fill="none" xmlns="http://www.w3.org/2000/svg">
<g clip-path="url(#clip0_454_10718)">
<path d="M2.52837 20.545L3.7116 22.5887C3.95747 23.019 4.31086 23.3571 4.72578 23.603C5.91425 22.0944 6.74136 20.9368 7.20753 20.1301C7.68051 19.3115 8.26185 18.0309 8.95156 16.2885C7.09277 16.0438 5.68421 15.9215 4.72589 15.9215C3.80603 15.9215 2.39747 16.0438 0.5 16.2885C0.5 16.7649 0.622934 17.2412 0.868803 17.6715L2.52837 20.545Z" fill="#0066DA"/>
<path d="M23.1039 23.603C23.519 23.3571 23.8723 23.019 24.1181 22.5888L24.6099 21.7437L26.961 17.6715C27.2023 17.2505 27.3294 16.7738 27.3297 16.2885C25.4212 16.0438 24.0153 15.9215 23.1117 15.9215C22.1406 15.9215 20.7345 16.0438 18.8936 16.2885C19.5751 18.0404 20.1488 19.321 20.6146 20.1301C21.0845 20.9464 21.9142 22.104 23.1039 23.603Z" fill="#EA4335"/>
<path d="M13.9152 7.68325C15.2903 6.02264 16.2379 4.74204 16.758 3.84168C17.1769 3.11665 17.638 1.95899 18.141 0.368804C17.7261 0.122935 17.2498 0 16.758 0H11.0724C10.5807 0 10.1045 0.138341 9.68945 0.368804C10.3294 2.19259 10.8725 3.49059 11.3185 4.26267C11.8115 5.11598 12.6771 6.25614 13.9152 7.68325Z" fill="#00832D"/>
<path d="M18.878 16.2886H8.95126L4.72559 23.603C5.1404 23.8489 5.61673 23.9718 6.10847 23.9718H21.7208C22.2126 23.9718 22.689 23.8335 23.1038 23.6029L18.878 16.2886Z" fill="#2684FC"/>
<path d="M13.915 7.68324L9.68927 0.368896C9.27425 0.614765 8.92086 0.952757 8.67499 1.38308L0.868804 14.9056C0.627454 15.3265 0.500319 15.8033 0.5 16.2885H8.95156L13.915 7.68324Z" fill="#00AC47"/>
<path d="M23.0581 8.14425L19.1549 1.38296C18.9091 0.952635 18.5556 0.614643 18.1407 0.368774L13.915 7.68322L18.8783 16.2885H27.3146C27.3146 15.8121 27.1917 15.3359 26.9458 14.9055L23.0581 8.14425Z" fill="#FFBA00"/>
</g>
<defs>
<clipPath id="clip0_454_10718">
<rect width="26.83" height="24" fill="white" transform="translate(0.5)"/>
</clipPath>
</defs>
</svg>
