<svg width="203" height="65" viewBox="0 0 203 65" fill="none" xmlns="http://www.w3.org/2000/svg">
<path d="M26.0606 23.2776V30.0443H42.3906C41.957 33.7876 40.6564 36.667 38.6332 38.5386C36.321 40.8422 32.5637 43.4337 26.0606 43.4337C16.0892 43.4337 8.28549 35.3713 8.28549 25.4372C8.28549 15.5031 15.9447 7.44064 26.0606 7.44064C31.4076 7.44064 35.4539 9.60023 38.3442 12.3357L43.1131 7.58462C39.0668 3.69737 33.5753 0.67395 26.0606 0.67395C12.3319 0.67395 0.770813 11.7598 0.770813 25.4372C0.770813 39.1145 12.3319 50.2004 26.0606 50.2004C33.4308 50.2004 39.0668 47.7529 43.4022 43.2897C47.8821 38.8266 49.3272 32.4918 49.3272 27.4528C49.3272 25.8691 49.1827 24.4294 49.0382 23.2776H26.0606Z" fill="#262626"/>
<path d="M69.559 17.6627C60.7437 17.6627 53.3735 24.4294 53.3735 33.6436C53.3735 42.8579 60.5992 49.6246 69.559 49.6246C78.5188 49.6246 85.7445 43.0018 85.7445 33.7876C85.7445 24.4294 78.5188 17.6627 69.559 17.6627ZM69.559 43.4337C64.6455 43.4337 60.4547 39.4025 60.4547 33.7876C60.4547 28.0287 64.6455 24.1415 69.559 24.1415C74.4724 24.1415 78.6633 28.0287 78.6633 33.7876C78.6633 39.4025 74.4724 43.4337 69.559 43.4337Z" fill="#262626"/>
<path d="M148.608 21.262H148.319C146.729 19.3904 143.694 17.6627 139.792 17.6627C131.7 17.6627 124.763 24.5734 124.763 33.6436C124.763 42.5699 131.7 49.6246 139.792 49.6246C143.694 49.6246 146.729 47.8969 148.319 46.0252H148.608V48.3288C148.608 54.3756 145.284 57.687 140.081 57.687C135.746 57.687 133.145 54.6636 131.989 51.9281L125.919 54.5196C127.653 58.6948 132.422 64.0218 140.226 64.0218C148.463 64.0218 155.544 59.1267 155.544 47.321V18.5266H148.897V21.262H148.608ZM140.515 43.4337C135.601 43.4337 131.989 39.2586 131.989 33.7876C131.989 28.1727 135.746 24.1415 140.515 24.1415C145.284 24.1415 149.041 28.3167 149.041 33.9316C149.186 39.4025 145.428 43.4337 140.515 43.4337Z" fill="#262626"/>
<path d="M105.543 17.6627C96.7275 17.6627 89.3573 24.4294 89.3573 33.6436C89.3573 42.8579 96.583 49.6246 105.543 49.6246C114.503 49.6246 121.728 43.0018 121.728 33.7876C121.728 24.4294 114.503 17.6627 105.543 17.6627ZM105.543 43.4337C100.629 43.4337 96.4384 39.4025 96.4384 33.7876C96.4384 28.0287 100.629 24.1415 105.543 24.1415C110.456 24.1415 114.647 28.0287 114.647 33.7876C114.647 39.4025 110.456 43.4337 105.543 43.4337Z" fill="#262626"/>
<path d="M160.891 1.3938H167.828V49.7685H160.891V1.3938Z" fill="#262626"/>
<path d="M189.216 43.4337C185.603 43.4337 183.146 41.85 181.412 38.5387L202.945 29.7564L202.222 27.8847C200.921 24.2854 196.731 17.6627 188.493 17.6627C180.256 17.6627 173.319 24.1415 173.319 33.6436C173.319 42.5699 180.111 49.6246 189.216 49.6246C196.586 49.6246 200.777 45.1614 202.656 42.5699L197.164 38.9706C195.285 41.7061 192.829 43.4337 189.216 43.4337ZM188.782 23.7096C191.673 23.7096 194.129 25.1493 194.852 27.1649L180.401 33.2117C180.256 26.589 185.169 23.7096 188.782 23.7096Z" fill="#262626"/>
</svg>
