<svg width="143" height="30" viewBox="0 0 143 30" fill="none" xmlns="http://www.w3.org/2000/svg">
<path d="M0.528469 29V0.765999H6.49447V12.565H17.5715V0.765999H23.4995V29H17.5715V16.935H6.49447V29H0.528469ZM35.0699 29.304C33.7272 29.304 32.5492 29.0317 31.5359 28.487C30.5225 27.9423 29.7309 27.1823 29.1609 26.207C28.6035 25.2317 28.3249 24.098 28.3249 22.806C28.3249 21.514 28.6732 20.4057 29.3699 19.481C30.0792 18.5563 31.0355 17.8343 32.2389 17.315C33.0622 16.973 33.9615 16.707 34.9369 16.517C35.9249 16.327 36.9065 16.194 37.8819 16.118C38.8699 16.042 39.7882 16.004 40.6369 16.004L41.6059 17.201L40.6369 19.063C40.1809 19.063 39.6679 19.0947 39.0979 19.158C38.5279 19.2213 37.9769 19.3163 37.4449 19.443C36.9255 19.557 36.4885 19.69 36.1339 19.842C35.6399 20.07 35.1965 20.374 34.8039 20.754C34.4239 21.134 34.2339 21.7167 34.2339 22.502C34.2339 23.528 34.5189 24.288 35.0889 24.782C35.6589 25.2633 36.3935 25.504 37.2929 25.504C37.7615 25.504 38.2239 25.4407 38.6799 25.314C39.1485 25.1873 39.5602 25.0417 39.9149 24.877C40.2695 24.6997 40.5102 24.535 40.6369 24.383L41.6439 25.58L40.9409 27.214C40.3709 27.7207 39.5855 28.1957 38.5849 28.639C37.5969 29.0823 36.4252 29.304 35.0699 29.304ZM46.4319 29H40.9409V25.846H40.6369V14.446C40.6369 13.3693 40.3519 12.6663 39.7819 12.337C39.2119 11.995 38.3949 11.824 37.3309 11.824C36.5329 11.824 35.6969 11.8937 34.8229 12.033C33.9615 12.1723 33.1445 12.356 32.3719 12.584C31.5992 12.812 30.9532 13.059 30.4339 13.325L29.1799 9.677C29.6105 9.42367 30.2819 9.126 31.1939 8.784C32.1059 8.442 33.1509 8.14433 34.3289 7.891C35.5069 7.625 36.6912 7.492 37.8819 7.492C39.8325 7.492 41.4349 7.72 42.6889 8.176C43.9555 8.632 44.8929 9.40467 45.5009 10.494C46.1215 11.5833 46.4319 13.0907 46.4319 15.016V29ZM52.1242 29V7.853H57.3872L57.4822 10.114C57.9762 9.734 58.5968 9.34767 59.3442 8.955C60.1042 8.56233 60.9275 8.233 61.8142 7.967C62.7008 7.68833 63.6065 7.54267 64.5312 7.53C65.9878 7.492 67.1848 7.72633 68.1222 8.233C69.0595 8.73967 69.7562 9.601 70.2122 10.817C70.6682 12.0203 70.8962 13.6417 70.8962 15.681V29H65.1202V16.536C65.1202 15.4467 65.0315 14.5853 64.8542 13.952C64.6768 13.306 64.3602 12.8437 63.9042 12.565C63.4608 12.2863 62.8275 12.1597 62.0042 12.185C61.4468 12.185 60.7818 12.318 60.0092 12.584C59.2365 12.85 58.5335 13.2427 57.9002 13.762V29H52.1242ZM70.6492 13.857L69.5852 10.266C69.9905 9.91133 70.5668 9.525 71.3142 9.107C72.0742 8.67633 72.9482 8.309 73.9362 8.005C74.9242 7.68833 75.9692 7.53 77.0712 7.53C78.5278 7.51733 79.7502 7.758 80.7382 8.252C81.7262 8.746 82.4735 9.59467 82.9802 10.798C83.4868 12.0013 83.7402 13.6353 83.7402 15.7V29H77.9262V16.517C77.9262 15.4277 77.8375 14.5663 77.6602 13.933C77.4955 13.287 77.1852 12.831 76.7292 12.565C76.2858 12.2863 75.6462 12.1597 74.8102 12.185C74.0882 12.185 73.3408 12.3623 72.5682 12.717C71.8082 13.059 71.1685 13.439 70.6492 13.857ZM89.4191 29V7.853H94.6821L94.7771 10.114C95.2711 9.734 95.8917 9.34767 96.6391 8.955C97.3991 8.56233 98.2224 8.233 99.1091 7.967C99.9957 7.68833 100.901 7.54267 101.826 7.53C103.283 7.492 104.48 7.72633 105.417 8.233C106.354 8.73967 107.051 9.601 107.507 10.817C107.963 12.0203 108.191 13.6417 108.191 15.681V29H102.415V16.536C102.415 15.4467 102.326 14.5853 102.149 13.952C101.972 13.306 101.655 12.8437 101.199 12.565C100.756 12.2863 100.122 12.1597 99.2991 12.185C98.7417 12.185 98.0767 12.318 97.3041 12.584C96.5314 12.85 95.8284 13.2427 95.1951 13.762V29H89.4191ZM107.944 13.857L106.88 10.266C107.285 9.91133 107.862 9.525 108.609 9.107C109.369 8.67633 110.243 8.309 111.231 8.005C112.219 7.68833 113.264 7.53 114.366 7.53C115.823 7.51733 117.045 7.758 118.033 8.252C119.021 8.746 119.768 9.59467 120.275 10.798C120.782 12.0013 121.035 13.6353 121.035 15.7V29H115.221V16.517C115.221 15.4277 115.132 14.5663 114.955 13.933C114.79 13.287 114.48 12.831 114.024 12.565C113.581 12.2863 112.941 12.1597 112.105 12.185C111.383 12.185 110.636 12.3623 109.863 12.717C109.103 13.059 108.463 13.439 107.944 13.857ZM131.554 29.304C130.212 29.304 129.034 29.0317 128.02 28.487C127.007 27.9423 126.215 27.1823 125.645 26.207C125.088 25.2317 124.809 24.098 124.809 22.806C124.809 21.514 125.158 20.4057 125.854 19.481C126.564 18.5563 127.52 17.8343 128.723 17.315C129.547 16.973 130.446 16.707 131.421 16.517C132.409 16.327 133.391 16.194 134.366 16.118C135.354 16.042 136.273 16.004 137.121 16.004L138.09 17.201L137.121 19.063C136.665 19.063 136.152 19.0947 135.582 19.158C135.012 19.2213 134.461 19.3163 133.929 19.443C133.41 19.557 132.973 19.69 132.618 19.842C132.124 20.07 131.681 20.374 131.288 20.754C130.908 21.134 130.718 21.7167 130.718 22.502C130.718 23.528 131.003 24.288 131.573 24.782C132.143 25.2633 132.878 25.504 133.777 25.504C134.246 25.504 134.708 25.4407 135.164 25.314C135.633 25.1873 136.045 25.0417 136.399 24.877C136.754 24.6997 136.995 24.535 137.121 24.383L138.128 25.58L137.425 27.214C136.855 27.7207 136.07 28.1957 135.069 28.639C134.081 29.0823 132.91 29.304 131.554 29.304ZM142.916 29H137.425V25.846H137.121V14.446C137.121 13.3693 136.836 12.6663 136.266 12.337C135.696 11.995 134.879 11.824 133.815 11.824C133.017 11.824 132.181 11.8937 131.307 12.033C130.446 12.1723 129.629 12.356 128.856 12.584C128.084 12.812 127.438 13.059 126.918 13.325L125.664 9.677C126.095 9.42367 126.766 9.126 127.678 8.784C128.59 8.442 129.635 8.14433 130.813 7.891C131.991 7.625 133.176 7.492 134.366 7.492C136.317 7.492 137.919 7.72 139.173 8.176C140.44 8.632 141.377 9.40467 141.985 10.494C142.606 11.5833 142.916 13.0907 142.916 15.016V29Z" fill="#0FB23C"/>
</svg>
