<svg width="21" height="21" viewBox="0 0 21 21" fill="none" xmlns="http://www.w3.org/2000/svg">
<path d="M15.4831 4.1558C15.2457 4.1558 15.0137 4.22618 14.8164 4.35804C14.619 4.4899 14.4652 4.67731 14.3744 4.89658C14.2836 5.11585 14.2598 5.35713 14.3061 5.58991C14.3524 5.82269 14.4667 6.03651 14.6345 6.20433C14.8024 6.37215 15.0162 6.48644 15.249 6.53274C15.4817 6.57905 15.723 6.55528 15.9423 6.46446C16.1616 6.37363 16.349 6.21982 16.4808 6.02249C16.6127 5.82515 16.6831 5.59314 16.6831 5.3558C16.6831 5.03754 16.5566 4.73232 16.3316 4.50727C16.1066 4.28223 15.8013 4.1558 15.4831 4.1558ZM20.0831 6.5758C20.0636 5.7461 19.9082 4.9252 19.6231 4.1458C19.3688 3.47893 18.9731 2.87508 18.4631 2.3758C17.9679 1.86323 17.3626 1.46998 16.6931 1.2258C15.9157 0.931962 15.0939 0.773011 14.2631 0.755801C13.2031 0.695801 12.8631 0.695801 10.1431 0.695801C7.42307 0.695801 7.08307 0.695801 6.02307 0.755801C5.19222 0.773011 4.37041 0.931962 3.59307 1.2258C2.92474 1.47245 2.32 1.86536 1.82307 2.3758C1.31049 2.87098 0.917243 3.47624 0.673066 4.1458C0.379227 4.92314 0.220276 5.74495 0.203066 6.5758C0.143066 7.6358 0.143066 7.9758 0.143066 10.6958C0.143066 13.4158 0.143066 13.7558 0.203066 14.8158C0.220276 15.6466 0.379227 16.4685 0.673066 17.2458C0.917243 17.9154 1.31049 18.5206 1.82307 19.0158C2.32 19.5262 2.92474 19.9192 3.59307 20.1658C4.37041 20.4596 5.19222 20.6186 6.02307 20.6358C7.08307 20.6958 7.42307 20.6958 10.1431 20.6958C12.8631 20.6958 13.2031 20.6958 14.2631 20.6358C15.0939 20.6186 15.9157 20.4596 16.6931 20.1658C17.3626 19.9216 17.9679 19.5284 18.4631 19.0158C18.9753 18.5184 19.3714 17.914 19.6231 17.2458C19.9082 16.4664 20.0636 15.6455 20.0831 14.8158C20.0831 13.7558 20.1431 13.4158 20.1431 10.6958C20.1431 7.9758 20.1431 7.6358 20.0831 6.5758ZM18.2831 14.6958C18.2758 15.3306 18.1608 15.9595 17.9431 16.5558C17.7834 16.991 17.5269 17.3842 17.1931 17.7058C16.8687 18.0363 16.4763 18.2922 16.0431 18.4558C15.4468 18.6736 14.8178 18.7885 14.1831 18.7958C13.1831 18.8458 12.8131 18.8558 10.1831 18.8558C7.55307 18.8558 7.18307 18.8558 6.18307 18.7958C5.52396 18.8081 4.86766 18.7067 4.24307 18.4958C3.82885 18.3239 3.45442 18.0686 3.14307 17.7458C2.81115 17.4245 2.55791 17.031 2.40307 16.5958C2.15892 15.991 2.02351 15.3477 2.00307 14.6958C2.00307 13.6958 1.94307 13.3258 1.94307 10.6958C1.94307 8.0658 1.94307 7.6958 2.00307 6.6958C2.00755 6.04686 2.12602 5.40375 2.35307 4.7958C2.52911 4.37371 2.79933 3.99746 3.14307 3.6958C3.44688 3.35197 3.82235 3.0789 4.24307 2.8958C4.85262 2.67584 5.49506 2.56088 6.14307 2.5558C7.14307 2.5558 7.51307 2.4958 10.1431 2.4958C12.7731 2.4958 13.1431 2.4958 14.1431 2.5558C14.7778 2.56308 15.4068 2.67805 16.0031 2.8958C16.4575 3.06445 16.8654 3.33865 17.1931 3.6958C17.5208 4.00298 17.7768 4.37853 17.9431 4.7958C18.1653 5.40473 18.2804 6.04758 18.2831 6.6958C18.3331 7.6958 18.3431 8.0658 18.3431 10.6958C18.3431 13.3258 18.3331 13.6958 18.2831 14.6958ZM10.1431 5.5658C9.12888 5.56778 8.13803 5.87033 7.29572 6.43522C6.45341 7.00011 5.79744 7.802 5.4107 8.73955C5.02396 9.67711 4.92379 10.7083 5.12286 11.7027C5.32193 12.6972 5.8113 13.6103 6.52914 14.3268C7.24698 15.0432 8.16108 15.5308 9.15593 15.7279C10.1508 15.9251 11.1817 15.8229 12.1185 15.4343C13.0553 15.0458 13.8559 14.3882 14.4192 13.5448C14.9824 12.7014 15.2831 11.71 15.2831 10.6958C15.2844 10.0209 15.1523 9.35241 14.8943 8.72876C14.6363 8.10511 14.2576 7.53861 13.7799 7.06185C13.3022 6.58509 12.735 6.20748 12.1109 5.95073C11.4867 5.69398 10.818 5.56316 10.1431 5.5658ZM10.1431 14.0258C9.48446 14.0258 8.84063 13.8305 8.29302 13.4646C7.7454 13.0987 7.31859 12.5786 7.06655 11.9701C6.81451 11.3617 6.74856 10.6921 6.87705 10.0462C7.00554 9.40019 7.32269 8.80684 7.7884 8.34114C8.25411 7.87543 8.84746 7.55827 9.49342 7.42979C10.1394 7.3013 10.8089 7.36724 11.4174 7.61928C12.0259 7.87132 12.546 8.29814 12.9119 8.84575C13.2778 9.39337 13.4731 10.0372 13.4731 10.6958C13.4731 11.1331 13.3869 11.5661 13.2196 11.9701C13.0522 12.3742 12.807 12.7412 12.4977 13.0505C12.1885 13.3597 11.8214 13.605 11.4174 13.7723C11.0134 13.9397 10.5804 14.0258 10.1431 14.0258Z" fill="white"/>
</svg>
