<svg width="34" height="34" viewBox="0 0 34 34" fill="none" xmlns="http://www.w3.org/2000/svg">
<path d="M4.25 0.5C3.25762 0.507069 2.3079 0.904427 1.60616 1.60616C0.904427 2.3079 0.507069 3.25762 0.5 4.25V29.75C0.5 31.8005 2.1995 33.5 4.25 33.5H29.75C31.8005 33.5 33.5 31.8005 33.5 29.75V4.25C33.5 2.1995 31.8005 0.5 29.75 0.5H4.25ZM4.25 3.5H29.75C30.1775 3.5 30.5 3.8225 30.5 4.25V29.75C30.502 29.8491 30.484 29.9475 30.4471 30.0394C30.4101 30.1313 30.3549 30.2148 30.2849 30.2849C30.2148 30.3549 30.1313 30.4101 30.0394 30.4471C29.9475 30.484 29.8491 30.502 29.75 30.5H4.25C4.15089 30.5023 4.05235 30.4844 3.96034 30.4475C3.86833 30.4106 3.78475 30.3554 3.71465 30.2854C3.64455 30.2153 3.58939 30.1317 3.55249 30.0397C3.5156 29.9476 3.49774 29.8491 3.5 29.75V4.25C3.5 3.8225 3.8225 3.5 4.25 3.5ZM8.657 6.0785C8.31325 6.07021 7.97132 6.13075 7.65132 6.25657C7.33132 6.38238 7.03971 6.57093 6.79366 6.81112C6.54761 7.05131 6.35208 7.33828 6.21858 7.65515C6.08508 7.97203 6.01631 8.3124 6.01631 8.65625C6.01631 9.0001 6.08508 9.34047 6.21858 9.65735C6.35208 9.97422 6.54761 10.2612 6.79366 10.5014C7.03971 10.7416 7.33132 10.9301 7.65132 11.0559C7.97132 11.1817 8.31325 11.2423 8.657 11.234C9.3299 11.2178 9.96977 10.9391 10.4399 10.4574C10.9101 9.97575 11.1733 9.32934 11.1733 8.65625C11.1733 7.98316 10.9101 7.33675 10.4399 6.8551C9.96977 6.37344 9.3299 6.09473 8.657 6.0785ZM22.202 12.9215C20.0525 12.9215 18.623 14.099 18.032 15.218H17.9375V13.25H13.718V27.5H18.125V20.468C18.125 18.611 18.494 16.8125 20.7965 16.8125C23.0645 16.8125 23.0945 18.9095 23.0945 20.5625V27.5H27.5V19.6715C27.5 15.8405 26.684 12.9215 22.202 12.9215ZM6.5 13.25V27.5H10.9535V13.25H6.5Z" fill="#0D0D0D"/>
</svg>
