<svg width="135" height="46" viewBox="0 0 135 46" fill="none" xmlns="http://www.w3.org/2000/svg">
<rect x="0.599765" y="0.599765" width="133.8" height="44.8005" stroke="black" stroke-width="1.19953"/>
<rect width="42.3944" height="32.5962" transform="translate(6.90376 6.7019)" fill="black"/>
<path d="M13.7363 29.5L19.6092 16.0653H24.0618L29.9347 29.5H25.2518L20.9143 18.2148H22.68L18.3425 29.5H13.7363ZM17.2293 27.1585L18.3809 23.8958H24.5608L25.7124 27.1585H17.2293ZM32.9001 29.5V19.5775H28.9657V16.0653H41.364V19.5775H37.4295V29.5H32.9001Z" fill="white"/>
<path d="M54.0771 29.5L60.1611 16.0653H62.0611L68.1643 29.5H66.1491L60.7177 17.14H61.4854L56.0539 29.5H54.0771ZM56.668 26.1413L57.1862 24.6059H64.7481L65.3047 26.1413H56.668ZM71.8958 22.418H78.8243V24.0685H71.8958V22.418ZM72.0877 29.5H70.1684V16.0653H79.6495V17.735H72.0877V29.5ZM82.3512 29.5V16.0653H87.5907C88.7679 16.0653 89.7723 16.2508 90.6039 16.6218C91.4356 16.9929 92.0754 17.5303 92.5232 18.234C92.971 18.9377 93.1949 19.7758 93.1949 20.7482C93.1949 21.7206 92.971 22.5587 92.5232 23.2624C92.0754 23.9534 91.4356 24.4844 90.6039 24.8554C89.7723 25.2265 88.7679 25.412 87.5907 25.412H83.4068L84.2704 24.5291V29.5H82.3512ZM91.3333 29.5L87.917 24.6251H89.9706L93.4252 29.5H91.3333ZM84.2704 24.7211L83.4068 23.7806H87.5331C88.7615 23.7806 89.6891 23.5183 90.316 22.9938C90.9558 22.4564 91.2757 21.7079 91.2757 20.7482C91.2757 19.7886 90.9558 19.0465 90.316 18.5219C89.6891 17.9973 88.7615 17.735 87.5331 17.735H83.4068L84.2704 16.7754V24.7211ZM96.2957 29.5V16.0653H98.215V29.5H96.2957ZM108.244 29.6535C107.221 29.6535 106.274 29.4872 105.404 29.1545C104.547 28.8091 103.798 28.3293 103.158 27.7151C102.531 27.0881 102.039 26.3588 101.681 25.5272C101.322 24.6955 101.143 23.7806 101.143 22.7826C101.143 21.7846 101.322 20.8698 101.681 20.0381C102.039 19.2064 102.538 18.4835 103.178 17.8694C103.817 17.2424 104.566 16.7626 105.423 16.4299C106.293 16.0845 107.24 15.9117 108.264 15.9117C109.3 15.9117 110.253 16.0909 111.123 16.4491C112.006 16.7946 112.755 17.3128 113.369 18.0037L112.121 19.2128C111.609 18.6754 111.034 18.2788 110.394 18.0229C109.754 17.7542 109.07 17.6199 108.34 17.6199C107.585 17.6199 106.882 17.7478 106.229 18.0037C105.589 18.2596 105.033 18.6179 104.559 19.0785C104.086 19.5391 103.715 20.0893 103.446 20.729C103.19 21.356 103.062 22.0405 103.062 22.7826C103.062 23.5247 103.19 24.2157 103.446 24.8554C103.715 25.4824 104.086 26.0262 104.559 26.4868C105.033 26.9474 105.589 27.3057 106.229 27.5616C106.882 27.8175 107.585 27.9454 108.34 27.9454C109.07 27.9454 109.754 27.8175 110.394 27.5616C111.034 27.2929 111.609 26.8834 112.121 26.3332L113.369 27.5424C112.755 28.2333 112.006 28.7579 111.123 29.1162C110.253 29.4744 109.294 29.6535 108.244 29.6535ZM113.754 29.5L119.838 16.0653H121.738L127.841 29.5H125.826L120.394 17.14H121.162L115.73 29.5H113.754ZM116.345 26.1413L116.863 24.6059H124.425L124.981 26.1413H116.345Z" fill="black"/>
</svg>
