<svg width="25" height="24" viewBox="0 0 25 24" fill="none" xmlns="http://www.w3.org/2000/svg">
<path fill-rule="evenodd" clip-rule="evenodd" d="M11.6301 6.19998H5.33008C4.79965 6.19998 4.29094 6.41069 3.91586 6.78576C3.54079 7.16084 3.33008 7.66954 3.33008 8.19998V19C3.33008 19.5304 3.54079 20.0391 3.91586 20.4142C4.29094 20.7893 4.79965 21 5.33008 21H16.3301C17.4301 21 18.3301 20 18.3301 18.9V11L14.3301 15.2C14.0301 15.5 13.6301 15.8 13.1301 15.9L10.4301 16.5C8.73008 16.8 7.13008 15.2 7.43008 13.4L8.03008 10.5C8.13008 9.99998 8.43008 9.49998 8.73008 9.19998L11.7301 6.09998L11.6301 6.19998Z" fill="#262626"/>
<path fill-rule="evenodd" clip-rule="evenodd" d="M20.1301 4.29999C19.942 3.82366 19.5864 3.43246 19.1301 3.19999C18.7652 3.03997 18.3609 2.99255 17.969 3.06382C17.577 3.13508 17.2152 3.32179 16.9301 3.59999L16.3301 4.19999L19.2301 7.19999L19.7301 6.59999C19.9242 6.40196 20.0771 6.16745 20.1801 5.91C20.2831 5.65255 20.3341 5.37725 20.3301 5.09999C20.3301 4.89999 20.3301 4.59999 20.1301 4.29999ZM17.7301 8.69999L14.9301 5.69999L10.1301 10.7L10.0301 11L9.33008 14C9.33008 14.3 9.63008 14.7 9.93008 14.6L12.6301 14L12.9301 13.9L17.6301 8.89999L17.7301 8.69999Z" fill="#262626"/>
</svg>
