<svg width="32" height="32" viewBox="0 0 32 32" fill="none" xmlns="http://www.w3.org/2000/svg">
<path d="M20 23.9999C20.7364 23.9999 21.3333 24.5969 21.3333 25.3333C21.3333 26.0696 20.7364 26.6666 20 26.6666H8C7.26362 26.6666 6.66667 26.0696 6.66667 25.3333C6.66667 24.5969 7.26362 23.9999 8 23.9999H20ZM26.6667 14.6666C27.403 14.6666 28 15.2635 28 15.9999C28 16.7363 27.403 17.3333 26.6667 17.3333H5.33333C4.59695 17.3333 4 16.7363 4 15.9999C4 15.2635 4.59695 14.6666 5.33333 14.6666H26.6667ZM24 5.33325C24.7364 5.33325 25.3333 5.93021 25.3333 6.66659C25.3333 7.40296 24.7364 7.99992 24 7.99992H12C11.2636 7.99992 10.6667 7.40296 10.6667 6.66659C10.6667 5.93021 11.2636 5.33325 12 5.33325H24Z" fill="#262626"/>
</svg>
