<svg width="228" height="49" viewBox="0 0 228 49" fill="none" xmlns="http://www.w3.org/2000/svg">
<path d="M80.9405 28.0207L79.5897 31.8436H79.4772C79.252 30.9816 78.8393 29.6698 78.1639 28.0957L70.9223 9.91841H63.8307V38.8896H68.5209V21.0122C68.5209 19.8878 68.5209 18.6135 68.4834 17.0394C68.4458 16.2523 68.3708 15.6527 68.3333 15.2029H68.4458C68.671 16.3273 68.9336 17.1518 69.1212 17.6765L77.8262 38.8146H81.1281L89.7581 17.4891C89.9457 17.0019 90.1333 16.0275 90.3209 15.2029H90.4335C90.3209 17.3392 90.2459 19.2507 90.2083 20.4125V38.7772H95.1987V9.84345H88.3698L80.9405 28.0207ZM99.9264 18.0139H104.804V38.7772H99.9264V18.0139ZM102.403 9.24379C101.577 9.24379 100.902 9.54362 100.339 10.0683C99.7763 10.593 99.4762 11.2676 99.4762 12.0922C99.4762 12.8792 99.7763 13.5539 100.339 14.0786C100.902 14.6033 101.577 14.8656 102.403 14.8656C103.228 14.8656 103.941 14.5658 104.467 14.0786C105.029 13.5539 105.33 12.8792 105.33 12.0922C105.33 11.3051 105.029 10.6305 104.467 10.0683C103.979 9.54362 103.266 9.24379 102.403 9.24379ZM122.102 17.8265C121.201 17.6391 120.263 17.5266 119.363 17.5266C117.149 17.5266 115.123 18.0139 113.434 18.9883C111.746 19.9628 110.395 21.312 109.532 22.9985C108.631 24.7226 108.181 26.709 108.181 28.9952C108.181 30.9816 108.631 32.7431 109.494 34.3547C110.357 35.9288 111.558 37.203 113.172 38.0651C114.71 38.9271 116.511 39.3768 118.537 39.3768C120.863 39.3768 122.852 38.8896 124.428 37.9901L124.466 37.9526V33.4552L124.278 33.6051C123.565 34.1298 122.74 34.5795 121.914 34.8419C121.051 35.1417 120.263 35.2916 119.588 35.2916C117.637 35.2916 116.098 34.7294 115.01 33.4926C113.884 32.2933 113.322 30.6442 113.322 28.5829C113.322 26.4466 113.884 24.7601 115.048 23.5232C116.211 22.2864 117.749 21.6493 119.625 21.6493C121.201 21.6493 122.815 22.174 124.278 23.2234L124.466 23.3733V18.6135L124.428 18.576C123.79 18.3137 123.077 18.0139 122.102 17.8265ZM138.198 17.6765C136.998 17.6765 135.872 18.0513 134.897 18.8384C134.071 19.513 133.508 20.4875 133.02 21.6493H132.983V18.0139H128.105V38.7772H132.983V28.1706C132.983 26.3716 133.358 24.8725 134.184 23.7856C135.009 22.6612 136.06 22.0991 137.335 22.0991C137.786 22.0991 138.236 22.2115 138.799 22.2864C139.324 22.4364 139.699 22.5863 139.962 22.7737L140.15 22.9236V18.0513L140.037 18.0139C139.699 17.789 139.024 17.6765 138.198 17.6765ZM151.481 17.5641C148.067 17.5641 145.328 18.576 143.414 20.5624C141.463 22.5488 140.525 25.2848 140.525 28.7328C140.525 31.956 141.5 34.5795 143.376 36.4909C145.252 38.3649 147.804 39.3393 150.993 39.3393C154.333 39.3393 156.997 38.3274 158.91 36.3036C160.861 34.2797 161.799 31.5812 161.799 28.2456C161.799 24.9474 160.899 22.3239 159.06 20.4125C157.297 18.5011 154.708 17.5641 151.481 17.5641ZM155.383 33.5301C154.483 34.692 153.057 35.2541 151.293 35.2541C149.53 35.2541 148.104 34.692 147.091 33.4552C146.078 32.2933 145.59 30.6068 145.59 28.4705C145.59 26.2592 146.115 24.5727 147.091 23.3733C148.104 22.174 149.492 21.5743 151.256 21.5743C152.982 21.5743 154.333 22.1365 155.308 23.2984C156.284 24.4602 156.809 26.1468 156.809 28.358C156.734 30.6068 156.321 32.3683 155.383 33.5301ZM172.681 26.634C171.142 25.9969 170.167 25.5096 169.717 25.0974C169.341 24.7226 169.154 24.1979 169.154 23.5232C169.154 22.9611 169.379 22.3989 169.942 22.0241C170.504 21.6493 171.142 21.4619 172.08 21.4619C172.906 21.4619 173.769 21.6118 174.594 21.8367C175.42 22.0616 176.17 22.3989 176.771 22.8486L176.958 22.9985V18.4261L176.846 18.3886C176.283 18.1638 175.532 17.9389 174.632 17.7515C173.731 17.6016 172.906 17.5266 172.23 17.5266C169.904 17.5266 167.991 18.0888 166.49 19.3256C164.989 20.4875 164.276 22.0616 164.276 23.898C164.276 24.8725 164.426 25.7345 164.764 26.4466C165.101 27.1587 165.589 27.8333 166.265 28.3955C166.94 28.9202 167.915 29.5199 169.266 30.0821C170.392 30.5693 171.255 30.9441 171.78 31.2439C172.306 31.5437 172.643 31.881 172.906 32.1434C173.093 32.4432 173.206 32.818 173.206 33.3052C173.206 34.692 172.155 35.3666 170.017 35.3666C169.191 35.3666 168.328 35.2167 167.315 34.8794C166.302 34.542 165.364 34.0548 164.576 33.4926L164.388 33.3427V38.1025L164.501 38.14C165.214 38.4773 166.077 38.7022 167.128 38.9646C168.178 39.152 169.116 39.3019 169.942 39.3019C172.456 39.3019 174.519 38.7397 175.983 37.5029C177.483 36.3036 178.271 34.7669 178.271 32.7805C178.271 31.3938 177.896 30.157 177.071 29.22C175.983 28.3205 174.632 27.3836 172.681 26.634ZM191.141 17.5641C187.727 17.5641 184.988 18.576 183.074 20.5624C181.161 22.5488 180.185 25.2848 180.185 28.7328C180.185 31.956 181.161 34.5795 183.037 36.4909C184.913 38.3649 187.464 39.3393 190.654 39.3393C193.993 39.3393 196.657 38.3274 198.571 36.3036C200.522 34.2797 201.46 31.5812 201.46 28.2456C201.46 24.9474 200.559 22.3239 198.721 20.4125C196.957 18.5011 194.368 17.5641 191.141 17.5641ZM195.006 33.5301C194.106 34.692 192.68 35.2541 190.916 35.2541C189.115 35.2541 187.727 34.692 186.714 33.4552C185.701 32.2933 185.213 30.6068 185.213 28.4705C185.213 26.2592 185.738 24.5727 186.714 23.3733C187.727 22.174 189.115 21.5743 190.879 21.5743C192.567 21.5743 193.955 22.1365 194.931 23.2984C195.907 24.4602 196.432 26.1468 196.432 28.358C196.432 30.6068 195.944 32.3683 195.006 33.5301ZM227.537 22.0241V18.0139H222.622V11.8673L222.472 11.9048L217.819 13.2915L217.707 13.329V18.0139H210.352V15.3903C210.352 14.191 210.653 13.254 211.178 12.6544C211.703 12.0547 212.491 11.7549 213.467 11.7549C214.142 11.7549 214.855 11.9048 215.643 12.2421L215.831 12.3545V8.11942L215.718 8.08194C215.043 7.85707 214.142 7.70715 212.979 7.70715C211.516 7.70715 210.24 8.04446 209.077 8.60665C207.913 9.24379 207.05 10.1058 206.413 11.2676C205.775 12.392 205.437 13.6663 205.437 15.128V18.0139H202.023V21.9866H205.437V38.7772H210.352V22.0241H217.707V32.7056C217.707 37.0906 219.77 39.3019 223.898 39.3019C224.573 39.3019 225.286 39.1894 225.961 39.077C226.674 38.9271 227.2 38.7397 227.5 38.5898L227.537 38.5523V34.542L227.35 34.692C227.049 34.8794 226.787 35.0293 226.337 35.1417C225.961 35.2541 225.624 35.2916 225.361 35.2916C224.385 35.2916 223.71 35.0667 223.222 34.5046C222.772 33.9799 222.547 33.1178 222.547 31.8436V22.0241H227.537Z" fill="#262626"/>
<path d="M0.94458 0.17395H23.9453V23.1485H0.94458V0.17395Z" fill="#262626"/>
<path d="M26.3467 0.17395H49.3474V23.1485H26.3467V0.17395Z" fill="#262626"/>
<path d="M0.94458 25.5472H23.9453V48.5218H0.94458V25.5472Z" fill="#262626"/>
<path d="M26.3467 25.5472H49.3474V48.5218H26.3467V25.5472Z" fill="#262626"/>
</svg>
