<svg width="192" height="39" viewBox="0 0 192 39" fill="none" xmlns="http://www.w3.org/2000/svg">
<g filter="url(#filter0_d_75_9211)">
<path d="M4.38 30V4.8H16.188C17.94 4.8 19.5 5.148 20.868 5.844C22.236 6.54 23.304 7.488 24.072 8.688C24.84 9.888 25.224 11.268 25.224 12.828C25.224 14.58 24.84 16.116 24.072 17.436C23.304 18.756 22.236 19.788 20.868 20.532C19.5 21.252 17.94 21.612 16.188 21.612H11.652V30H4.38ZM17.592 30L11.184 18.624L19.14 17.724L26.268 30H17.592ZM11.652 16.212H14.964C15.564 16.212 16.056 16.104 16.44 15.888C16.848 15.648 17.148 15.324 17.34 14.916C17.556 14.508 17.664 14.016 17.664 13.44C17.664 12.912 17.556 12.468 17.34 12.108C17.148 11.724 16.836 11.436 16.404 11.244C15.996 11.028 15.468 10.92 14.82 10.92H11.652V16.212ZM37.554 30.36C35.466 30.36 33.606 29.928 31.974 29.064C30.342 28.2 29.058 27.024 28.122 25.536C27.186 24.024 26.718 22.296 26.718 20.352C26.718 18.408 27.186 16.692 28.122 15.204C29.058 13.692 30.342 12.504 31.974 11.64C33.606 10.776 35.466 10.344 37.554 10.344C39.642 10.344 41.49 10.776 43.098 11.64C44.73 12.504 46.002 13.692 46.914 15.204C47.85 16.692 48.318 18.408 48.318 20.352C48.318 22.296 47.85 24.024 46.914 25.536C46.002 27.024 44.73 28.2 43.098 29.064C41.49 29.928 39.642 30.36 37.554 30.36ZM37.554 24.24C38.202 24.24 38.778 24.072 39.282 23.736C39.81 23.4 40.218 22.944 40.506 22.368C40.794 21.768 40.938 21.096 40.938 20.352C40.938 19.584 40.794 18.912 40.506 18.336C40.218 17.736 39.81 17.268 39.282 16.932C38.778 16.596 38.202 16.428 37.554 16.428C36.882 16.428 36.282 16.596 35.754 16.932C35.25 17.268 34.842 17.736 34.53 18.336C34.242 18.912 34.098 19.584 34.098 20.352C34.098 21.096 34.242 21.768 34.53 22.368C34.842 22.944 35.25 23.4 35.754 23.736C36.282 24.072 36.882 24.24 37.554 24.24ZM63.9476 30.396C63.0596 30.396 62.2196 30.288 61.4276 30.072C60.6356 29.856 59.9276 29.556 59.3036 29.172C58.7036 28.788 58.1996 28.332 57.7916 27.804C57.3836 27.276 57.1196 26.7 56.9996 26.076L58.4756 25.752L57.8996 30H51.3116V3.36H58.6556V15.456L57.0356 14.952C57.1796 14.304 57.4556 13.704 57.8636 13.152C58.2956 12.576 58.8116 12.084 59.4116 11.676C60.0116 11.244 60.6836 10.92 61.4276 10.704C62.1716 10.464 62.9516 10.344 63.7676 10.344C65.3996 10.344 66.8396 10.776 68.0876 11.64C69.3596 12.504 70.3556 13.692 71.0756 15.204C71.7956 16.716 72.1556 18.444 72.1556 20.388C72.1556 22.356 71.7956 24.096 71.0756 25.608C70.3796 27.096 69.4076 28.272 68.1596 29.136C66.9356 29.976 65.5316 30.396 63.9476 30.396ZM61.7516 24.456C62.4476 24.456 63.0356 24.3 63.5156 23.988C63.9956 23.652 64.3556 23.184 64.5956 22.584C64.8596 21.984 64.9916 21.252 64.9916 20.388C64.9916 19.524 64.8596 18.792 64.5956 18.192C64.3556 17.568 63.9956 17.1 63.5156 16.788C63.0356 16.476 62.4476 16.32 61.7516 16.32C61.0556 16.32 60.4556 16.476 59.9516 16.788C59.4716 17.1 59.0996 17.568 58.8356 18.192C58.5956 18.792 58.4756 19.524 58.4756 20.388C58.4756 21.252 58.5956 21.984 58.8356 22.584C59.0996 23.184 59.4716 23.652 59.9516 23.988C60.4556 24.3 61.0556 24.456 61.7516 24.456ZM84.5292 30.36C82.4412 30.36 80.5812 29.928 78.9492 29.064C77.3172 28.2 76.0332 27.024 75.0972 25.536C74.1612 24.024 73.6932 22.296 73.6932 20.352C73.6932 18.408 74.1612 16.692 75.0972 15.204C76.0332 13.692 77.3172 12.504 78.9492 11.64C80.5812 10.776 82.4412 10.344 84.5292 10.344C86.6172 10.344 88.4652 10.776 90.0732 11.64C91.7052 12.504 92.9772 13.692 93.8892 15.204C94.8252 16.692 95.2932 18.408 95.2932 20.352C95.2932 22.296 94.8252 24.024 93.8892 25.536C92.9772 27.024 91.7052 28.2 90.0732 29.064C88.4652 29.928 86.6172 30.36 84.5292 30.36ZM84.5292 24.24C85.1772 24.24 85.7532 24.072 86.2572 23.736C86.7852 23.4 87.1932 22.944 87.4812 22.368C87.7692 21.768 87.9132 21.096 87.9132 20.352C87.9132 19.584 87.7692 18.912 87.4812 18.336C87.1932 17.736 86.7852 17.268 86.2572 16.932C85.7532 16.596 85.1772 16.428 84.5292 16.428C83.8572 16.428 83.2572 16.596 82.7292 16.932C82.2252 17.268 81.8172 17.736 81.5052 18.336C81.2172 18.912 81.0732 19.584 81.0732 20.352C81.0732 21.096 81.2172 21.768 81.5052 22.368C81.8172 22.944 82.2252 23.4 82.7292 23.736C83.2572 24.072 83.8572 24.24 84.5292 24.24ZM103.412 30L95.4195 10.74H103.556L107.552 25.104H105.608L109.568 10.74H117.704L109.316 30H103.412ZM119.896 30V10.74H127.204V30H119.896ZM123.568 7.248C122.272 7.248 121.252 6.948 120.508 6.348C119.788 5.748 119.428 4.896 119.428 3.792C119.428 2.784 119.8 1.956 120.544 1.308C121.288 0.659998 122.296 0.335998 123.568 0.335998C124.864 0.335998 125.872 0.635998 126.592 1.236C127.336 1.836 127.708 2.688 127.708 3.792C127.708 4.8 127.336 5.628 126.592 6.276C125.848 6.924 124.84 7.248 123.568 7.248ZM138.35 30.36C136.262 30.36 134.438 30.048 132.878 29.424C131.342 28.776 130.142 27.972 129.278 27.012L133.526 23.376C134.294 24.048 135.17 24.552 136.154 24.888C137.162 25.2 138.002 25.356 138.674 25.356C138.914 25.356 139.118 25.344 139.286 25.32C139.478 25.272 139.622 25.212 139.718 25.14C139.838 25.044 139.922 24.948 139.97 24.852C140.042 24.756 140.078 24.636 140.078 24.492C140.078 24.132 139.886 23.868 139.502 23.7C139.286 23.604 138.926 23.484 138.422 23.34C137.942 23.196 137.306 23.028 136.514 22.836C135.578 22.596 134.714 22.296 133.922 21.936C133.154 21.576 132.494 21.156 131.942 20.676C131.366 20.148 130.91 19.548 130.574 18.876C130.262 18.204 130.106 17.448 130.106 16.608C130.106 15.624 130.334 14.748 130.79 13.98C131.246 13.212 131.87 12.564 132.662 12.036C133.454 11.484 134.342 11.064 135.326 10.776C136.31 10.488 137.318 10.344 138.35 10.344C139.526 10.344 140.618 10.464 141.626 10.704C142.658 10.92 143.618 11.244 144.506 11.676C145.418 12.084 146.246 12.576 146.99 13.152L143.282 17.292C142.874 16.956 142.394 16.632 141.842 16.32C141.314 16.008 140.75 15.756 140.15 15.564C139.574 15.348 139.034 15.24 138.53 15.24C138.266 15.24 138.038 15.264 137.846 15.312C137.678 15.336 137.534 15.396 137.414 15.492C137.294 15.564 137.198 15.66 137.126 15.78C137.078 15.876 137.054 15.996 137.054 16.14C137.054 16.332 137.114 16.512 137.234 16.68C137.354 16.848 137.546 16.992 137.81 17.112C138.026 17.208 138.386 17.34 138.89 17.508C139.418 17.676 140.186 17.904 141.194 18.192C142.274 18.504 143.222 18.864 144.038 19.272C144.878 19.68 145.55 20.16 146.054 20.712C146.39 21.096 146.654 21.528 146.846 22.008C147.038 22.488 147.134 23.004 147.134 23.556C147.134 24.876 146.75 26.052 145.982 27.084C145.238 28.092 144.206 28.896 142.886 29.496C141.566 30.072 140.054 30.36 138.35 30.36ZM158.792 30.36C156.704 30.36 154.844 29.928 153.212 29.064C151.58 28.2 150.296 27.024 149.36 25.536C148.424 24.024 147.956 22.296 147.956 20.352C147.956 18.408 148.424 16.692 149.36 15.204C150.296 13.692 151.58 12.504 153.212 11.64C154.844 10.776 156.704 10.344 158.792 10.344C160.88 10.344 162.728 10.776 164.336 11.64C165.968 12.504 167.24 13.692 168.152 15.204C169.088 16.692 169.556 18.408 169.556 20.352C169.556 22.296 169.088 24.024 168.152 25.536C167.24 27.024 165.968 28.2 164.336 29.064C162.728 29.928 160.88 30.36 158.792 30.36ZM158.792 24.24C159.44 24.24 160.016 24.072 160.52 23.736C161.048 23.4 161.456 22.944 161.744 22.368C162.032 21.768 162.176 21.096 162.176 20.352C162.176 19.584 162.032 18.912 161.744 18.336C161.456 17.736 161.048 17.268 160.52 16.932C160.016 16.596 159.44 16.428 158.792 16.428C158.12 16.428 157.52 16.596 156.992 16.932C156.488 17.268 156.08 17.736 155.768 18.336C155.48 18.912 155.336 19.584 155.336 20.352C155.336 21.096 155.48 21.768 155.768 22.368C156.08 22.944 156.488 23.4 156.992 23.736C157.52 24.072 158.12 24.24 158.792 24.24ZM172.55 30V10.74H179.318L179.75 17.148L178.13 16.14C178.442 15.036 178.934 14.052 179.606 13.188C180.278 12.3 181.082 11.604 182.018 11.1C182.978 10.596 183.998 10.344 185.078 10.344C185.51 10.344 185.918 10.38 186.302 10.452C186.686 10.5 187.058 10.572 187.418 10.668L185.402 18.768C185.162 18.6 184.778 18.444 184.25 18.3C183.746 18.156 183.194 18.084 182.594 18.084C182.162 18.084 181.766 18.156 181.406 18.3C181.07 18.42 180.782 18.612 180.542 18.876C180.326 19.14 180.158 19.452 180.038 19.812C179.918 20.172 179.858 20.592 179.858 21.072V30H172.55Z" fill="#005AE0"/>
</g>
<defs>
<filter id="filter0_d_75_9211" x="0.379883" y="0.335999" width="191.038" height="38.06" filterUnits="userSpaceOnUse" color-interpolation-filters="sRGB">
<feFlood flood-opacity="0" result="BackgroundImageFix"/>
<feColorMatrix in="SourceAlpha" type="matrix" values="0 0 0 0 0 0 0 0 0 0 0 0 0 0 0 0 0 0 127 0" result="hardAlpha"/>
<feOffset dy="4"/>
<feGaussianBlur stdDeviation="2"/>
<feComposite in2="hardAlpha" operator="out"/>
<feColorMatrix type="matrix" values="0 0 0 0 1 0 0 0 0 1 0 0 0 0 1 0 0 0 1 0"/>
<feBlend mode="normal" in2="BackgroundImageFix" result="effect1_dropShadow_75_9211"/>
<feBlend mode="normal" in="SourceGraphic" in2="effect1_dropShadow_75_9211" result="shape"/>
</filter>
</defs>
</svg>
