<svg width="451" height="553" viewBox="0 0 451 553" fill="none" xmlns="http://www.w3.org/2000/svg">
<path d="M41.44 68L35.04 56.88H31.56V68H27V40.2H36.6C38.7333 40.2 40.5333 40.5733 42 41.32C43.4933 42.0667 44.6 43.0667 45.32 44.32C46.0667 45.5733 46.44 46.9733 46.44 48.52C46.44 50.3333 45.9067 51.9867 44.84 53.48C43.8 54.9467 42.1867 55.9467 40 56.48L46.88 68H41.44ZM31.56 53.24H36.6C38.3067 53.24 39.5867 52.8133 40.44 51.96C41.32 51.1067 41.76 49.96 41.76 48.52C41.76 47.08 41.3333 45.96 40.48 45.16C39.6267 44.3333 38.3333 43.92 36.6 43.92H31.56V53.24ZM63.4334 68.36C61.3534 68.36 59.4734 67.8933 57.7934 66.96C56.1134 66 54.7934 64.6667 53.8334 62.96C52.8734 61.2267 52.3934 59.2267 52.3934 56.96C52.3934 54.72 52.8868 52.7333 53.8734 51C54.8601 49.2667 56.2068 47.9333 57.9134 47C59.6201 46.0667 61.5268 45.6 63.6334 45.6C65.7401 45.6 67.6468 46.0667 69.3534 47C71.0601 47.9333 72.4068 49.2667 73.3934 51C74.3801 52.7333 74.8734 54.72 74.8734 56.96C74.8734 59.2 74.3668 61.1867 73.3534 62.92C72.3401 64.6533 70.9534 66 69.1934 66.96C67.4601 67.8933 65.5401 68.36 63.4334 68.36ZM63.4334 64.4C64.6068 64.4 65.7001 64.12 66.7134 63.56C67.7534 63 68.5934 62.16 69.2334 61.04C69.8734 59.92 70.1934 58.56 70.1934 56.96C70.1934 55.36 69.8868 54.0133 69.2734 52.92C68.6601 51.8 67.8468 50.96 66.8334 50.4C65.8201 49.84 64.7268 49.56 63.5534 49.56C62.3801 49.56 61.2868 49.84 60.2734 50.4C59.2868 50.96 58.5001 51.8 57.9134 52.92C57.3268 54.0133 57.0334 55.36 57.0334 56.96C57.0334 59.3333 57.6334 61.1733 58.8334 62.48C60.0601 63.76 61.5934 64.4 63.4334 64.4ZM85.5413 49.24C86.3146 48.1733 87.3679 47.3067 88.7013 46.64C90.0613 45.9467 91.5679 45.6 93.2213 45.6C95.1679 45.6 96.9279 46.0667 98.5013 47C100.075 47.9333 101.315 49.2667 102.221 51C103.128 52.7067 103.581 54.6667 103.581 56.88C103.581 59.0933 103.128 61.08 102.221 62.84C101.315 64.5733 100.061 65.9333 98.4613 66.92C96.8879 67.88 95.1413 68.36 93.2213 68.36C91.5146 68.36 89.9946 68.0267 88.6613 67.36C87.3546 66.6933 86.3146 65.84 85.5413 64.8V68H80.9813V38.4H85.5413V49.24ZM98.9413 56.88C98.9413 55.36 98.6213 54.0533 97.9813 52.96C97.3679 51.84 96.5413 51 95.5013 50.44C94.4879 49.8533 93.3946 49.56 92.2213 49.56C91.0746 49.56 89.9813 49.8533 88.9413 50.44C87.9279 51.0267 87.1013 51.88 86.4613 53C85.8479 54.12 85.5413 55.44 85.5413 56.96C85.5413 58.48 85.8479 59.8133 86.4613 60.96C87.1013 62.08 87.9279 62.9333 88.9413 63.52C89.9813 64.1067 91.0746 64.4 92.2213 64.4C93.3946 64.4 94.4879 64.1067 95.5013 63.52C96.5413 62.9067 97.3679 62.0267 97.9813 60.88C98.6213 59.7333 98.9413 58.4 98.9413 56.88ZM119.251 68.36C117.171 68.36 115.291 67.8933 113.611 66.96C111.931 66 110.611 64.6667 109.651 62.96C108.691 61.2267 108.211 59.2267 108.211 56.96C108.211 54.72 108.704 52.7333 109.691 51C110.677 49.2667 112.024 47.9333 113.731 47C115.437 46.0667 117.344 45.6 119.451 45.6C121.557 45.6 123.464 46.0667 125.171 47C126.877 47.9333 128.224 49.2667 129.211 51C130.197 52.7333 130.691 54.72 130.691 56.96C130.691 59.2 130.184 61.1867 129.171 62.92C128.157 64.6533 126.771 66 125.011 66.96C123.277 67.8933 121.357 68.36 119.251 68.36ZM119.251 64.4C120.424 64.4 121.517 64.12 122.531 63.56C123.571 63 124.411 62.16 125.051 61.04C125.691 59.92 126.011 58.56 126.011 56.96C126.011 55.36 125.704 54.0133 125.091 52.92C124.477 51.8 123.664 50.96 122.651 50.4C121.637 49.84 120.544 49.56 119.371 49.56C118.197 49.56 117.104 49.84 116.091 50.4C115.104 50.96 114.317 51.8 113.731 52.92C113.144 54.0133 112.851 55.36 112.851 56.96C112.851 59.3333 113.451 61.1733 114.651 62.48C115.877 63.76 117.411 64.4 119.251 64.4ZM145.318 63.92L151.558 45.96H156.398L147.998 68H142.558L134.198 45.96H139.078L145.318 63.92ZM163.765 43.04C162.939 43.04 162.245 42.76 161.685 42.2C161.125 41.64 160.845 40.9467 160.845 40.12C160.845 39.2933 161.125 38.6 161.685 38.04C162.245 37.48 162.939 37.2 163.765 37.2C164.565 37.2 165.245 37.48 165.805 38.04C166.365 38.6 166.645 39.2933 166.645 40.12C166.645 40.9467 166.365 41.64 165.805 42.2C165.245 42.76 164.565 43.04 163.765 43.04ZM166.005 45.96V68H161.445V45.96H166.005ZM181.592 68.36C179.859 68.36 178.299 68.0533 176.912 67.44C175.552 66.8 174.472 65.9467 173.672 64.88C172.872 63.7867 172.446 62.5733 172.392 61.24H177.112C177.192 62.1733 177.632 62.96 178.432 63.6C179.259 64.2133 180.286 64.52 181.512 64.52C182.792 64.52 183.779 64.28 184.472 63.8C185.192 63.2933 185.552 62.6533 185.552 61.88C185.552 61.0533 185.152 60.44 184.352 60.04C183.579 59.64 182.339 59.2 180.632 58.72C178.979 58.2667 177.632 57.8267 176.592 57.4C175.552 56.9733 174.646 56.32 173.872 55.44C173.126 54.56 172.752 53.4 172.752 51.96C172.752 50.7867 173.099 49.72 173.792 48.76C174.486 47.7733 175.472 47 176.752 46.44C178.059 45.88 179.552 45.6 181.232 45.6C183.739 45.6 185.752 46.24 187.272 47.52C188.819 48.7733 189.646 50.4933 189.752 52.68H185.192C185.112 51.6933 184.712 50.9067 183.992 50.32C183.272 49.7333 182.299 49.44 181.072 49.44C179.872 49.44 178.952 49.6667 178.312 50.12C177.672 50.5733 177.352 51.1733 177.352 51.92C177.352 52.5067 177.566 53 177.992 53.4C178.419 53.8 178.939 54.12 179.552 54.36C180.166 54.5733 181.072 54.8533 182.272 55.2C183.872 55.6267 185.179 56.0667 186.192 56.52C187.232 56.9467 188.126 57.5867 188.872 58.44C189.619 59.2933 190.006 60.4267 190.032 61.84C190.032 63.0933 189.686 64.2133 188.992 65.2C188.299 66.1867 187.312 66.96 186.032 67.52C184.779 68.08 183.299 68.36 181.592 68.36ZM206.119 68.36C204.039 68.36 202.159 67.8933 200.479 66.96C198.799 66 197.479 64.6667 196.519 62.96C195.559 61.2267 195.079 59.2267 195.079 56.96C195.079 54.72 195.573 52.7333 196.559 51C197.546 49.2667 198.893 47.9333 200.599 47C202.306 46.0667 204.213 45.6 206.319 45.6C208.426 45.6 210.333 46.0667 212.039 47C213.746 47.9333 215.093 49.2667 216.079 51C217.066 52.7333 217.559 54.72 217.559 56.96C217.559 59.2 217.053 61.1867 216.039 62.92C215.026 64.6533 213.639 66 211.879 66.96C210.146 67.8933 208.226 68.36 206.119 68.36ZM206.119 64.4C207.293 64.4 208.386 64.12 209.399 63.56C210.439 63 211.279 62.16 211.919 61.04C212.559 59.92 212.879 58.56 212.879 56.96C212.879 55.36 212.573 54.0133 211.959 52.92C211.346 51.8 210.533 50.96 209.519 50.4C208.506 49.84 207.413 49.56 206.239 49.56C205.066 49.56 203.973 49.84 202.959 50.4C201.973 50.96 201.186 51.8 200.599 52.92C200.013 54.0133 199.719 55.36 199.719 56.96C199.719 59.3333 200.319 61.1733 201.519 62.48C202.746 63.76 204.279 64.4 206.119 64.4ZM228.227 49.16C228.894 48.04 229.774 47.1733 230.867 46.56C231.987 45.92 233.307 45.6 234.827 45.6V50.32H233.667C231.881 50.32 230.521 50.7733 229.587 51.68C228.681 52.5867 228.227 54.16 228.227 56.4V68H223.667V45.96H228.227V49.16Z" fill="#262626"/>
<path d="M35.25 121H33.612L27.024 111.01V121H25.386V108.436H27.024L33.612 118.408V108.436H35.25V121ZM48.4823 115.69C48.4823 116.002 48.4643 116.332 48.4283 116.68H40.5443C40.6043 117.652 40.9343 118.414 41.5343 118.966C42.1463 119.506 42.8843 119.776 43.7483 119.776C44.4563 119.776 45.0443 119.614 45.5123 119.29C45.9923 118.954 46.3283 118.51 46.5203 117.958H48.2843C48.0203 118.906 47.4923 119.68 46.7003 120.28C45.9083 120.868 44.9243 121.162 43.7483 121.162C42.8123 121.162 41.9723 120.952 41.2283 120.532C40.4963 120.112 39.9203 119.518 39.5003 118.75C39.0803 117.97 38.8703 117.07 38.8703 116.05C38.8703 115.03 39.0743 114.136 39.4823 113.368C39.8903 112.6 40.4603 112.012 41.1923 111.604C41.9363 111.184 42.7883 110.974 43.7483 110.974C44.6843 110.974 45.5123 111.178 46.2323 111.586C46.9523 111.994 47.5043 112.558 47.8883 113.278C48.2843 113.986 48.4823 114.79 48.4823 115.69ZM46.7903 115.348C46.7903 114.724 46.6523 114.19 46.3763 113.746C46.1003 113.29 45.7223 112.948 45.2423 112.72C44.7743 112.48 44.2523 112.36 43.6763 112.36C42.8483 112.36 42.1403 112.624 41.5523 113.152C40.9763 113.68 40.6463 114.412 40.5623 115.348H46.7903ZM57.2324 121L54.8924 117.328L52.6424 121H50.9324L54.1184 116.104L50.9324 111.136H52.7864L55.1264 114.79L57.3584 111.136H59.0684L55.9004 116.014L59.0864 121H57.2324ZM64.1356 112.486V118.3C64.1356 118.78 64.2376 119.122 64.4416 119.326C64.6456 119.518 64.9996 119.614 65.5036 119.614H66.7096V121H65.2336C64.3216 121 63.6376 120.79 63.1816 120.37C62.7256 119.95 62.4976 119.26 62.4976 118.3V112.486H61.2196V111.136H62.4976V108.652H64.1356V111.136H66.7096V112.486H64.1356ZM76.9743 113.71V115.096H69.7923V113.71H76.9743ZM90.9923 112.09C90.6443 111.358 90.1403 110.794 89.4803 110.398C88.8203 109.99 88.0523 109.786 87.1763 109.786C86.3003 109.786 85.5083 109.99 84.8003 110.398C84.1043 110.794 83.5523 111.37 83.1443 112.126C82.7483 112.87 82.5503 113.734 82.5503 114.718C82.5503 115.702 82.7483 116.566 83.1443 117.31C83.5523 118.054 84.1043 118.63 84.8003 119.038C85.5083 119.434 86.3003 119.632 87.1763 119.632C88.4003 119.632 89.4083 119.266 90.2003 118.534C90.9923 117.802 91.4543 116.812 91.5863 115.564H86.5823V114.232H93.3323V115.492C93.2363 116.524 92.9123 117.472 92.3603 118.336C91.8083 119.188 91.0823 119.866 90.1823 120.37C89.2823 120.862 88.2803 121.108 87.1763 121.108C86.0123 121.108 84.9503 120.838 83.9903 120.298C83.0303 119.746 82.2683 118.984 81.7043 118.012C81.1523 117.04 80.8763 115.942 80.8763 114.718C80.8763 113.494 81.1523 112.396 81.7043 111.424C82.2683 110.44 83.0303 109.678 83.9903 109.138C84.9503 108.586 86.0123 108.31 87.1763 108.31C88.5083 108.31 89.6843 108.64 90.7043 109.3C91.7363 109.96 92.4863 110.89 92.9543 112.09H90.9923ZM105.938 115.69C105.938 116.002 105.92 116.332 105.884 116.68H98.0001C98.0601 117.652 98.3901 118.414 98.9901 118.966C99.6021 119.506 100.34 119.776 101.204 119.776C101.912 119.776 102.5 119.614 102.968 119.29C103.448 118.954 103.784 118.51 103.976 117.958H105.74C105.476 118.906 104.948 119.68 104.156 120.28C103.364 120.868 102.38 121.162 101.204 121.162C100.268 121.162 99.4281 120.952 98.6841 120.532C97.9521 120.112 97.3761 119.518 96.9561 118.75C96.5361 117.97 96.3261 117.07 96.3261 116.05C96.3261 115.03 96.5301 114.136 96.9381 113.368C97.3461 112.6 97.9161 112.012 98.6481 111.604C99.3921 111.184 100.244 110.974 101.204 110.974C102.14 110.974 102.968 111.178 103.688 111.586C104.408 111.994 104.96 112.558 105.344 113.278C105.74 113.986 105.938 114.79 105.938 115.69ZM104.246 115.348C104.246 114.724 104.108 114.19 103.832 113.746C103.556 113.29 103.178 112.948 102.698 112.72C102.23 112.48 101.708 112.36 101.132 112.36C100.304 112.36 99.5961 112.624 99.0081 113.152C98.4321 113.68 98.1021 114.412 98.0181 115.348H104.246ZM114.346 110.956C115.546 110.956 116.518 111.322 117.262 112.054C118.006 112.774 118.378 113.818 118.378 115.186V121H116.758V115.42C116.758 114.436 116.512 113.686 116.02 113.17C115.528 112.642 114.856 112.378 114.004 112.378C113.14 112.378 112.45 112.648 111.934 113.188C111.43 113.728 111.178 114.514 111.178 115.546V121H109.54V111.136H111.178V112.54C111.502 112.036 111.94 111.646 112.492 111.37C113.056 111.094 113.674 110.956 114.346 110.956ZM137.121 112.126C137.121 113.17 136.761 114.04 136.041 114.736C135.333 115.42 134.247 115.762 132.783 115.762H130.371V121H128.733V108.454H132.783C134.199 108.454 135.273 108.796 136.005 109.48C136.749 110.164 137.121 111.046 137.121 112.126ZM132.783 114.412C133.695 114.412 134.367 114.214 134.799 113.818C135.231 113.422 135.447 112.858 135.447 112.126C135.447 110.578 134.559 109.804 132.783 109.804H130.371V114.412H132.783ZM142.235 112.738C142.523 112.174 142.931 111.736 143.459 111.424C143.999 111.112 144.653 110.956 145.421 110.956V112.648H144.989C143.153 112.648 142.235 113.644 142.235 115.636V121H140.597V111.136H142.235V112.738ZM153.053 121.162C152.129 121.162 151.289 120.952 150.533 120.532C149.789 120.112 149.201 119.518 148.769 118.75C148.349 117.97 148.139 117.07 148.139 116.05C148.139 115.042 148.355 114.154 148.787 113.386C149.231 112.606 149.831 112.012 150.587 111.604C151.343 111.184 152.189 110.974 153.125 110.974C154.061 110.974 154.907 111.184 155.663 111.604C156.419 112.012 157.013 112.6 157.445 113.368C157.889 114.136 158.111 115.03 158.111 116.05C158.111 117.07 157.883 117.97 157.427 118.75C156.983 119.518 156.377 120.112 155.609 120.532C154.841 120.952 153.989 121.162 153.053 121.162ZM153.053 119.722C153.641 119.722 154.193 119.584 154.709 119.308C155.225 119.032 155.639 118.618 155.951 118.066C156.275 117.514 156.437 116.842 156.437 116.05C156.437 115.258 156.281 114.586 155.969 114.034C155.657 113.482 155.249 113.074 154.745 112.81C154.241 112.534 153.695 112.396 153.107 112.396C152.507 112.396 151.955 112.534 151.451 112.81C150.959 113.074 150.563 113.482 150.263 114.034C149.963 114.586 149.813 115.258 149.813 116.05C149.813 116.854 149.957 117.532 150.245 118.084C150.545 118.636 150.941 119.05 151.433 119.326C151.925 119.59 152.465 119.722 153.053 119.722ZM163.343 112.954C163.667 112.39 164.147 111.922 164.783 111.55C165.431 111.166 166.181 110.974 167.033 110.974C167.909 110.974 168.701 111.184 169.409 111.604C170.129 112.024 170.693 112.618 171.101 113.386C171.509 114.142 171.713 115.024 171.713 116.032C171.713 117.028 171.509 117.916 171.101 118.696C170.693 119.476 170.129 120.082 169.409 120.514C168.701 120.946 167.909 121.162 167.033 121.162C166.193 121.162 165.449 120.976 164.801 120.604C164.165 120.22 163.679 119.746 163.343 119.182V125.68H161.705V111.136H163.343V112.954ZM170.039 116.032C170.039 115.288 169.889 114.64 169.589 114.088C169.289 113.536 168.881 113.116 168.365 112.828C167.861 112.54 167.303 112.396 166.691 112.396C166.091 112.396 165.533 112.546 165.017 112.846C164.513 113.134 164.105 113.56 163.793 114.124C163.493 114.676 163.343 115.318 163.343 116.05C163.343 116.794 163.493 117.448 163.793 118.012C164.105 118.564 164.513 118.99 165.017 119.29C165.533 119.578 166.091 119.722 166.691 119.722C167.303 119.722 167.861 119.578 168.365 119.29C168.881 118.99 169.289 118.564 169.589 118.012C169.889 117.448 170.039 116.788 170.039 116.032ZM189.27 108.454V109.786H185.85V121H184.212V109.786H180.774V108.454H189.27ZM194.364 112.738C194.652 112.174 195.06 111.736 195.588 111.424C196.128 111.112 196.782 110.956 197.55 110.956V112.648H197.118C195.282 112.648 194.364 113.644 194.364 115.636V121H192.726V111.136H194.364V112.738ZM200.269 116.032C200.269 115.024 200.473 114.142 200.881 113.386C201.289 112.618 201.847 112.024 202.555 111.604C203.275 111.184 204.073 110.974 204.949 110.974C205.813 110.974 206.563 111.16 207.199 111.532C207.835 111.904 208.309 112.372 208.621 112.936V111.136H210.277V121H208.621V119.164C208.297 119.74 207.811 120.22 207.163 120.604C206.527 120.976 205.783 121.162 204.931 121.162C204.055 121.162 203.263 120.946 202.555 120.514C201.847 120.082 201.289 119.476 200.881 118.696C200.473 117.916 200.269 117.028 200.269 116.032ZM208.621 116.05C208.621 115.306 208.471 114.658 208.171 114.106C207.871 113.554 207.463 113.134 206.947 112.846C206.443 112.546 205.885 112.396 205.273 112.396C204.661 112.396 204.103 112.54 203.599 112.828C203.095 113.116 202.693 113.536 202.393 114.088C202.093 114.64 201.943 115.288 201.943 116.032C201.943 116.788 202.093 117.448 202.393 118.012C202.693 118.564 203.095 118.99 203.599 119.29C204.103 119.578 204.661 119.722 205.273 119.722C205.885 119.722 206.443 119.578 206.947 119.29C207.463 118.99 207.871 118.564 208.171 118.012C208.471 117.448 208.621 116.794 208.621 116.05ZM213.873 116.032C213.873 115.024 214.077 114.142 214.485 113.386C214.893 112.618 215.451 112.024 216.159 111.604C216.879 111.184 217.683 110.974 218.571 110.974C219.339 110.974 220.053 111.154 220.713 111.514C221.373 111.862 221.877 112.324 222.225 112.9V107.68H223.881V121H222.225V119.146C221.901 119.734 221.421 120.22 220.785 120.604C220.149 120.976 219.405 121.162 218.553 121.162C217.677 121.162 216.879 120.946 216.159 120.514C215.451 120.082 214.893 119.476 214.485 118.696C214.077 117.916 213.873 117.028 213.873 116.032ZM222.225 116.05C222.225 115.306 222.075 114.658 221.775 114.106C221.475 113.554 221.067 113.134 220.551 112.846C220.047 112.546 219.489 112.396 218.877 112.396C218.265 112.396 217.707 112.54 217.203 112.828C216.699 113.116 216.297 113.536 215.997 114.088C215.697 114.64 215.547 115.288 215.547 116.032C215.547 116.788 215.697 117.448 215.997 118.012C216.297 118.564 216.699 118.99 217.203 119.29C217.707 119.578 218.265 119.722 218.877 119.722C219.489 119.722 220.047 119.578 220.551 119.29C221.067 118.99 221.475 118.564 221.775 118.012C222.075 117.448 222.225 116.794 222.225 116.05ZM228.935 109.534C228.623 109.534 228.359 109.426 228.143 109.21C227.927 108.994 227.819 108.73 227.819 108.418C227.819 108.106 227.927 107.842 228.143 107.626C228.359 107.41 228.623 107.302 228.935 107.302C229.235 107.302 229.487 107.41 229.691 107.626C229.907 107.842 230.015 108.106 230.015 108.418C230.015 108.73 229.907 108.994 229.691 109.21C229.487 109.426 229.235 109.534 228.935 109.534ZM229.727 111.136V121H228.089V111.136H229.727ZM238.765 110.956C239.965 110.956 240.937 111.322 241.681 112.054C242.425 112.774 242.797 113.818 242.797 115.186V121H241.177V115.42C241.177 114.436 240.931 113.686 240.439 113.17C239.947 112.642 239.275 112.378 238.423 112.378C237.559 112.378 236.869 112.648 236.353 113.188C235.849 113.728 235.597 114.514 235.597 115.546V121H233.959V111.136H235.597V112.54C235.921 112.036 236.359 111.646 236.911 111.37C237.475 111.094 238.093 110.956 238.765 110.956ZM250.981 110.974C251.833 110.974 252.577 111.16 253.213 111.532C253.861 111.904 254.341 112.372 254.653 112.936V111.136H256.309V121.216C256.309 122.116 256.117 122.914 255.733 123.61C255.349 124.318 254.797 124.87 254.077 125.266C253.369 125.662 252.541 125.86 251.593 125.86C250.297 125.86 249.217 125.554 248.353 124.942C247.489 124.33 246.979 123.496 246.823 122.44H248.443C248.623 123.04 248.995 123.52 249.559 123.88C250.123 124.252 250.801 124.438 251.593 124.438C252.493 124.438 253.225 124.156 253.789 123.592C254.365 123.028 254.653 122.236 254.653 121.216V119.146C254.329 119.722 253.849 120.202 253.213 120.586C252.577 120.97 251.833 121.162 250.981 121.162C250.105 121.162 249.307 120.946 248.587 120.514C247.879 120.082 247.321 119.476 246.913 118.696C246.505 117.916 246.301 117.028 246.301 116.032C246.301 115.024 246.505 114.142 246.913 113.386C247.321 112.618 247.879 112.024 248.587 111.604C249.307 111.184 250.105 110.974 250.981 110.974ZM254.653 116.05C254.653 115.306 254.503 114.658 254.203 114.106C253.903 113.554 253.495 113.134 252.979 112.846C252.475 112.546 251.917 112.396 251.305 112.396C250.693 112.396 250.135 112.54 249.631 112.828C249.127 113.116 248.725 113.536 248.425 114.088C248.125 114.64 247.975 115.288 247.975 116.032C247.975 116.788 248.125 117.448 248.425 118.012C248.725 118.564 249.127 118.99 249.631 119.29C250.135 119.578 250.693 119.722 251.305 119.722C251.917 119.722 252.475 119.578 252.979 119.29C253.495 118.99 253.903 118.564 254.203 118.012C254.503 117.448 254.653 116.794 254.653 116.05ZM268.393 112.954C268.717 112.39 269.197 111.922 269.833 111.55C270.481 111.166 271.231 110.974 272.083 110.974C272.959 110.974 273.751 111.184 274.459 111.604C275.179 112.024 275.743 112.618 276.151 113.386C276.559 114.142 276.763 115.024 276.763 116.032C276.763 117.028 276.559 117.916 276.151 118.696C275.743 119.476 275.179 120.082 274.459 120.514C273.751 120.946 272.959 121.162 272.083 121.162C271.243 121.162 270.499 120.976 269.851 120.604C269.215 120.22 268.729 119.746 268.393 119.182V125.68H266.755V111.136H268.393V112.954ZM275.089 116.032C275.089 115.288 274.939 114.64 274.639 114.088C274.339 113.536 273.931 113.116 273.415 112.828C272.911 112.54 272.353 112.396 271.741 112.396C271.141 112.396 270.583 112.546 270.067 112.846C269.563 113.134 269.155 113.56 268.843 114.124C268.543 114.676 268.393 115.318 268.393 116.05C268.393 116.794 268.543 117.448 268.843 118.012C269.155 118.564 269.563 118.99 270.067 119.29C270.583 119.578 271.141 119.722 271.741 119.722C272.353 119.722 272.911 119.578 273.415 119.29C273.931 118.99 274.339 118.564 274.639 118.012C274.939 117.448 275.089 116.788 275.089 116.032ZM281.998 107.68V121H280.36V107.68H281.998ZM285.617 116.032C285.617 115.024 285.821 114.142 286.229 113.386C286.637 112.618 287.195 112.024 287.903 111.604C288.623 111.184 289.421 110.974 290.297 110.974C291.161 110.974 291.911 111.16 292.547 111.532C293.183 111.904 293.657 112.372 293.969 112.936V111.136H295.625V121H293.969V119.164C293.645 119.74 293.159 120.22 292.511 120.604C291.875 120.976 291.131 121.162 290.279 121.162C289.403 121.162 288.611 120.946 287.903 120.514C287.195 120.082 286.637 119.476 286.229 118.696C285.821 117.916 285.617 117.028 285.617 116.032ZM293.969 116.05C293.969 115.306 293.819 114.658 293.519 114.106C293.219 113.554 292.811 113.134 292.295 112.846C291.791 112.546 291.233 112.396 290.621 112.396C290.009 112.396 289.451 112.54 288.947 112.828C288.443 113.116 288.041 113.536 287.741 114.088C287.441 114.64 287.291 115.288 287.291 116.032C287.291 116.788 287.441 117.448 287.741 118.012C288.041 118.564 288.443 118.99 288.947 119.29C289.451 119.578 290.009 119.722 290.621 119.722C291.233 119.722 291.791 119.578 292.295 119.29C292.811 118.99 293.219 118.564 293.519 118.012C293.819 117.448 293.969 116.794 293.969 116.05ZM301.831 112.486V118.3C301.831 118.78 301.933 119.122 302.137 119.326C302.341 119.518 302.695 119.614 303.199 119.614H304.405V121H302.929C302.017 121 301.333 120.79 300.877 120.37C300.421 119.95 300.193 119.26 300.193 118.3V112.486H298.915V111.136H300.193V108.652H301.831V111.136H304.405V112.486H301.831ZM311.844 112.486H309.774V121H308.136V112.486H306.858V111.136H308.136V110.434C308.136 109.33 308.418 108.526 308.982 108.022C309.558 107.506 310.476 107.248 311.736 107.248V108.616C311.016 108.616 310.506 108.76 310.206 109.048C309.918 109.324 309.774 109.786 309.774 110.434V111.136H311.844V112.486ZM319.496 121.162C318.572 121.162 317.732 120.952 316.976 120.532C316.232 120.112 315.644 119.518 315.212 118.75C314.792 117.97 314.582 117.07 314.582 116.05C314.582 115.042 314.798 114.154 315.23 113.386C315.674 112.606 316.274 112.012 317.03 111.604C317.786 111.184 318.632 110.974 319.568 110.974C320.504 110.974 321.35 111.184 322.106 111.604C322.862 112.012 323.456 112.6 323.888 113.368C324.332 114.136 324.554 115.03 324.554 116.05C324.554 117.07 324.326 117.97 323.87 118.75C323.426 119.518 322.82 120.112 322.052 120.532C321.284 120.952 320.432 121.162 319.496 121.162ZM319.496 119.722C320.084 119.722 320.636 119.584 321.152 119.308C321.668 119.032 322.082 118.618 322.394 118.066C322.718 117.514 322.88 116.842 322.88 116.05C322.88 115.258 322.724 114.586 322.412 114.034C322.1 113.482 321.692 113.074 321.188 112.81C320.684 112.534 320.138 112.396 319.55 112.396C318.95 112.396 318.398 112.534 317.894 112.81C317.402 113.074 317.006 113.482 316.706 114.034C316.406 114.586 316.256 115.258 316.256 116.05C316.256 116.854 316.4 117.532 316.688 118.084C316.988 118.636 317.384 119.05 317.876 119.326C318.368 119.59 318.908 119.722 319.496 119.722ZM329.785 112.738C330.073 112.174 330.481 111.736 331.009 111.424C331.549 111.112 332.203 110.956 332.971 110.956V112.648H332.539C330.703 112.648 329.785 113.644 329.785 115.636V121H328.147V111.136H329.785V112.738ZM348.164 110.956C348.932 110.956 349.616 111.118 350.216 111.442C350.816 111.754 351.29 112.228 351.638 112.864C351.986 113.5 352.16 114.274 352.16 115.186V121H350.54V115.42C350.54 114.436 350.294 113.686 349.802 113.17C349.322 112.642 348.668 112.378 347.84 112.378C346.988 112.378 346.31 112.654 345.806 113.206C345.302 113.746 345.05 114.532 345.05 115.564V121H343.43V115.42C343.43 114.436 343.184 113.686 342.692 113.17C342.212 112.642 341.558 112.378 340.73 112.378C339.878 112.378 339.2 112.654 338.696 113.206C338.192 113.746 337.94 114.532 337.94 115.564V121H336.302V111.136H337.94V112.558C338.264 112.042 338.696 111.646 339.236 111.37C339.788 111.094 340.394 110.956 341.054 110.956C341.882 110.956 342.614 111.142 343.25 111.514C343.886 111.886 344.36 112.432 344.672 113.152C344.948 112.456 345.404 111.916 346.04 111.532C346.676 111.148 347.384 110.956 348.164 110.956ZM364.164 112.972C364.5 112.384 364.992 111.904 365.64 111.532C366.288 111.16 367.026 110.974 367.854 110.974C368.742 110.974 369.54 111.184 370.248 111.604C370.956 112.024 371.514 112.618 371.922 113.386C372.33 114.142 372.534 115.024 372.534 116.032C372.534 117.028 372.33 117.916 371.922 118.696C371.514 119.476 370.95 120.082 370.23 120.514C369.522 120.946 368.73 121.162 367.854 121.162C367.002 121.162 366.252 120.976 365.604 120.604C364.968 120.232 364.488 119.758 364.164 119.182V121H362.526V107.68H364.164V112.972ZM370.86 116.032C370.86 115.288 370.71 114.64 370.41 114.088C370.11 113.536 369.702 113.116 369.186 112.828C368.682 112.54 368.124 112.396 367.512 112.396C366.912 112.396 366.354 112.546 365.838 112.846C365.334 113.134 364.926 113.56 364.614 114.124C364.314 114.676 364.164 115.318 364.164 116.05C364.164 116.794 364.314 117.448 364.614 118.012C364.926 118.564 365.334 118.99 365.838 119.29C366.354 119.578 366.912 119.722 367.512 119.722C368.124 119.722 368.682 119.578 369.186 119.29C369.702 118.99 370.11 118.564 370.41 118.012C370.71 117.448 370.86 116.788 370.86 116.032ZM384.878 111.136V121H383.24V119.542C382.928 120.046 382.49 120.442 381.926 120.73C381.374 121.006 380.762 121.144 380.09 121.144C379.322 121.144 378.632 120.988 378.02 120.676C377.408 120.352 376.922 119.872 376.562 119.236C376.214 118.6 376.04 117.826 376.04 116.914V111.136H377.66V116.698C377.66 117.67 377.906 118.42 378.398 118.948C378.89 119.464 379.562 119.722 380.414 119.722C381.29 119.722 381.98 119.452 382.484 118.912C382.988 118.372 383.24 117.586 383.24 116.554V111.136H384.878ZM389.93 109.534C389.618 109.534 389.354 109.426 389.138 109.21C388.922 108.994 388.814 108.73 388.814 108.418C388.814 108.106 388.922 107.842 389.138 107.626C389.354 107.41 389.618 107.302 389.93 107.302C390.23 107.302 390.482 107.41 390.686 107.626C390.902 107.842 391.01 108.106 391.01 108.418C391.01 108.73 390.902 108.994 390.686 109.21C390.482 109.426 390.23 109.534 389.93 109.534ZM390.722 111.136V121H389.084V111.136H390.722ZM396.591 107.68V121H394.953V107.68H396.591ZM402.821 112.486V118.3C402.821 118.78 402.923 119.122 403.127 119.326C403.331 119.518 403.685 119.614 404.189 119.614H405.395V121H403.919C403.007 121 402.323 120.79 401.867 120.37C401.411 119.95 401.183 119.26 401.183 118.3V112.486H399.905V111.136H401.183V108.652H402.821V111.136H405.395V112.486H402.821ZM29.4 142.486H27.33V151H25.692V142.486H24.414V141.136H25.692V140.434C25.692 139.33 25.974 138.526 26.538 138.022C27.114 137.506 28.032 137.248 29.292 137.248V138.616C28.572 138.616 28.062 138.76 27.762 139.048C27.474 139.324 27.33 139.786 27.33 140.434V141.136H29.4V142.486ZM37.0518 151.162C36.1278 151.162 35.2878 150.952 34.5318 150.532C33.7878 150.112 33.1998 149.518 32.7678 148.75C32.3478 147.97 32.1378 147.07 32.1378 146.05C32.1378 145.042 32.3538 144.154 32.7858 143.386C33.2298 142.606 33.8298 142.012 34.5858 141.604C35.3418 141.184 36.1878 140.974 37.1238 140.974C38.0598 140.974 38.9058 141.184 39.6618 141.604C40.4178 142.012 41.0118 142.6 41.4438 143.368C41.8878 144.136 42.1098 145.03 42.1098 146.05C42.1098 147.07 41.8818 147.97 41.4258 148.75C40.9818 149.518 40.3758 150.112 39.6078 150.532C38.8398 150.952 37.9878 151.162 37.0518 151.162ZM37.0518 149.722C37.6398 149.722 38.1918 149.584 38.7078 149.308C39.2238 149.032 39.6378 148.618 39.9498 148.066C40.2738 147.514 40.4358 146.842 40.4358 146.05C40.4358 145.258 40.2798 144.586 39.9678 144.034C39.6558 143.482 39.2478 143.074 38.7438 142.81C38.2398 142.534 37.6938 142.396 37.1058 142.396C36.5058 142.396 35.9538 142.534 35.4498 142.81C34.9578 143.074 34.5618 143.482 34.2618 144.034C33.9618 144.586 33.8118 145.258 33.8118 146.05C33.8118 146.854 33.9558 147.532 34.2438 148.084C34.5438 148.636 34.9398 149.05 35.4318 149.326C35.9238 149.59 36.4638 149.722 37.0518 149.722ZM47.3415 142.738C47.6295 142.174 48.0375 141.736 48.5655 141.424C49.1055 141.112 49.7595 140.956 50.5275 140.956V142.648H50.0955C48.2595 142.648 47.3415 143.644 47.3415 145.636V151H45.7035V141.136H47.3415V142.738ZM59.4852 146.032C59.4852 145.024 59.6892 144.142 60.0972 143.386C60.5052 142.618 61.0632 142.024 61.7712 141.604C62.4912 141.184 63.2892 140.974 64.1652 140.974C65.0292 140.974 65.7792 141.16 66.4152 141.532C67.0512 141.904 67.5252 142.372 67.8372 142.936V141.136H69.4932V151H67.8372V149.164C67.5132 149.74 67.0272 150.22 66.3792 150.604C65.7432 150.976 64.9992 151.162 64.1472 151.162C63.2712 151.162 62.4792 150.946 61.7712 150.514C61.0632 150.082 60.5052 149.476 60.0972 148.696C59.6892 147.916 59.4852 147.028 59.4852 146.032ZM67.8372 146.05C67.8372 145.306 67.6872 144.658 67.3872 144.106C67.0872 143.554 66.6792 143.134 66.1632 142.846C65.6592 142.546 65.1012 142.396 64.4892 142.396C63.8772 142.396 63.3192 142.54 62.8152 142.828C62.3112 143.116 61.9092 143.536 61.6092 144.088C61.3092 144.64 61.1592 145.288 61.1592 146.032C61.1592 146.788 61.3092 147.448 61.6092 148.012C61.9092 148.564 62.3112 148.99 62.8152 149.29C63.3192 149.578 63.8772 149.722 64.4892 149.722C65.1012 149.722 65.6592 149.578 66.1632 149.29C66.6792 148.99 67.0872 148.564 67.3872 148.012C67.6872 147.448 67.8372 146.794 67.8372 146.05ZM73.0892 146.05C73.0892 145.03 73.2932 144.142 73.7012 143.386C74.1092 142.618 74.6732 142.024 75.3932 141.604C76.1252 141.184 76.9592 140.974 77.8952 140.974C79.1072 140.974 80.1032 141.268 80.8832 141.856C81.6752 142.444 82.1972 143.26 82.4492 144.304H80.6852C80.5172 143.704 80.1872 143.23 79.6952 142.882C79.2152 142.534 78.6152 142.36 77.8952 142.36C76.9592 142.36 76.2032 142.684 75.6272 143.332C75.0512 143.968 74.7632 144.874 74.7632 146.05C74.7632 147.238 75.0512 148.156 75.6272 148.804C76.2032 149.452 76.9592 149.776 77.8952 149.776C78.6152 149.776 79.2152 149.608 79.6952 149.272C80.1752 148.936 80.5052 148.456 80.6852 147.832H82.4492C82.1852 148.84 81.6572 149.65 80.8652 150.262C80.0732 150.862 79.0832 151.162 77.8952 151.162C76.9592 151.162 76.1252 150.952 75.3932 150.532C74.6732 150.112 74.1092 149.518 73.7012 148.75C73.2932 147.982 73.0892 147.082 73.0892 146.05ZM85.4628 146.05C85.4628 145.03 85.6668 144.142 86.0748 143.386C86.4828 142.618 87.0468 142.024 87.7668 141.604C88.4988 141.184 89.3328 140.974 90.2688 140.974C91.4808 140.974 92.4768 141.268 93.2568 141.856C94.0488 142.444 94.5708 143.26 94.8228 144.304H93.0588C92.8908 143.704 92.5608 143.23 92.0688 142.882C91.5888 142.534 90.9888 142.36 90.2688 142.36C89.3328 142.36 88.5768 142.684 88.0008 143.332C87.4248 143.968 87.1368 144.874 87.1368 146.05C87.1368 147.238 87.4248 148.156 88.0008 148.804C88.5768 149.452 89.3328 149.776 90.2688 149.776C90.9888 149.776 91.5888 149.608 92.0688 149.272C92.5488 148.936 92.8788 148.456 93.0588 147.832H94.8228C94.5588 148.84 94.0308 149.65 93.2388 150.262C92.4468 150.862 91.4568 151.162 90.2688 151.162C89.3328 151.162 88.4988 150.952 87.7668 150.532C87.0468 150.112 86.4828 149.518 86.0748 148.75C85.6668 147.982 85.4628 147.082 85.4628 146.05ZM107.448 145.69C107.448 146.002 107.43 146.332 107.394 146.68H99.5104C99.5704 147.652 99.9004 148.414 100.5 148.966C101.112 149.506 101.85 149.776 102.714 149.776C103.422 149.776 104.01 149.614 104.478 149.29C104.958 148.954 105.294 148.51 105.486 147.958H107.25C106.986 148.906 106.458 149.68 105.666 150.28C104.874 150.868 103.89 151.162 102.714 151.162C101.778 151.162 100.938 150.952 100.194 150.532C99.4624 150.112 98.8864 149.518 98.4664 148.75C98.0464 147.97 97.8364 147.07 97.8364 146.05C97.8364 145.03 98.0404 144.136 98.4484 143.368C98.8564 142.6 99.4264 142.012 100.158 141.604C100.902 141.184 101.754 140.974 102.714 140.974C103.65 140.974 104.478 141.178 105.198 141.586C105.918 141.994 106.47 142.558 106.854 143.278C107.25 143.986 107.448 144.79 107.448 145.69ZM105.756 145.348C105.756 144.724 105.618 144.19 105.342 143.746C105.066 143.29 104.688 142.948 104.208 142.72C103.74 142.48 103.218 142.36 102.642 142.36C101.814 142.36 101.106 142.624 100.518 143.152C99.9424 143.68 99.6124 144.412 99.5284 145.348H105.756ZM114.543 151.162C113.787 151.162 113.109 151.036 112.509 150.784C111.909 150.52 111.435 150.16 111.087 149.704C110.739 149.236 110.547 148.702 110.511 148.102H112.203C112.251 148.594 112.479 148.996 112.887 149.308C113.307 149.62 113.853 149.776 114.525 149.776C115.149 149.776 115.641 149.638 116.001 149.362C116.361 149.086 116.541 148.738 116.541 148.318C116.541 147.886 116.349 147.568 115.965 147.364C115.581 147.148 114.987 146.938 114.183 146.734C113.451 146.542 112.851 146.35 112.383 146.158C111.927 145.954 111.531 145.66 111.195 145.276C110.871 144.88 110.709 144.364 110.709 143.728C110.709 143.224 110.859 142.762 111.159 142.342C111.459 141.922 111.885 141.592 112.437 141.352C112.989 141.1 113.619 140.974 114.327 140.974C115.419 140.974 116.301 141.25 116.973 141.802C117.645 142.354 118.005 143.11 118.053 144.07H116.415C116.379 143.554 116.169 143.14 115.785 142.828C115.413 142.516 114.909 142.36 114.273 142.36C113.685 142.36 113.217 142.486 112.869 142.738C112.521 142.99 112.347 143.32 112.347 143.728C112.347 144.052 112.449 144.322 112.653 144.538C112.869 144.742 113.133 144.91 113.445 145.042C113.769 145.162 114.213 145.3 114.777 145.456C115.485 145.648 116.061 145.84 116.505 146.032C116.949 146.212 117.327 146.488 117.639 146.86C117.963 147.232 118.131 147.718 118.143 148.318C118.143 148.858 117.993 149.344 117.693 149.776C117.393 150.208 116.967 150.55 116.415 150.802C115.875 151.042 115.251 151.162 114.543 151.162ZM125.387 151.162C124.631 151.162 123.953 151.036 123.353 150.784C122.753 150.52 122.279 150.16 121.931 149.704C121.583 149.236 121.391 148.702 121.355 148.102H123.047C123.095 148.594 123.323 148.996 123.731 149.308C124.151 149.62 124.697 149.776 125.369 149.776C125.993 149.776 126.485 149.638 126.845 149.362C127.205 149.086 127.385 148.738 127.385 148.318C127.385 147.886 127.193 147.568 126.809 147.364C126.425 147.148 125.831 146.938 125.027 146.734C124.295 146.542 123.695 146.35 123.227 146.158C122.771 145.954 122.375 145.66 122.039 145.276C121.715 144.88 121.553 144.364 121.553 143.728C121.553 143.224 121.703 142.762 122.003 142.342C122.303 141.922 122.729 141.592 123.281 141.352C123.833 141.1 124.463 140.974 125.171 140.974C126.263 140.974 127.145 141.25 127.817 141.802C128.489 142.354 128.849 143.11 128.897 144.07H127.259C127.223 143.554 127.013 143.14 126.629 142.828C126.257 142.516 125.753 142.36 125.117 142.36C124.529 142.36 124.061 142.486 123.713 142.738C123.365 142.99 123.191 143.32 123.191 143.728C123.191 144.052 123.293 144.322 123.497 144.538C123.713 144.742 123.977 144.91 124.289 145.042C124.613 145.162 125.057 145.3 125.621 145.456C126.329 145.648 126.905 145.84 127.349 146.032C127.793 146.212 128.171 146.488 128.483 146.86C128.807 147.232 128.975 147.718 128.987 148.318C128.987 148.858 128.837 149.344 128.537 149.776C128.237 150.208 127.811 150.55 127.259 150.802C126.719 151.042 126.095 151.162 125.387 151.162ZM133.585 139.534C133.273 139.534 133.009 139.426 132.793 139.21C132.577 138.994 132.469 138.73 132.469 138.418C132.469 138.106 132.577 137.842 132.793 137.626C133.009 137.41 133.273 137.302 133.585 137.302C133.885 137.302 134.137 137.41 134.341 137.626C134.557 137.842 134.665 138.106 134.665 138.418C134.665 138.73 134.557 138.994 134.341 139.21C134.137 139.426 133.885 139.534 133.585 139.534ZM134.377 141.136V151H132.739V141.136H134.377ZM140.247 142.972C140.583 142.384 141.075 141.904 141.723 141.532C142.371 141.16 143.109 140.974 143.937 140.974C144.825 140.974 145.623 141.184 146.331 141.604C147.039 142.024 147.597 142.618 148.005 143.386C148.413 144.142 148.617 145.024 148.617 146.032C148.617 147.028 148.413 147.916 148.005 148.696C147.597 149.476 147.033 150.082 146.313 150.514C145.605 150.946 144.813 151.162 143.937 151.162C143.085 151.162 142.335 150.976 141.687 150.604C141.051 150.232 140.571 149.758 140.247 149.182V151H138.609V137.68H140.247V142.972ZM146.943 146.032C146.943 145.288 146.793 144.64 146.493 144.088C146.193 143.536 145.785 143.116 145.269 142.828C144.765 142.54 144.207 142.396 143.595 142.396C142.995 142.396 142.437 142.546 141.921 142.846C141.417 143.134 141.009 143.56 140.697 144.124C140.397 144.676 140.247 145.318 140.247 146.05C140.247 146.794 140.397 147.448 140.697 148.012C141.009 148.564 141.417 148.99 141.921 149.29C142.437 149.578 142.995 149.722 143.595 149.722C144.207 149.722 144.765 149.578 145.269 149.29C145.785 148.99 146.193 148.564 146.493 148.012C146.793 147.448 146.943 146.788 146.943 146.032ZM153.059 139.534C152.747 139.534 152.483 139.426 152.267 139.21C152.051 138.994 151.943 138.73 151.943 138.418C151.943 138.106 152.051 137.842 152.267 137.626C152.483 137.41 152.747 137.302 153.059 137.302C153.359 137.302 153.611 137.41 153.815 137.626C154.031 137.842 154.139 138.106 154.139 138.418C154.139 138.73 154.031 138.994 153.815 139.21C153.611 139.426 153.359 139.534 153.059 139.534ZM153.851 141.136V151H152.213V141.136H153.851ZM159.721 137.68V151H158.083V137.68H159.721ZM164.798 139.534C164.486 139.534 164.222 139.426 164.006 139.21C163.79 138.994 163.682 138.73 163.682 138.418C163.682 138.106 163.79 137.842 164.006 137.626C164.222 137.41 164.486 137.302 164.798 137.302C165.098 137.302 165.35 137.41 165.554 137.626C165.77 137.842 165.878 138.106 165.878 138.418C165.878 138.73 165.77 138.994 165.554 139.21C165.35 139.426 165.098 139.534 164.798 139.534ZM165.59 141.136V151H163.952V141.136H165.59ZM171.82 142.486V148.3C171.82 148.78 171.922 149.122 172.126 149.326C172.33 149.518 172.684 149.614 173.188 149.614H174.394V151H172.918C172.006 151 171.322 150.79 170.866 150.37C170.41 149.95 170.182 149.26 170.182 148.3V142.486H168.904V141.136H170.182V138.652H171.82V141.136H174.394V142.486H171.82ZM186.315 141.136L180.375 155.644H178.683L180.627 150.892L176.649 141.136H178.467L181.563 149.128L184.623 141.136H186.315ZM189.923 151.108C189.611 151.108 189.347 151 189.131 150.784C188.915 150.568 188.807 150.304 188.807 149.992C188.807 149.68 188.915 149.416 189.131 149.2C189.347 148.984 189.611 148.876 189.923 148.876C190.223 148.876 190.475 148.984 190.679 149.2C190.895 149.416 191.003 149.68 191.003 149.992C191.003 150.304 190.895 150.568 190.679 150.784C190.475 151 190.223 151.108 189.923 151.108Z" fill="#262626" fill-opacity="0.8"/>
<path d="M32 470.832V472.64H27.344V475.504H30.912V477.28H27.344V482H25.104V470.832H32ZM40.0524 482.112C39.007 482.112 38.047 481.867 37.1724 481.376C36.2977 480.885 35.6044 480.208 35.0924 479.344C34.5804 478.469 34.3244 477.483 34.3244 476.384C34.3244 475.296 34.5804 474.32 35.0924 473.456C35.6044 472.581 36.2977 471.899 37.1724 471.408C38.047 470.917 39.007 470.672 40.0524 470.672C41.1084 470.672 42.0684 470.917 42.9324 471.408C43.807 471.899 44.495 472.581 44.9964 473.456C45.5084 474.32 45.7644 475.296 45.7644 476.384C45.7644 477.483 45.5084 478.469 44.9964 479.344C44.495 480.208 43.807 480.885 42.9324 481.376C42.0577 481.867 41.0977 482.112 40.0524 482.112ZM40.0524 480.112C40.7244 480.112 41.3164 479.963 41.8284 479.664C42.3404 479.355 42.7404 478.917 43.0284 478.352C43.3164 477.787 43.4604 477.131 43.4604 476.384C43.4604 475.637 43.3164 474.987 43.0284 474.432C42.7404 473.867 42.3404 473.435 41.8284 473.136C41.3164 472.837 40.7244 472.688 40.0524 472.688C39.3804 472.688 38.783 472.837 38.2604 473.136C37.7484 473.435 37.3484 473.867 37.0604 474.432C36.7724 474.987 36.6284 475.637 36.6284 476.384C36.6284 477.131 36.7724 477.787 37.0604 478.352C37.3484 478.917 37.7484 479.355 38.2604 479.664C38.783 479.963 39.3804 480.112 40.0524 480.112ZM50.9189 470.832V477.744C50.9189 478.501 51.1162 479.083 51.5109 479.488C51.9055 479.883 52.4602 480.08 53.1749 480.08C53.9002 480.08 54.4602 479.883 54.8549 479.488C55.2495 479.083 55.4469 478.501 55.4469 477.744V470.832H57.7029V477.728C57.7029 478.677 57.4949 479.483 57.0789 480.144C56.6735 480.795 56.1242 481.285 55.4309 481.616C54.7482 481.947 53.9855 482.112 53.1429 482.112C52.3109 482.112 51.5535 481.947 50.8709 481.616C50.1989 481.285 49.6655 480.795 49.2709 480.144C48.8762 479.483 48.6789 478.677 48.6789 477.728V470.832H50.9189ZM70.6991 482H68.4591L63.3871 474.336V482H61.1471V470.816H63.3871L68.4591 478.496V470.816H70.6991V482ZM78.0967 470.832C79.2701 470.832 80.2994 471.061 81.1847 471.52C82.0807 471.979 82.7687 472.635 83.2487 473.488C83.7394 474.331 83.9847 475.312 83.9847 476.432C83.9847 477.552 83.7394 478.533 83.2487 479.376C82.7687 480.208 82.0807 480.853 81.1847 481.312C80.2994 481.771 79.2701 482 78.0967 482H74.1927V470.832H78.0967ZM78.0167 480.096C79.1901 480.096 80.0967 479.776 80.7367 479.136C81.3767 478.496 81.6967 477.595 81.6967 476.432C81.6967 475.269 81.3767 474.363 80.7367 473.712C80.0967 473.051 79.1901 472.72 78.0167 472.72H76.4327V480.096H78.0167ZM89.1815 472.64V475.44H92.9415V477.216H89.1815V480.176H93.4215V482H86.9415V470.816H93.4215V472.64H89.1815ZM100.641 470.832C101.814 470.832 102.844 471.061 103.729 471.52C104.625 471.979 105.313 472.635 105.793 473.488C106.284 474.331 106.529 475.312 106.529 476.432C106.529 477.552 106.284 478.533 105.793 479.376C105.313 480.208 104.625 480.853 103.729 481.312C102.844 481.771 101.814 482 100.641 482H96.7371V470.832H100.641ZM100.561 480.096C101.734 480.096 102.641 479.776 103.281 479.136C103.921 478.496 104.241 477.595 104.241 476.432C104.241 475.269 103.921 474.363 103.281 473.712C102.641 473.051 101.734 472.72 100.561 472.72H98.9771V480.096H100.561ZM116.818 470.832V482H114.578V470.832H116.818ZM129.863 482H127.623L122.551 474.336V482H120.311V470.816H122.551L127.623 478.496V470.816H129.863V482ZM134.349 482.112C133.944 482.112 133.608 481.989 133.341 481.744C133.085 481.488 132.957 481.173 132.957 480.8C132.957 480.427 133.085 480.117 133.341 479.872C133.608 479.616 133.944 479.488 134.349 479.488C134.744 479.488 135.069 479.616 135.325 479.872C135.581 480.117 135.709 480.427 135.709 480.8C135.709 481.173 135.581 481.488 135.325 481.744C135.069 481.989 134.744 482.112 134.349 482.112ZM134.349 475.488C133.944 475.488 133.608 475.365 133.341 475.12C133.085 474.864 132.957 474.549 132.957 474.176C132.957 473.803 133.085 473.493 133.341 473.248C133.608 472.992 133.944 472.864 134.349 472.864C134.744 472.864 135.069 472.992 135.325 473.248C135.581 473.493 135.709 473.803 135.709 474.176C135.709 474.549 135.581 474.864 135.325 475.12C135.069 475.365 134.744 475.488 134.349 475.488Z" fill="#262626" fill-opacity="0.8"/>
<path d="M32.802 517.21H27.33L26.322 520H24.594L29.13 507.526H31.02L35.538 520H33.81L32.802 517.21ZM32.334 515.878L30.066 509.542L27.798 515.878H32.334ZM40.5569 507.454V515.392C40.5569 516.508 40.8269 517.336 41.3669 517.876C41.9189 518.416 42.6809 518.686 43.6529 518.686C44.6129 518.686 45.3629 518.416 45.9029 517.876C46.4549 517.336 46.7309 516.508 46.7309 515.392V507.454H48.3689V515.374C48.3689 516.418 48.1589 517.3 47.7389 518.02C47.3189 518.728 46.7489 519.256 46.0289 519.604C45.3209 519.952 44.5229 520.126 43.6349 520.126C42.7469 520.126 41.9429 519.952 41.2229 519.604C40.5149 519.256 39.9509 518.728 39.5309 518.02C39.1229 517.3 38.9189 516.418 38.9189 515.374V507.454H40.5569ZM62.0454 511.09C61.6974 510.358 61.1934 509.794 60.5334 509.398C59.8734 508.99 59.1054 508.786 58.2294 508.786C57.3534 508.786 56.5614 508.99 55.8534 509.398C55.1574 509.794 54.6054 510.37 54.1974 511.126C53.8014 511.87 53.6034 512.734 53.6034 513.718C53.6034 514.702 53.8014 515.566 54.1974 516.31C54.6054 517.054 55.1574 517.63 55.8534 518.038C56.5614 518.434 57.3534 518.632 58.2294 518.632C59.4534 518.632 60.4614 518.266 61.2534 517.534C62.0454 516.802 62.5074 515.812 62.6394 514.564H57.6354V513.232H64.3854V514.492C64.2894 515.524 63.9654 516.472 63.4134 517.336C62.8614 518.188 62.1354 518.866 61.2354 519.37C60.3354 519.862 59.3334 520.108 58.2294 520.108C57.0654 520.108 56.0034 519.838 55.0434 519.298C54.0834 518.746 53.3214 517.984 52.7574 517.012C52.2054 516.04 51.9294 514.942 51.9294 513.718C51.9294 512.494 52.2054 511.396 52.7574 510.424C53.3214 509.44 54.0834 508.678 55.0434 508.138C56.0034 507.586 57.0654 507.31 58.2294 507.31C59.5614 507.31 60.7374 507.64 61.7574 508.3C62.7894 508.96 63.5394 509.89 64.0074 511.09H62.0454ZM69.5932 507.454V515.392C69.5932 516.508 69.8632 517.336 70.4032 517.876C70.9552 518.416 71.7172 518.686 72.6892 518.686C73.6492 518.686 74.3992 518.416 74.9392 517.876C75.4912 517.336 75.7672 516.508 75.7672 515.392V507.454H77.4052V515.374C77.4052 516.418 77.1952 517.3 76.7752 518.02C76.3552 518.728 75.7852 519.256 75.0652 519.604C74.3572 519.952 73.5592 520.126 72.6712 520.126C71.7832 520.126 70.9792 519.952 70.2592 519.604C69.5512 519.256 68.9872 518.728 68.5672 518.02C68.1592 517.3 67.9552 516.418 67.9552 515.374V507.454H69.5932ZM85.5556 520.126C84.7276 520.126 83.9836 519.982 83.3236 519.694C82.6756 519.394 82.1656 518.986 81.7936 518.47C81.4216 517.942 81.2296 517.336 81.2176 516.652H82.9636C83.0236 517.24 83.2636 517.738 83.6836 518.146C84.1156 518.542 84.7396 518.74 85.5556 518.74C86.3356 518.74 86.9476 518.548 87.3916 518.164C87.8476 517.768 88.0756 517.264 88.0756 516.652C88.0756 516.172 87.9436 515.782 87.6796 515.482C87.4156 515.182 87.0856 514.954 86.6896 514.798C86.2936 514.642 85.7596 514.474 85.0876 514.294C84.2596 514.078 83.5936 513.862 83.0896 513.646C82.5976 513.43 82.1716 513.094 81.8116 512.638C81.4636 512.17 81.2896 511.546 81.2896 510.766C81.2896 510.082 81.4636 509.476 81.8116 508.948C82.1596 508.42 82.6456 508.012 83.2696 507.724C83.9056 507.436 84.6316 507.292 85.4476 507.292C86.6236 507.292 87.5836 507.586 88.3276 508.174C89.0836 508.762 89.5096 509.542 89.6056 510.514H87.8056C87.7456 510.034 87.4936 509.614 87.0496 509.254C86.6056 508.882 86.0176 508.696 85.2856 508.696C84.6016 508.696 84.0436 508.876 83.6116 509.236C83.1796 509.584 82.9636 510.076 82.9636 510.712C82.9636 511.168 83.0896 511.54 83.3416 511.828C83.6056 512.116 83.9236 512.338 84.2956 512.494C84.6796 512.638 85.2136 512.806 85.8976 512.998C86.7256 513.226 87.3916 513.454 87.8956 513.682C88.3996 513.898 88.8316 514.24 89.1916 514.708C89.5516 515.164 89.7316 515.788 89.7316 516.58C89.7316 517.192 89.5696 517.768 89.2456 518.308C88.9216 518.848 88.4416 519.286 87.8056 519.622C87.1696 519.958 86.4196 520.126 85.5556 520.126ZM101.304 507.454V508.786H97.8841V520H96.2461V508.786H92.8081V507.454H101.304ZM106.452 517.732L104.436 522.574H103.338L104.652 517.732H106.452ZM115.54 518.686C117.064 517.462 118.258 516.46 119.122 515.68C119.986 514.888 120.712 514.066 121.3 513.214C121.9 512.35 122.2 511.504 122.2 510.676C122.2 509.896 122.008 509.284 121.624 508.84C121.252 508.384 120.646 508.156 119.806 508.156C118.99 508.156 118.354 508.414 117.898 508.93C117.454 509.434 117.214 510.112 117.178 510.964H115.594C115.642 509.62 116.05 508.582 116.818 507.85C117.586 507.118 118.576 506.752 119.788 506.752C121.024 506.752 122.002 507.094 122.722 507.778C123.454 508.462 123.82 509.404 123.82 510.604C123.82 511.6 123.52 512.572 122.92 513.52C122.332 514.456 121.66 515.284 120.904 516.004C120.148 516.712 119.182 517.54 118.006 518.488H124.198V519.856H115.54V518.686ZM127.531 513.358C127.531 511.294 127.867 509.686 128.539 508.534C129.211 507.37 130.387 506.788 132.067 506.788C133.735 506.788 134.905 507.37 135.577 508.534C136.249 509.686 136.585 511.294 136.585 513.358C136.585 515.458 136.249 517.09 135.577 518.254C134.905 519.418 133.735 520 132.067 520C130.387 520 129.211 519.418 128.539 518.254C127.867 517.09 127.531 515.458 127.531 513.358ZM134.965 513.358C134.965 512.314 134.893 511.432 134.749 510.712C134.617 509.98 134.335 509.392 133.903 508.948C133.483 508.504 132.871 508.282 132.067 508.282C131.251 508.282 130.627 508.504 130.195 508.948C129.775 509.392 129.493 509.98 129.349 510.712C129.217 511.432 129.151 512.314 129.151 513.358C129.151 514.438 129.217 515.344 129.349 516.076C129.493 516.808 129.775 517.396 130.195 517.84C130.627 518.284 131.251 518.506 132.067 518.506C132.871 518.506 133.483 518.284 133.903 517.84C134.335 517.396 134.617 516.808 134.749 516.076C134.893 515.344 134.965 514.438 134.965 513.358ZM140.076 518.686C141.6 517.462 142.794 516.46 143.658 515.68C144.522 514.888 145.248 514.066 145.836 513.214C146.436 512.35 146.736 511.504 146.736 510.676C146.736 509.896 146.544 509.284 146.16 508.84C145.788 508.384 145.182 508.156 144.342 508.156C143.526 508.156 142.89 508.414 142.434 508.93C141.99 509.434 141.75 510.112 141.714 510.964H140.13C140.178 509.62 140.586 508.582 141.354 507.85C142.122 507.118 143.112 506.752 144.324 506.752C145.56 506.752 146.538 507.094 147.258 507.778C147.99 508.462 148.356 509.404 148.356 510.604C148.356 511.6 148.056 512.572 147.456 513.52C146.868 514.456 146.196 515.284 145.44 516.004C144.684 516.712 143.718 517.54 142.542 518.488H148.734V519.856H140.076V518.686ZM152.031 510.262C152.115 509.158 152.541 508.294 153.309 507.67C154.077 507.046 155.073 506.734 156.297 506.734C157.113 506.734 157.815 506.884 158.403 507.184C159.003 507.472 159.453 507.868 159.753 508.372C160.065 508.876 160.221 509.446 160.221 510.082C160.221 510.826 160.005 511.468 159.573 512.008C159.153 512.548 158.601 512.896 157.917 513.052V513.142C158.697 513.334 159.315 513.712 159.771 514.276C160.227 514.84 160.455 515.578 160.455 516.49C160.455 517.174 160.299 517.792 159.987 518.344C159.675 518.884 159.207 519.31 158.583 519.622C157.959 519.934 157.209 520.09 156.333 520.09C155.061 520.09 154.017 519.76 153.201 519.1C152.385 518.428 151.929 517.48 151.833 516.256H153.417C153.501 516.976 153.795 517.564 154.299 518.02C154.803 518.476 155.475 518.704 156.315 518.704C157.155 518.704 157.791 518.488 158.223 518.056C158.667 517.612 158.889 517.042 158.889 516.346C158.889 515.446 158.589 514.798 157.989 514.402C157.389 514.006 156.483 513.808 155.271 513.808H154.857V512.44H155.289C156.393 512.428 157.227 512.248 157.791 511.9C158.355 511.54 158.637 510.988 158.637 510.244C158.637 509.608 158.427 509.098 158.007 508.714C157.599 508.33 157.011 508.138 156.243 508.138C155.499 508.138 154.899 508.33 154.443 508.714C153.987 509.098 153.717 509.614 153.633 510.262H152.031Z" fill="#262626"/>
<path d="M408.735 498.334L380.333 498.334L380.333 493.667L408.735 493.667L396.219 481.151L399.518 477.852L417.667 496L399.518 514.149L396.219 510.85L408.735 498.334Z" fill="#262626"/>
</svg>
