<svg width="148" height="103" viewBox="0 0 148 103" fill="none" xmlns="http://www.w3.org/2000/svg">
<path fill-rule="evenodd" clip-rule="evenodd" d="M61.6955 11.2003C66.4259 6.27248 73.0161 3.21247 80.301 3.21247C89.9849 3.21247 98.4364 8.61362 102.936 16.6319C106.962 14.8337 111.322 13.9068 115.731 13.9121C133.199 13.9121 147.358 28.1964 147.358 45.8199C147.358 63.4435 133.199 77.7278 115.731 77.7278C113.595 77.7278 111.512 77.5144 109.499 77.1084C105.537 84.1735 97.9823 88.9489 89.3158 88.9489C85.6877 88.9489 82.2555 88.1145 79.2019 86.6206C75.1839 96.0718 65.8242 102.696 54.9175 102.696C43.5601 102.696 33.8778 95.507 30.1631 85.4284C28.508 85.7776 26.821 85.9535 25.1294 85.9531C11.6041 85.9547 0.639686 74.8764 0.639686 61.2098C0.629539 56.8788 1.75479 52.6207 3.90327 48.8601C6.05175 45.0995 9.1484 41.9677 12.8845 39.7769C11.3345 36.2054 10.5371 32.3529 10.5418 28.4596C10.5418 12.7407 23.3001 1.93667e-05 39.0382 1.93667e-05C43.4225 -0.00509581 47.7486 1.00313 51.6789 2.946C55.6091 4.88887 59.0372 7.7138 61.6955 11.2003Z" fill="#262626"/>
<path fill-rule="evenodd" clip-rule="evenodd" d="M21.8912 53.2573L22.4849 51.6094C22.5796 51.3269 22.793 51.42 22.8797 51.473C23.0449 51.5708 23.1637 51.6591 23.3771 51.7843C25.1261 52.8898 26.7468 52.9011 27.2522 52.9011C28.5616 52.9011 29.3736 52.2079 29.3736 51.2724V51.2243C29.3736 50.2069 28.1219 49.8218 26.6762 49.3789L26.3553 49.2762C24.3703 48.7114 22.2474 47.8947 22.2474 45.3818V45.3305C22.2474 42.946 24.1714 41.282 26.9249 41.282L27.2266 41.2788C28.844 41.2788 30.4069 41.749 31.5398 42.4357C31.6425 42.4999 31.742 42.6187 31.6842 42.7759L31.0744 44.4239C30.9669 44.7047 30.6733 44.5185 30.6733 44.5185C29.4914 43.9027 28.1835 43.5672 26.8511 43.5381C25.6829 43.5381 24.932 44.1575 24.932 44.9983V45.0513C24.932 46.0317 26.2189 46.4505 27.7112 46.9367L27.9679 47.0169C29.9464 47.6427 32.0581 48.5092 32.0581 50.8921V50.9418C32.0581 53.5173 30.1871 55.1171 27.1784 55.1171C25.7006 55.1171 24.2869 54.8892 22.7914 54.0949C22.509 53.9312 22.2298 53.79 21.9538 53.5895C21.9249 53.5477 21.7981 53.498 21.8896 53.2573H21.8912ZM65.9492 53.2573L66.5446 51.6094C66.6312 51.3398 66.8831 51.4393 66.9377 51.473C67.1014 51.5741 67.2233 51.6591 67.4351 51.7843C69.1874 52.8898 70.8048 52.9011 71.3151 52.9011C72.6197 52.9011 73.4332 52.2079 73.4332 51.2724V51.2243C73.4332 50.2069 72.1832 49.8218 70.7374 49.3789L70.4165 49.2762C68.4284 48.7114 66.3055 47.8947 66.3055 45.3818V45.3305C66.3055 42.946 68.231 41.282 70.9845 41.282L71.2846 41.2788C72.9021 41.2788 74.4666 41.749 75.601 42.4357C75.7005 42.4999 75.8016 42.6187 75.7455 42.7759C75.6893 42.922 75.1886 44.2698 75.1357 44.4239C75.025 44.7047 74.7345 44.5185 74.7345 44.5185C73.5521 43.9024 72.2437 43.5669 70.9107 43.5381C69.7426 43.5381 68.9916 44.1575 68.9916 44.9983V45.0513C68.9916 46.0317 70.2769 46.4505 71.7708 46.9367L72.0275 47.0169C74.006 47.6427 76.1161 48.5092 76.1161 50.8921V50.9418C76.1161 53.5173 74.2467 55.1171 71.2381 55.1171C69.7586 55.1171 68.3449 54.8892 66.851 54.0949C66.5686 53.9312 66.2894 53.79 66.0118 53.5895C65.9829 53.5477 65.8562 53.498 65.9492 53.2573ZM98.5391 45.5086C98.7862 46.3366 98.9081 47.2464 98.9081 48.2076C98.9081 49.1703 98.7862 50.077 98.5391 50.9049C98.3131 51.7033 97.9253 52.4467 97.3998 53.0888C96.8732 53.7125 96.2129 54.2094 95.4678 54.5426C94.6976 54.8956 93.7926 55.0721 92.7753 55.0721C91.7579 55.0721 90.8497 54.8956 90.0827 54.5426C89.3377 54.2094 88.6773 53.7125 88.1508 53.0888C87.6257 52.4467 87.2375 51.7041 87.0099 50.9065C86.7576 50.0293 86.6333 49.1203 86.6408 48.2076C86.6408 47.2448 86.7644 46.3366 87.0099 45.5086C87.257 44.6742 87.6405 43.9393 88.1492 43.3263C88.677 42.7001 89.3374 42.1992 90.0827 41.8597C90.8513 41.5003 91.7547 41.3189 92.7753 41.3189C93.7958 41.3189 94.6992 41.5003 95.4678 41.8597C96.2348 42.2175 96.8863 42.7101 97.3998 43.3263C97.9101 43.9393 98.2952 44.6742 98.5391 45.5086ZM96.0294 48.2076C96.0294 46.7522 95.7599 45.6081 95.2239 44.8058C94.6944 44.0099 93.8921 43.6248 92.7753 43.6248C91.6585 43.6248 90.8626 44.0099 90.3395 44.8058C89.8148 45.6081 89.5468 46.7522 89.5468 48.2076C89.5468 49.6614 89.8148 50.8135 90.3427 51.6222C90.8626 52.4277 91.6585 52.8176 92.7753 52.8176C93.8921 52.8176 94.6944 52.4261 95.2239 51.6222C95.7567 50.8135 96.0294 49.6614 96.0294 48.2076ZM119.171 52.4277L119.787 54.1318C119.868 54.3404 119.686 54.4319 119.686 54.4319C118.735 54.8009 117.414 55.0641 116.129 55.0641C113.95 55.0641 112.281 54.4367 111.167 53.1979C110.06 51.9624 109.495 50.2823 109.495 48.1979C109.495 47.2336 109.635 46.3205 109.908 45.4942C110.181 44.6598 110.59 43.9248 111.129 43.3119C111.689 42.6817 112.379 42.1812 113.152 41.8452C113.955 41.4874 114.898 41.3077 115.951 41.3077C116.662 41.3077 117.294 41.351 117.836 41.4313C118.415 41.5211 119.187 41.7297 119.513 41.8565C119.572 41.8789 119.738 41.9592 119.67 42.1533C119.433 42.8225 119.271 43.2589 119.051 43.8687C118.955 44.1286 118.759 44.042 118.759 44.042C117.933 43.782 117.14 43.6633 116.105 43.6633C114.861 43.6633 113.927 44.0773 113.318 44.8876C112.701 45.7044 112.356 46.7746 112.352 48.1979C112.347 49.7592 112.738 50.9162 113.432 51.6318C114.123 52.3459 115.089 52.7069 116.305 52.7069C116.798 52.7069 117.263 52.6748 117.682 52.609C118.096 52.5432 118.484 52.4149 118.85 52.2721C118.85 52.2721 119.086 52.1838 119.171 52.4277ZM132.024 45.0352C132.571 46.9511 132.286 48.6055 132.276 48.697C132.255 48.9152 132.031 48.9184 132.031 48.9184L123.528 48.912C123.581 50.2037 123.89 51.1183 124.516 51.7393C125.131 52.3475 126.106 52.7374 127.427 52.739C129.446 52.7438 130.307 52.3379 130.919 52.1116C130.919 52.1116 131.151 52.0282 131.24 52.2592L131.793 53.8173C131.906 54.0789 131.816 54.1703 131.721 54.2233C131.188 54.5169 129.897 55.0657 127.438 55.0721C126.246 55.0769 125.208 54.9069 124.353 54.5747C123.54 54.2737 122.808 53.7887 122.214 53.1578C121.646 52.5388 121.224 51.8002 120.98 50.9964C120.716 50.1157 120.587 49.2005 120.596 48.2814C120.596 47.3186 120.72 46.404 120.968 45.568C121.217 44.7255 121.604 43.9826 122.119 43.3584C122.653 42.7213 123.322 42.2115 124.078 41.8661C124.858 41.4987 125.824 41.3189 126.886 41.3189C127.796 41.3189 128.627 41.5147 129.319 41.8132C129.852 42.041 130.388 42.4534 130.936 43.0439C131.283 43.4162 131.811 44.2313 132.024 45.0352ZM123.568 46.8115H129.633C129.571 46.0317 129.418 45.3321 129.069 44.8058C128.536 44.0099 127.801 43.5718 126.686 43.5718C125.569 43.5718 124.776 44.0099 124.252 44.8058C123.908 45.3321 123.688 46.0028 123.568 46.8115ZM63.9162 45.0352C64.4618 46.9511 64.181 48.6055 64.1713 48.697C64.1489 48.9152 63.9242 48.9184 63.9242 48.9184L55.4197 48.912C55.4743 50.2037 55.7824 51.1183 56.4098 51.7393C57.0244 52.3475 57.9984 52.7374 59.319 52.739C61.3376 52.7438 62.2025 52.3379 62.8122 52.1116C62.8122 52.1116 63.0449 52.0282 63.1315 52.2592L63.6867 53.8173C63.7991 54.0789 63.7092 54.1703 63.6161 54.2233C63.0802 54.5169 61.7869 55.0657 59.3318 55.0721C58.138 55.0769 57.0998 54.9069 56.2461 54.5747C55.4331 54.2733 54.7006 53.7884 54.1056 53.1578C53.5392 52.5382 53.1187 51.7997 52.8748 50.9964C52.6097 50.1161 52.4793 49.2007 52.4881 48.2814C52.4881 47.3186 52.6133 46.404 52.8604 45.568C53.0916 44.7613 53.4835 44.0098 54.0125 43.3584C54.5462 42.7219 55.2149 42.2121 55.9701 41.8661C56.7532 41.4987 57.7192 41.3189 58.7782 41.3189C59.6152 41.317 60.4439 41.4851 61.214 41.8132C61.7468 42.041 62.2827 42.4534 62.8299 43.0439C63.1765 43.4162 63.7044 44.2313 63.9162 45.0352ZM55.4582 46.8115H61.5269C61.4627 46.0317 61.3103 45.3321 60.9621 44.8058C60.4326 44.0099 59.6944 43.5718 58.5792 43.5718C57.4624 43.5718 56.6681 44.0099 56.1466 44.8058C55.8 45.3321 55.5818 46.0028 55.4582 46.8115ZM40.4615 46.4056C40.4615 46.4056 41.1322 46.465 41.8639 46.5709V46.2114C41.8639 45.077 41.628 44.5426 41.1643 44.1848C40.6893 43.8221 39.9801 43.6344 39.0622 43.6344C39.0622 43.6344 36.9923 43.6087 35.3556 44.4977C35.2802 44.5426 35.2176 44.5683 35.2176 44.5683C35.2176 44.5683 35.0122 44.6405 34.9384 44.4303L34.3366 42.8128C34.2436 42.5802 34.4121 42.4743 34.4121 42.4743C35.1775 41.8773 37.0324 41.5163 37.0324 41.5163C37.7854 41.384 38.548 41.3137 39.3126 41.3061C41.0103 41.3061 42.3244 41.7008 43.2182 42.4823C44.1136 43.2669 44.5693 44.5314 44.5693 46.2355L44.5741 54.0147C44.5741 54.0147 44.5918 54.2393 44.3783 54.2907C44.3783 54.2907 44.0654 54.3773 43.7846 54.4431C43.5006 54.5089 42.4769 54.7175 41.6409 54.8587C40.7872 55.0018 39.923 55.0737 39.0574 55.0737C38.2311 55.0737 37.4737 54.9967 36.8061 54.8443C36.1841 54.714 35.595 54.4585 35.0748 54.0933C34.6007 53.749 34.2201 53.2918 33.9676 52.7631C33.706 52.2287 33.5744 51.5757 33.5744 50.8215C33.5744 50.0818 33.7301 49.4223 34.0302 48.8606C34.3318 48.3022 34.7458 47.8289 35.2657 47.4582C35.8028 47.0801 36.4033 46.8013 37.0388 46.635C37.7015 46.4585 38.406 46.3671 39.1345 46.3671C39.6688 46.3671 40.1149 46.3783 40.4615 46.4056ZM37.0773 52.3812C37.0725 52.3796 37.8395 52.9829 39.5709 52.877C40.7872 52.8032 41.8655 52.5721 41.8655 52.5721V48.705C41.8655 48.705 40.7776 48.5269 39.5565 48.5092C37.8251 48.4884 37.087 49.1254 37.0918 49.1238C36.5815 49.4864 36.3328 50.024 36.3328 50.7685C36.3328 51.2451 36.4178 51.6174 36.5895 51.8773C36.697 52.049 36.7436 52.1132 37.0773 52.3812ZM109.053 42.0234C108.972 42.256 108.56 43.421 108.411 43.8077C108.356 43.9553 108.266 44.0564 108.101 44.0388C108.101 44.0388 107.613 43.9264 107.167 43.9264C106.861 43.9264 106.423 43.965 106.028 44.0869C105.632 44.2086 105.272 44.425 104.978 44.7175C104.667 45.0176 104.415 45.4396 104.232 45.9691C104.046 46.5019 103.95 47.3491 103.95 48.1995V54.5346C103.95 54.5684 103.944 54.602 103.931 54.6333C103.918 54.6647 103.899 54.6932 103.875 54.7172C103.851 54.7412 103.823 54.7602 103.792 54.7732C103.76 54.7862 103.727 54.7929 103.693 54.7929H101.461C101.427 54.7933 101.393 54.787 101.361 54.7744C101.33 54.7617 101.301 54.7429 101.276 54.7191C101.252 54.6952 101.232 54.6668 101.219 54.6354C101.205 54.604 101.198 54.5703 101.198 54.5362V41.8517C101.198 41.7089 101.302 41.5949 101.445 41.5949H103.623C103.767 41.5949 103.87 41.7089 103.87 41.8517V42.8883C104.195 42.4518 104.779 42.0667 105.307 41.8292C105.837 41.5885 106.429 41.412 107.499 41.4762C108.056 41.5099 108.78 41.6623 108.926 41.7185C108.954 41.7299 108.98 41.7469 109.002 41.7685C109.024 41.7901 109.041 41.8159 109.053 41.8443C109.065 41.8727 109.071 41.9031 109.071 41.9339C109.071 41.9646 109.065 41.9951 109.053 42.0234ZM88.0802 36.1456C88.1395 36.1697 88.3016 36.2483 88.2374 36.4409L87.5843 38.2268C87.5298 38.3616 87.4945 38.4419 87.2169 38.3584C86.8497 38.2429 86.4673 38.1834 86.0824 38.1819C85.7454 38.1819 85.4406 38.2252 85.171 38.3151C84.9012 38.4015 84.6567 38.5524 84.4585 38.7548C84.1948 39.0096 83.991 39.3198 83.8616 39.663C83.5487 40.5616 83.4284 41.5195 83.4123 41.5805H86.1305C86.36 41.5805 86.4322 41.6864 86.4098 41.8549L86.092 43.6232C86.0407 43.8799 85.808 43.8703 85.808 43.8703H83.0064L81.092 54.7111C80.9275 55.6833 80.6772 56.6391 80.3443 57.5673C80.0442 58.352 79.7345 58.9248 79.2371 59.472C78.8125 59.9617 78.2726 60.3378 77.6662 60.5663C77.0773 60.783 76.3616 60.8937 75.5802 60.8937C75.2079 60.8937 74.8067 60.8857 74.3334 60.7733C74.0696 60.7131 73.8098 60.637 73.5551 60.5455C73.4509 60.5086 73.3658 60.3754 73.4268 60.2053C73.4845 60.0368 73.9884 58.6585 74.0558 58.4771C74.1424 58.2589 74.3639 58.3423 74.3639 58.3423C74.5147 58.4065 74.6206 58.4482 74.8212 58.4884C75.025 58.5285 75.2978 58.5638 75.5048 58.5638C75.8754 58.5638 76.2124 58.5189 76.506 58.4194C76.8591 58.3054 77.0677 58.0984 77.2827 57.8224C77.5073 57.532 77.6903 57.1389 77.878 56.611C78.0657 56.0766 78.2374 55.3706 78.3851 54.5153L80.2913 43.8719H78.4139C78.1893 43.8719 78.1123 43.766 78.1379 43.5959L78.4524 41.8276C78.5022 41.5709 78.7413 41.5805 78.7413 41.5805H80.6684L80.7727 41.006C81.0616 39.2987 81.6344 38.0006 82.4816 37.1485C83.3337 36.2901 84.5452 35.8568 86.0824 35.8568C86.5221 35.8568 86.9104 35.8857 87.2393 35.9451C87.5619 36.006 87.8074 36.0622 88.0802 36.1456ZM50.0892 54.5346C50.0892 54.679 49.9897 54.7929 49.8453 54.7929H47.5908C47.4464 54.7929 47.3485 54.6774 47.3485 54.5362V36.3831C47.3485 36.2435 47.448 36.128 47.5892 36.128H49.8453C49.9897 36.128 50.0892 36.2435 50.0892 36.3847V54.5346Z" fill="white"/>
</svg>
