<svg width="140" height="141" viewBox="0 0 140 141" fill="none" xmlns="http://www.w3.org/2000/svg">
<line x1="59.197" y1="12.0856" x2="10.5304" y2="60.7522" stroke="#FC700A" stroke-width="1.5"/>
<circle cx="59.3334" cy="10.8886" r="10.6667" fill="white"/>
<circle cx="10.6667" cy="59.5553" r="10.6667" fill="white"/>
<line y1="-0.75" x2="68.8251" y2="-0.75" transform="matrix(0.707107 0.707107 0.707107 -0.707107 81.3333 11.5552)" stroke="#FC700A" stroke-width="1.5"/>
<circle cx="10.6667" cy="10.6667" r="10.6667" transform="matrix(-1 0 0 1 91.3333 0.221924)" fill="white"/>
<circle cx="10.6667" cy="10.6667" r="10.6667" transform="matrix(-1 0 0 1 140 48.8887)" fill="white"/>
<line y1="-0.75" x2="68.8251" y2="-0.75" transform="matrix(-0.707107 -0.707107 -0.707107 0.707107 58.6667 128.888)" stroke="#FC700A" stroke-width="1.5"/>
<circle cx="10.6667" cy="10.6667" r="10.6667" transform="matrix(1 0 0 -1 48.6667 140.222)" fill="white"/>
<circle cx="10.6667" cy="10.6667" r="10.6667" transform="matrix(1 0 0 -1 0 91.5552)" fill="white"/>
<line x1="80.803" y1="128.358" x2="129.47" y2="79.6915" stroke="#FC700A" stroke-width="1.5"/>
<circle cx="80.6666" cy="129.555" r="10.6667" transform="rotate(-180 80.6666 129.555)" fill="white"/>
<circle cx="129.333" cy="80.8885" r="10.6667" transform="rotate(-180 129.333 80.8885)" fill="white"/>
</svg>
