<svg width="143" height="141" viewBox="0 0 143 141" fill="none" xmlns="http://www.w3.org/2000/svg">
<path d="M27.4184 38.0261L50.2671 60.8747M63.5608 140.222V95.3554M50.2671 60.8747L63.5608 74.1685V95.3554M50.2671 60.8747L86.4095 24.7323M63.5608 95.3554L95.9644 62.9519" stroke="#FC700A" stroke-width="1.5"/>
<path d="M83.9169 77.492L94.7181 66.6908V77.492H83.9169Z" fill="white"/>
<path d="M41.543 31.7946L49.8516 22.6552V31.7946H41.543Z" fill="white"/>
<path d="M127.122 55.0587L135.43 45.9193V55.0587H127.122Z" fill="white"/>
<path d="M69.3768 27.6403L61.0682 36.7798V27.6403H69.3768Z" fill="white"/>
<path d="M81.4243 44.2575L67.7151 35.1181V44.2575H81.4243Z" fill="white"/>
<path d="M98.0415 57.5513L106.35 48.4118V57.5513H98.0415Z" fill="white"/>
<path d="M81.4243 23.486L89.7329 32.6255V23.486H81.4243Z" fill="white"/>
<path d="M42.3739 35.9489L50.6825 44.2575V35.9489H42.3739Z" fill="white"/>
<path d="M38.2195 51.7353L29.9109 60.0439V51.7353H38.2195Z" fill="white"/>
<path d="M0 48.4118L8.30861 40.1032V48.4118H0Z" fill="white"/>
<path d="M70.2932 21.1782L81.643 24.2193L77.4887 17.0239L70.2932 21.1782Z" fill="white"/>
<path d="M66.4688 65.029L77.27 75.8302V65.029H66.4688Z" fill="white"/>
<path d="M14.1246 15.1774L28.2493 30.1329V15.1774H14.1246Z" fill="white"/>
<path d="M99.7032 38.4415L113.828 53.397V38.4415H99.7032Z" fill="white"/>
<path d="M96.7952 44.2575L82.6706 29.302V44.2575H96.7952Z" fill="white"/>
<path d="M20.7715 43.8421L34.4807 30.1329V43.8421H20.7715Z" fill="white"/>
<path d="M17.4481 48.8273L3.73886 62.5365V48.8273H17.4481Z" fill="white"/>
<path d="M85.196 12.0944L66.4689 7.07652L73.3235 18.949L85.196 12.0944Z" fill="white"/>
<path d="M83.9169 21.2011L100.347 22.2409L95.7894 14.3465L83.9169 21.2011Z" fill="white"/>
<path d="M59.822 67.1062L46.1128 53.397V67.1062H59.822Z" fill="white"/>
<path d="M103.858 65.8599L93.0564 55.0587V65.8599H103.858Z" fill="white"/>
<path d="M56.9139 14.762L43.2047 1.0528V14.762H56.9139Z" fill="white"/>
<path d="M142.493 38.0261L128.783 24.3169V38.0261H142.493Z" fill="white"/>
<path d="M62.3145 44.2575L54.0059 52.5661V44.2575H62.3145Z" fill="white"/>
<path d="M83.9169 52.5662L75.6083 60.8748V52.5662H83.9169Z" fill="white"/>
<path d="M59.822 55.0587L49.0208 66.6908V55.0587H59.822Z" fill="white"/>
<path d="M39.8813 74.9994L50.6825 86.6314V74.9994H39.8813Z" fill="white"/>
<path d="M17.4481 29.302L6.64687 17.67V29.302H17.4481Z" fill="white"/>
<path d="M94.9585 29.0037L91.4204 44.4779L85.6044 34.4043L94.9585 29.0037Z" fill="white"/>
</svg>
