<svg width="24" height="24" viewBox="0 0 24 24" fill="none" xmlns="http://www.w3.org/2000/svg">
<path d="M21.0002 11.9999C21.0002 14.3869 20.052 16.6761 18.3642 18.3639C16.6764 20.0517 14.3872 20.9999 12.0002 20.9999C9.6133 20.9999 7.32411 20.0517 5.63628 18.3639C3.94846 16.6761 3.00024 14.3869 3.00024 11.9999M21.0002 11.9999C21.0002 9.61299 20.052 7.32381 18.3642 5.63598C16.6764 3.94815 14.3872 2.99994 12.0002 2.99994C9.6133 2.99994 7.32411 3.94815 5.63628 5.63598C3.94846 7.32381 3.00024 9.61299 3.00024 11.9999M21.0002 11.9999H3.00024" stroke="#262626" stroke-opacity="0.8" stroke-width="1.71429" stroke-linecap="round" stroke-linejoin="round"/>
<path d="M15.4619 11.9999C15.2919 15.2912 14.0796 18.443 12.0004 20.9999C9.92111 18.443 8.70885 15.2912 8.53882 11.9999C8.70885 8.70872 9.92111 5.55684 12.0004 2.99994C14.0796 5.55684 15.2919 8.70872 15.4619 11.9999Z" stroke="#262626" stroke-opacity="0.8" stroke-width="1.71429" stroke-linecap="round" stroke-linejoin="round"/>
</svg>
